<svg width="199" height="179" viewBox="0 0 199 179" fill="none" xmlns="http://www.w3.org/2000/svg">
<g clip-path="url(#clip0_1522_6196)">
<path d="M41.1231 151.875C41.1177 152.207 41.0143 152.53 40.8259 152.804C40.6376 153.077 40.3727 153.289 40.0644 153.413C39.7561 153.536 39.4182 153.566 39.093 153.499C38.7678 153.431 38.4698 153.269 38.2364 153.033C38.0029 152.796 37.8444 152.496 37.7808 152.17C37.7171 151.844 37.7511 151.507 37.8785 151.2C38.0059 150.893 38.221 150.631 38.4969 150.446C38.7728 150.261 39.0971 150.162 39.4293 150.16C39.654 150.158 39.8768 150.202 40.0845 150.287C40.2923 150.373 40.4807 150.5 40.6386 150.659C40.7965 150.819 40.9208 151.009 41.004 151.218C41.0872 151.427 41.1277 151.65 41.1231 151.875Z" fill="url(#paint0_radial_1522_6196)"/>
<path d="M45.5687 118.731C46.5004 118.731 47.2557 117.976 47.2557 117.044C47.2557 116.113 46.5004 115.357 45.5687 115.357C44.6371 115.357 43.8818 116.113 43.8818 117.044C43.8818 117.976 44.6371 118.731 45.5687 118.731Z" fill="url(#paint1_radial_1522_6196)"/>
<path d="M110.107 1.06922C109.647 1.02146 109.186 0.998381 108.724 1.00009H47.9884C40.3074 1.00009 32.9791 7.22229 31.624 14.9102L6.24432 158.719C5.96118 160.368 5.9239 162.051 6.1337 163.711C6.1337 163.711 8.15938 178.492 22.429 178.361H83.1922C90.8732 178.361 98.2016 172.138 99.5566 164.444L124.916 20.6415C125.004 20.1196 125.067 19.5935 125.102 19.0652C128.027 1.96799 110.107 1.06922 110.107 1.06922Z" fill="url(#paint2_linear_1522_6196)"/>
<path d="M78.6641 171.419H18.6268C11.0218 171.419 5.96111 165.259 7.29543 157.661L32.364 15.5256C33.6983 7.92065 40.9437 1.76758 48.5417 1.76758H108.565C116.17 1.76758 121.231 7.92756 119.897 15.5256L94.8418 157.661C93.5075 165.259 86.2621 171.419 78.6641 171.419Z" fill="white"/>
<path d="M117.166 15.7949L92.2283 157.239C91.1014 163.641 84.9967 168.833 78.5948 168.833H19.6083C13.2063 168.833 8.93376 163.641 10.0607 157.239L35.0048 15.7949C36.1594 9.23391 42.423 3.92429 48.9909 3.92429H53.7129C54.3192 3.90032 54.9136 4.09745 55.3854 4.47898C55.8572 4.86051 56.1744 5.40046 56.2778 5.99836L57.1697 10.6927C57.2774 11.2193 57.5688 11.6905 57.9917 12.0223C58.4146 12.354 58.9417 12.5248 59.4788 12.504H93.8392C94.4544 12.4824 95.053 12.2991 95.5749 11.9726C96.0967 11.6462 96.5234 11.188 96.812 10.6443L99.3493 5.95688C99.666 5.35155 100.137 4.84082 100.715 4.47654C101.293 4.11227 101.957 3.90743 102.64 3.88281H107.362C113.944 3.92429 118.327 9.23391 117.166 15.7949Z" fill="url(#paint3_linear_1522_6196)"/>
<path d="M85.7498 9.1233H66.4264C66.2605 9.12856 66.0955 9.09566 65.9442 9.02715C65.793 8.95864 65.6595 8.85634 65.5539 8.72813C65.4484 8.59991 65.3737 8.44919 65.3356 8.28757C65.2975 8.12596 65.297 7.95775 65.3341 7.7959C65.4095 7.43286 65.6044 7.10555 65.8876 6.86621C66.1708 6.62687 66.526 6.48928 66.8965 6.47541H86.1923C86.3579 6.46903 86.5228 6.50092 86.6741 6.5686C86.8255 6.63629 86.9592 6.73794 87.0648 6.86568C87.1705 6.99341 87.2453 7.14378 87.2834 7.30511C87.3215 7.46644 87.3219 7.63438 87.2846 7.7959C87.2129 8.15633 87.023 8.48255 86.745 8.72295C86.467 8.96336 86.1168 9.10424 85.7498 9.1233Z" fill="url(#paint4_linear_1522_6196)"/>
<path d="M92.0068 7.7959C91.9353 8.1602 91.7427 8.4896 91.4603 8.73059C91.1779 8.97158 90.8223 9.10998 90.4512 9.1233C90.2849 9.12996 90.1192 9.09801 89.9672 9.02994C89.8153 8.96187 89.6811 8.85954 89.5753 8.73097C89.4695 8.60239 89.3949 8.45106 89.3574 8.28883C89.3198 8.12661 89.3203 7.95789 89.3589 7.7959C89.4329 7.43342 89.6265 7.10628 89.9085 6.86686C90.1905 6.62744 90.5448 6.4896 90.9145 6.47541C91.0801 6.46903 91.245 6.50092 91.3963 6.5686C91.5476 6.63629 91.6813 6.73794 91.787 6.86568C91.8927 6.99341 91.9675 7.14378 92.0056 7.30511C92.0437 7.46644 92.0441 7.63438 92.0068 7.7959Z" fill="url(#paint5_linear_1522_6196)"/>
<path d="M119.744 35.2771L119.779 35.0835H119.032C118.591 35.0985 118.167 35.2625 117.831 35.5487C117.494 35.8349 117.265 36.2265 117.179 36.6598L113.681 56.5017C113.55 57.2553 113.57 58.6864 115.064 58.88H115.893L115.727 58.078L115.762 57.8844C116.037 57.7546 116.279 57.5619 116.466 57.3217C116.653 57.0815 116.782 56.8006 116.84 56.5017L120.318 36.6598C120.38 36.3982 120.357 36.1239 120.254 35.8757C120.151 35.6275 119.973 35.4181 119.744 35.2771Z" fill="url(#paint6_linear_1522_6196)"/>
<path d="M115.769 58.8592C114.428 58.6656 114.269 57.3728 114.421 56.5017L117.919 36.6598C118.007 36.2265 118.239 35.8354 118.576 35.5495C118.913 35.2636 119.337 35.0994 119.779 35.0835C120.65 35.0835 121.279 36.5699 121.127 37.441L117.622 57.2829C117.47 58.154 116.682 59.0252 115.769 58.8592Z" fill="#FDFBF9"/>
<path fill-rule="evenodd" clip-rule="evenodd" d="M56.2721 92.3355L56.4876 91.0436C56.7968 89.1898 57.2859 87.8646 58.0446 87.0147C58.7001 86.2804 59.8209 85.6175 62.1079 85.6175C64.395 85.6175 65.2945 86.2804 65.7051 87.0147C66.1803 87.8646 66.2272 89.1898 65.918 91.0436L65.7025 92.3355H56.2721ZM54.696 92.3616L54.9159 91.0436C55.5578 87.1949 57.1274 84.0671 62.3665 84.0671C67.6056 84.0671 68.1317 87.1949 67.4898 91.0436L67.2699 92.3616C70.5614 92.5445 70.1836 93.7377 69.5555 97.5032L69.2107 99.5703C68.5211 103.705 68.3489 104.738 64.1576 104.738H53.6794C49.4881 104.738 49.6609 103.705 50.3505 99.5703L50.6953 97.5032C51.3234 93.7377 51.3435 92.5445 54.696 92.3616ZM60.1207 97.5032C59.542 97.5032 58.9957 97.966 58.9005 98.5368C58.8053 99.1076 59.1972 99.5703 59.7759 99.5703H59.7853C60.364 99.5703 60.9103 99.1076 61.0055 98.5368C61.1008 97.966 60.7088 97.5032 60.1301 97.5032H60.1207Z" fill="url(#paint7_linear_1522_6196)"/>
<circle cx="12.6671" cy="12.6671" r="12.8078" transform="matrix(1 0 -0.180862 0.983508 58.5496 36.3054)" fill="url(#paint8_linear_1522_6196)" stroke="url(#paint9_linear_1522_6196)" stroke-width="0.281491"/>
<g filter="url(#filter0_d_1522_6196)">
<path fill-rule="evenodd" clip-rule="evenodd" d="M75.732 44.6004C76.0523 44.9821 75.9385 45.6009 75.4778 45.9825L66.8263 53.1492C66.3656 53.5308 65.7324 53.5308 65.412 53.1492L62.6777 49.8916C62.3573 49.5099 62.4711 48.8912 62.9318 48.5095C63.3925 48.1279 64.0257 48.1279 64.3461 48.5095L66.5004 51.0761L74.3177 44.6004C74.7784 44.2188 75.4116 44.2188 75.732 44.6004Z" fill="white"/>
</g>
<circle cx="3.37789" cy="3.37789" r="3.37789" transform="matrix(1 0 -0.180862 0.983508 44.7087 39.6277)" fill="url(#paint10_linear_1522_6196)"/>
<circle cx="1.12596" cy="1.12596" r="1.12596" transform="matrix(1 0 -0.180862 0.983508 81.9136 36.3054)" fill="#FFD855"/>
<circle cx="3.94087" cy="3.94087" r="3.94087" transform="matrix(1 0 -0.180862 0.983508 89.4253 48)" fill="url(#paint11_linear_1522_6196)"/>
<circle cx="1.82969" cy="1.82969" r="1.82969" transform="matrix(1 0 -0.180862 0.983508 49.4951 57)" fill="url(#paint12_linear_1522_6196)"/>
<circle cx="0.844473" cy="0.844473" r="0.844473" transform="matrix(1 0 -0.180862 0.983508 44.3057 62.26)" fill="url(#paint13_linear_1522_6196)"/>
<circle cx="1.97044" cy="1.97044" r="1.97044" transform="matrix(1 0 -0.180862 0.983508 55.5762 31.0454)" fill="url(#paint14_linear_1522_6196)"/>
<circle cx="1.97044" cy="1.97044" r="1.97044" transform="matrix(1 0 -0.180862 0.983508 89.8672 31.3223)" fill="url(#paint15_linear_1522_6196)"/>
<circle cx="2.25193" cy="2.25193" r="2.25193" transform="matrix(1 0 -0.180862 0.983508 78.0923 28)" fill="url(#paint16_linear_1522_6196)"/>
<circle cx="2.39267" cy="2.39267" r="2.39267" transform="matrix(1 0 -0.180862 0.983508 66.8657 65)" fill="url(#paint17_linear_1522_6196)"/>
<circle cx="1.12596" cy="1.12596" r="1.12596" transform="matrix(1 0 -0.180862 0.983508 56.4534 38.5203)" fill="url(#paint18_linear_1522_6196)"/>
<path fill-rule="evenodd" clip-rule="evenodd" d="M127.425 169.812L126.564 201.774L153.22 202.964L154.037 184.644L155.087 184.691L158.378 203.198L183.814 204.333L180.071 165.335L127.425 169.812Z" fill="url(#paint19_linear_1522_6196)"/>
<path d="M156.567 79.1874L161.291 100.101L162.777 104.998C162.777 104.998 159.787 108.194 153.232 109.009C148.747 109.57 145.77 109.415 143.832 109.092C142.234 108.796 140.309 108.306 141.561 105.473C143.352 101.258 143.063 98.4693 143.063 98.4693L141.453 86.5711L156.567 79.1874Z" fill="#F2C6B4"/>
<path d="M155.687 91.2418C153.303 94.3357 150.742 95.7002 148.537 96.5606C145.45 97.7823 143.3 97.9554 143.3 97.9554L141.428 87.1055L156.546 78.875L157.207 81.3863L158.086 85.4609C158.08 85.5468 157.887 88.3061 155.687 91.2418Z" fill="url(#paint20_linear_1522_6196)"/>
<path d="M152.209 74.2996C152.209 74.2996 147.93 68.4241 145.014 66.9983C139.432 64.0818 133.796 63.8843 133.796 63.8843L134.929 60.9967L149.396 61.3931L154.36 70.9831L152.209 74.2996Z" fill="url(#paint21_linear_1522_6196)"/>
<path fill-rule="evenodd" clip-rule="evenodd" d="M137.766 57.325C137.766 57.325 134.968 61.0529 134.392 62.8568C133.836 64.4101 133.623 65.9908 133.549 66.91C133.268 70.4195 133.128 75.3702 133.335 78.162C133.808 82.9937 135.891 86.0205 138.563 87.0762C141.236 88.1319 146.342 86.776 149.815 85.3731C152.754 84.1795 154.501 82.8061 155.07 81.0857C155.222 80.611 155.406 80.104 155.595 79.6145C156.076 79.902 156.617 80.083 157.196 80.1295C159.515 80.3158 162.384 76.9296 162.602 74.2235C162.819 71.5175 160.303 70.5165 157.983 70.3301C157.487 70.2902 157.002 70.3525 156.545 70.5017L151.465 57.3323L137.766 57.325Z" fill="url(#paint22_linear_1522_6196)"/>
<path d="M157.708 77.644C156.935 77.5819 156.359 76.9048 156.421 76.1316C156.483 75.3585 157.972 73.4384 158.746 73.5005C159.519 73.5626 159.283 75.5834 159.221 76.3566C159.159 77.1297 158.481 77.7061 157.708 77.644Z" fill="url(#paint23_linear_1522_6196)"/>
<path d="M143.451 72.9556C142.796 72.903 142.307 72.3418 142.359 71.7022C142.41 71.0626 142.982 70.5868 143.637 70.6394C144.292 70.692 144.781 71.2531 144.73 71.8927C144.678 72.5323 144.106 73.0082 143.451 72.9556Z" fill="#4F2B23"/>
<path d="M134.696 71.5877C134.042 71.5351 133.553 70.9739 133.604 70.3343C133.655 69.6947 134.228 69.2188 134.883 69.2714C135.537 69.3241 136.026 69.8852 135.975 70.5248C135.924 71.1644 135.351 71.6403 134.696 71.5877Z" fill="#4F2B23"/>
<path d="M137.614 78.6776C137.874 78.6985 138.149 78.5503 138.263 78.2191C138.377 77.8879 138.143 77.5287 137.796 77.5008C137.796 77.5008 136.855 77.255 136.829 76.4871C136.803 75.7191 137.754 73.6681 138.277 72.6038C138.478 72.2796 138.331 71.9274 137.991 71.815C137.657 71.6179 137.296 71.7591 137.182 72.0904C136.981 72.4146 135.622 75.1987 135.6 76.5585C135.586 77.7446 136.575 78.5941 137.614 78.6776Z" fill="#B4603F"/>
<path d="M149.495 62.4333C149.495 62.4333 149.425 65.4205 150.906 68.1997C152.388 70.979 152.557 70.9926 152.399 71.8944L152.237 76.038C152.229 77.2012 153.421 77.2138 153.844 77.2478C153.929 77.2546 154.84 73.3375 154.84 73.3375C154.84 73.3375 155.411 70.4737 159.117 71.0209C161.814 71.4038 162.618 74.1286 162.618 74.1286C162.618 74.1286 165.058 67.0922 165.784 65.4878C166.941 62.7543 165.549 60.9798 164.281 59.7972C163.005 58.6971 161.644 58.6708 161.644 58.6708C161.644 58.6708 162.568 54.5885 158.083 52.0667C155.883 50.8092 154 50.9073 152.144 50.6751C150.287 50.4428 148.529 50.0521 147.005 49.9296C143.265 49.7955 141.999 51.772 141.999 51.772C141.999 51.772 134.961 48.1307 131.692 51.6921C128.43 55.171 131.374 59.8967 135.43 61.3865C138.399 62.6226 142.776 63.3068 149.495 62.4333Z" fill="url(#paint24_linear_1522_6196)"/>
<path d="M140.007 81.7727C143.281 81.877 144.825 79.858 145.263 78.7027C145.374 78.3941 145.228 78.0649 144.891 77.9585C144.554 77.852 144.198 77.9822 144.087 78.2907C144.081 78.3696 143.204 80.6803 140.102 80.5898C139.759 80.5622 139.476 80.857 139.457 81.0936C139.426 81.4879 139.664 81.7451 140.007 81.7727Z" fill="#CF7653"/>
<path d="M146.958 69.4758C147.492 69.1486 147.635 68.4198 147.412 68.0318C147.336 67.9331 146.159 65.7102 143.106 65.7426C142.77 65.7156 142.166 65.8521 142.092 66.7715C142.048 67.3232 142.362 67.626 142.699 67.6531C144.986 67.6518 145.787 69.2892 145.863 69.3879C146.101 69.5921 146.599 69.7246 146.958 69.4758ZM134.234 66.5103C134.318 66.5171 134.487 66.5306 134.578 66.4454C135.296 65.9479 136.276 66.3968 136.361 66.4036C136.69 66.5226 137.041 66.3657 137.148 66.0967C137.459 65.3814 137.075 64.8879 136.83 64.7757C136.746 64.7689 135.275 64.0956 134.023 64.9203C133.756 65.0839 133.459 65.6152 133.828 66.2926C133.821 66.3846 134.066 66.4968 134.234 66.5103Z" fill="#4F2B23"/>
<path d="M112.144 117.833C115.681 100.903 130.337 92.318 137.223 90.1416C138.989 91.3794 143.909 93.917 149.461 94.1647C155.013 94.4125 161.551 90.3992 164.125 88.3616C164.786 88.3911 167.172 89.0936 171.428 91.6678C179.205 95.4919 178.798 93.4868 185.748 104.725C192.697 115.963 194.787 135.925 192.538 141.785C190.74 146.474 184.899 149.723 182.203 150.762C182.702 154.427 183.84 163.055 184.404 168.246C172.262 173.168 128.571 172.709 121.741 169.92C121.054 167.505 122.104 154.372 122.715 148.108C120.717 148.35 116.235 148.613 114.287 147.732C110.906 145.594 107.723 138.994 112.144 117.833Z" fill="url(#paint25_linear_1522_6196)"/>
<path d="M168.957 126.825C167.048 107.268 175.659 98.1485 180.202 96.5298C187.329 103.802 190.719 116.868 191.556 120.382C192.393 123.897 198.382 145.523 184.798 149.388C171.214 153.252 150.27 144.867 143.441 142.078C143.097 140.871 146.157 129.45 147.729 123.891C148.713 124.1 154.336 124.98 168.957 126.825Z" fill="url(#paint26_linear_1522_6196)"/>
<path fill-rule="evenodd" clip-rule="evenodd" d="M169.236 107.32C169.16 106.991 168.958 106.704 168.673 106.522C168.388 106.339 168.042 106.276 167.71 106.344C165.194 106.866 159.492 108.038 156.87 108.585C156.695 108.62 156.53 108.691 156.383 108.793C156.237 108.895 156.114 109.026 156.021 109.178C155.928 109.329 155.867 109.499 155.843 109.675C155.818 109.851 155.829 110.03 155.876 110.201C156.969 114.127 160.147 125.549 161.177 129.242C161.264 129.56 161.469 129.832 161.751 130.004C162.033 130.175 162.37 130.232 162.693 130.163C165.057 129.675 170.324 128.57 172.781 128.056C172.951 128.021 173.113 127.952 173.256 127.853C173.399 127.755 173.521 127.628 173.615 127.482C173.708 127.335 173.771 127.171 173.8 127C173.829 126.829 173.823 126.654 173.783 126.485C172.862 122.604 170.134 111.107 169.236 107.32Z" fill="url(#paint27_linear_1522_6196)"/>
<path d="M158.094 111.342C158.527 111.348 158.884 111.003 158.891 110.57C158.898 110.138 158.553 109.782 158.12 109.776C157.687 109.77 157.33 110.115 157.323 110.548C157.316 110.98 157.661 111.336 158.094 111.342Z" fill="white"/>
<path d="M164.489 114.741C162.92 114.274 157.768 116.925 155.388 118.309C156.7 122.304 159.52 125.907 159.431 127.89C161.866 128.992 162.944 127.091 165.511 125.218C166 125.5 168 125 167.5 123.5C169.5 123.5 169.146 121.36 168.5 121C169.469 121.54 171.054 123.442 172.068 122.99C173.937 122.158 169.809 117.959 168.862 116.923C167.914 115.888 166.449 115.326 164.489 114.741Z" fill="url(#paint28_linear_1522_6196)"/>
<path d="M129.669 123.582C130.146 112.874 124.928 103.336 121.935 99.8906C110.047 110.288 110.047 129.164 110.278 135.135C110.796 148.569 114.678 151.226 125.695 149.234C144.258 145.095 155.441 135.991 161.153 130.451C160.859 129.61 158.495 124.371 154.487 116.245C146.444 118.37 139.371 121.034 129.669 123.582Z" fill="url(#paint29_linear_1522_6196)"/>
</g>
<defs>
<filter id="filter0_d_1522_6196" x="61.9326" y="44.3142" width="14.5442" height="10.2471" filterUnits="userSpaceOnUse" color-interpolation-filters="sRGB">
<feFlood flood-opacity="0" result="BackgroundImageFix"/>
<feColorMatrix in="SourceAlpha" type="matrix" values="0 0 0 0 0 0 0 0 0 0 0 0 0 0 0 0 0 0 127 0" result="hardAlpha"/>
<feOffset dy="0.562982"/>
<feGaussianBlur stdDeviation="0.281491"/>
<feComposite in2="hardAlpha" operator="out"/>
<feColorMatrix type="matrix" values="0 0 0 0 0 0 0 0 0 0 0 0 0 0 0 0 0 0 0.1 0"/>
<feBlend mode="normal" in2="BackgroundImageFix" result="effect1_dropShadow_1522_6196"/>
<feBlend mode="normal" in="SourceGraphic" in2="effect1_dropShadow_1522_6196" result="shape"/>
</filter>
<radialGradient id="paint0_radial_1522_6196" cx="0" cy="0" r="1" gradientUnits="userSpaceOnUse" gradientTransform="translate(39.1458 151.46) scale(1.68691 1.68691)">
<stop stop-color="white"/>
<stop offset="1" stop-color="#FED5AB"/>
</radialGradient>
<radialGradient id="paint1_radial_1522_6196" cx="0" cy="0" r="1" gradientUnits="userSpaceOnUse" gradientTransform="translate(45.2853 116.664) scale(1.68691 1.68691)">
<stop stop-color="white"/>
<stop offset="1" stop-color="#FED5AB"/>
</radialGradient>
<linearGradient id="paint2_linear_1522_6196" x1="115.487" y1="201.554" x2="-22.5132" y2="-19.9458" gradientUnits="userSpaceOnUse">
<stop stop-color="#3079E4"/>
<stop offset="1" stop-color="#D3E7FF"/>
</linearGradient>
<linearGradient id="paint3_linear_1522_6196" x1="52.662" y1="-11.6174" x2="73.4027" y2="174.122" gradientUnits="userSpaceOnUse">
<stop stop-color="#F2F2F2"/>
<stop offset="1" stop-color="white"/>
</linearGradient>
<linearGradient id="paint4_linear_1522_6196" x1="92.0412" y1="8.93664" x2="63.3499" y2="6.86257" gradientUnits="userSpaceOnUse">
<stop stop-color="#E0F2FF"/>
<stop offset="1" stop-color="#7FAAFE"/>
</linearGradient>
<linearGradient id="paint5_linear_1522_6196" x1="92.1174" y1="7.8996" x2="63.4261" y2="5.82553" gradientUnits="userSpaceOnUse">
<stop stop-color="#4C93FE"/>
<stop offset="1" stop-color="#3155D2"/>
</linearGradient>
<linearGradient id="paint6_linear_1522_6196" x1="113.633" y1="46.9817" x2="120.359" y2="46.9817" gradientUnits="userSpaceOnUse">
<stop stop-color="#8AB8FE"/>
<stop offset="1" stop-color="#3B75CB"/>
</linearGradient>
<linearGradient id="paint7_linear_1522_6196" x1="53.5392" y1="80.4497" x2="71.6047" y2="108.479" gradientUnits="userSpaceOnUse">
<stop stop-color="#72A5EF"/>
<stop offset="1" stop-color="#ABCDFE" stop-opacity="0"/>
</linearGradient>
<linearGradient id="paint8_linear_1522_6196" x1="14.9291" y1="25.8997" x2="8.36456" y2="-0.0274259" gradientUnits="userSpaceOnUse">
<stop stop-color="#4FB650"/>
<stop offset="1" stop-color="#8FEC90"/>
</linearGradient>
<linearGradient id="paint9_linear_1522_6196" x1="12.6671" y1="0" x2="12.6671" y2="25.3342" gradientUnits="userSpaceOnUse">
<stop stop-color="#53BC42"/>
<stop offset="1" stop-color="#9CF18E"/>
</linearGradient>
<linearGradient id="paint10_linear_1522_6196" x1="3.37789" y1="-6.1044e-08" x2="5.82195" y2="8.19367" gradientUnits="userSpaceOnUse">
<stop stop-color="#52DC53"/>
<stop offset="1" stop-color="#64C764" stop-opacity="0"/>
</linearGradient>
<linearGradient id="paint11_linear_1522_6196" x1="3.94087" y1="9.27215e-08" x2="7.05209" y2="13.8968" gradientUnits="userSpaceOnUse">
<stop stop-color="#FFD855"/>
<stop offset="1" stop-color="#FFD855" stop-opacity="0"/>
</linearGradient>
<linearGradient id="paint12_linear_1522_6196" x1="1.82969" y1="4.30492e-08" x2="3.27418" y2="6.45207" gradientUnits="userSpaceOnUse">
<stop stop-color="#FFD855"/>
<stop offset="1" stop-color="#FFD855" stop-opacity="0"/>
</linearGradient>
<linearGradient id="paint13_linear_1522_6196" x1="0.844473" y1="1.98689e-08" x2="1.51116" y2="2.97788" gradientUnits="userSpaceOnUse">
<stop stop-color="#FFD855"/>
<stop offset="1" stop-color="#FFD855" stop-opacity="0"/>
</linearGradient>
<linearGradient id="paint14_linear_1522_6196" x1="1.97044" y1="4.63607e-08" x2="3.52604" y2="6.94838" gradientUnits="userSpaceOnUse">
<stop stop-color="#FFD855"/>
<stop offset="1" stop-color="#FFD855" stop-opacity="0"/>
</linearGradient>
<linearGradient id="paint15_linear_1522_6196" x1="1.97044" y1="4.63607e-08" x2="3.52604" y2="6.94838" gradientUnits="userSpaceOnUse">
<stop stop-color="#FFD855"/>
<stop offset="1" stop-color="#FFD855" stop-opacity="0"/>
</linearGradient>
<linearGradient id="paint16_linear_1522_6196" x1="2.25193" y1="-4.0696e-08" x2="3.8813" y2="5.46244" gradientUnits="userSpaceOnUse">
<stop stop-color="#52DC53"/>
<stop offset="1" stop-color="#64C764" stop-opacity="0"/>
</linearGradient>
<linearGradient id="paint17_linear_1522_6196" x1="2.39267" y1="-4.32395e-08" x2="4.12388" y2="5.80385" gradientUnits="userSpaceOnUse">
<stop stop-color="#52DC53"/>
<stop offset="1" stop-color="#64C764" stop-opacity="0"/>
</linearGradient>
<linearGradient id="paint18_linear_1522_6196" x1="1.12596" y1="-2.0348e-08" x2="1.94065" y2="2.73122" gradientUnits="userSpaceOnUse">
<stop stop-color="#52DC53"/>
<stop offset="1" stop-color="#64C764" stop-opacity="0"/>
</linearGradient>
<linearGradient id="paint19_linear_1522_6196" x1="149.201" y1="160.481" x2="149.18" y2="216.61" gradientUnits="userSpaceOnUse">
<stop stop-color="#98AAD7"/>
<stop offset="1" stop-color="#FBFBFB" stop-opacity="0"/>
</linearGradient>
<linearGradient id="paint20_linear_1522_6196" x1="152.68" y1="93.187" x2="147.365" y2="85.1805" gradientUnits="userSpaceOnUse">
<stop stop-color="#FFBCA0" stop-opacity="0"/>
<stop offset="0.99" stop-color="#BC5A32"/>
</linearGradient>
<linearGradient id="paint21_linear_1522_6196" x1="143.89" y1="67.4611" x2="146.954" y2="61.8789" gradientUnits="userSpaceOnUse">
<stop stop-color="#BC5A32" stop-opacity="0"/>
<stop offset="0.99" stop-color="#FB9D76"/>
</linearGradient>
<linearGradient id="paint22_linear_1522_6196" x1="153.121" y1="55.4295" x2="138.079" y2="87.4114" gradientUnits="userSpaceOnUse">
<stop stop-color="#F3885B"/>
<stop offset="1" stop-color="#FECCB7"/>
</linearGradient>
<linearGradient id="paint23_linear_1522_6196" x1="157.793" y1="78.1378" x2="157.852" y2="75.1393" gradientUnits="userSpaceOnUse">
<stop stop-color="#CC7A5E" stop-opacity="0"/>
<stop offset="0.924" stop-color="#AA5F4B"/>
</linearGradient>
<linearGradient id="paint24_linear_1522_6196" x1="148.993" y1="50.0894" x2="155.95" y2="85.3653" gradientUnits="userSpaceOnUse">
<stop stop-color="#321011"/>
<stop offset="1" stop-color="#A76D6F"/>
</linearGradient>
<linearGradient id="paint25_linear_1522_6196" x1="129.119" y1="94.7473" x2="173.313" y2="184.143" gradientUnits="userSpaceOnUse">
<stop stop-color="#F9C764"/>
<stop offset="1" stop-color="#FFF8E9"/>
</linearGradient>
<linearGradient id="paint26_linear_1522_6196" x1="170.387" y1="96.0919" x2="167.98" y2="150.037" gradientUnits="userSpaceOnUse">
<stop stop-color="#FAD17E"/>
<stop offset="1" stop-color="#FBD993"/>
</linearGradient>
<linearGradient id="paint27_linear_1522_6196" x1="165.024" y1="106.275" x2="164.682" y2="130.224" gradientUnits="userSpaceOnUse">
<stop stop-color="#629BEC"/>
<stop offset="1" stop-color="#CFE3FF"/>
</linearGradient>
<linearGradient id="paint28_linear_1522_6196" x1="164.218" y1="114.692" x2="163.353" y2="129.059" gradientUnits="userSpaceOnUse">
<stop stop-color="#FFD8C9"/>
<stop offset="1" stop-color="#FFE7DE"/>
</linearGradient>
<linearGradient id="paint29_linear_1522_6196" x1="164.07" y1="124.123" x2="122.061" y2="141.621" gradientUnits="userSpaceOnUse">
<stop stop-color="#FECC69"/>
<stop offset="1" stop-color="#FEEECE" stop-opacity="0.4"/>
</linearGradient>
<clipPath id="clip0_1522_6196">
<rect width="199" height="179" fill="white"/>
</clipPath>
</defs>
</svg>
