<svg width="108" height="60" viewBox="0 0 108 60" fill="none" xmlns="http://www.w3.org/2000/svg">
<path d="M40.9683 37.0021C38.5015 37.0021 35.2124 35.4183 35.2124 30.7716C35.2124 25.988 38.8275 24.5429 40.986 24.5429C42.1024 24.5024 43.2108 24.7463 44.2063 25.2517L43.276 26.9555C42.7324 26.7293 42.1516 26.6053 41.5627 26.5897C39.7179 26.5897 38.1967 28.3069 38.1967 30.7564C38.1967 32.7903 39.584 34.8342 41.5398 34.8342C42.1183 34.8574 42.693 34.7309 43.2079 34.4672L44.1964 36.2852C43.1492 36.8145 41.9813 37.0616 40.8086 37.0021" fill="white"/>
<path d="M69.0478 36.7432V28.3576C69.0691 28.1449 69.0439 27.9301 68.9739 27.728C68.9038 27.5259 68.7907 27.3414 68.6422 27.1871C68.4936 27.0328 68.3133 26.9125 68.1136 26.8344C67.9139 26.7562 67.6996 26.7222 67.4854 26.7346C67.2224 26.7196 66.9594 26.7638 66.7159 26.8642C66.4725 26.9645 66.2549 27.1183 66.0793 27.3141V36.7432H63.0786V28.3114C63.0877 28.1003 63.0525 27.8897 62.9753 27.6929C62.8982 27.4961 62.7807 27.3174 62.6305 27.1683C62.4539 27.0144 62.2486 26.8968 62.0262 26.8224C61.8038 26.7479 61.5688 26.7181 61.3348 26.7346C60.9057 26.7308 60.4795 26.8062 60.0779 26.957V36.7432H57.1001V25.1332C58.254 24.8371 59.4322 24.6446 60.6206 24.5579C61.5834 24.4877 62.5506 24.6046 63.4686 24.9021C63.949 25.0913 64.3818 25.3832 64.7367 25.7571C65.1382 25.3963 65.6013 25.1101 66.104 24.912C66.8034 24.6548 67.5462 24.5355 68.2913 24.5608C69.3321 24.551 70.3347 24.9505 71.0817 25.6728C71.411 26.0363 71.6651 26.4609 71.8296 26.9222C71.994 27.3836 72.0656 27.8728 72.0403 28.3618V36.7473L69.0478 36.7432Z" fill="white"/>
<path d="M56.0745 51.0374C56.0745 51.0374 54.1845 51.2716 52.8994 51.2716C48.4943 51.2716 46.6606 49.7112 46.6606 47.1265C46.6606 45.0779 48.7163 43.1664 53.0679 43.1664V42.6232C53.0679 42.011 52.5699 40.9891 50.8507 40.9891C50.0153 40.9949 49.192 41.1891 48.4426 41.5574C48.4303 41.51 47.4612 39.7353 47.4612 39.7353C48.728 39.1079 50.1296 38.7988 51.5438 38.8351C53.707 38.8351 56.0757 40.0128 56.0757 42.6232L56.0745 51.0374ZM53.0703 44.7075C50.7244 44.7075 49.6161 45.5199 49.6161 47.1288C49.6096 47.4421 49.6686 47.7532 49.7895 48.0424C49.9104 48.3317 50.0904 48.5925 50.3182 48.8085C50.546 49.0245 50.8164 49.1908 51.1123 49.2967C51.4082 49.4026 51.723 49.4459 52.0366 49.4238C52.3866 49.423 52.7346 49.3723 53.0703 49.2733V44.7075Z" fill="white"/>
<path d="M45.0572 49.586C44.0975 50.6214 42.3831 51.2728 39.8199 51.2728C37.8564 51.2728 35.688 51.0387 35.688 51.0387V37.9924C35.688 37.9924 37.6532 37.7688 39.0681 37.7688C42.4442 37.7688 43.2447 38.3576 43.8544 38.7311C44.3125 38.9658 44.7001 39.3174 44.9776 39.7499C45.2551 40.1824 45.4127 40.6805 45.4343 41.1934C45.4343 43.2777 43.4796 43.8219 42.9234 44.0525V44.0895C43.4591 44.2071 43.9649 44.433 44.4094 44.7532C44.8539 45.0735 45.2277 45.4812 45.5077 45.9513C45.7352 46.5478 45.8128 47.1907 45.7339 47.824C45.655 48.4573 45.4219 49.0618 45.0549 49.5848L45.0572 49.586ZM42.4436 41.2437C42.4436 40.1434 41.6401 39.592 40.1342 39.592C39.6461 39.5891 39.1592 39.6411 38.6828 39.7471V43.4134H39.094C41.8709 43.4134 42.4465 42.3201 42.4465 41.2437H42.4436ZM42.8289 47.3431C42.8289 46.3148 42.4089 44.9223 39.094 44.9223H38.6828V49.2869C39.7042 49.5408 40.7811 49.4508 41.7458 49.0311C42.0673 48.88 42.3393 48.6412 42.5305 48.3425C42.7216 48.0438 42.824 47.6974 42.8259 47.3431" fill="white"/>
<path d="M64.2657 51.0368V43.6562C64.2657 42.1087 64.0308 41.3437 62.7627 41.0604C62.1149 40.9734 61.4557 41.0334 60.8344 41.236V51.0368H57.8643V39.4175C59.0127 39.1444 60.1814 38.9637 61.3589 38.8772C63.582 38.7637 64.6891 39.03 65.791 39.7552C66.2437 40.0746 66.6121 40.4986 66.8645 40.9908C67.1169 41.483 67.246 42.0288 67.2406 42.5816V51.0368H64.2657Z" fill="white"/>
<path d="M55.5939 30.7758C55.5939 26.8719 53.5277 24.5454 49.9508 24.5454C46.3739 24.5454 44.2324 26.8719 44.2324 30.7758C44.2324 34.6798 46.3768 37.0069 49.9508 37.0069C53.5247 37.0069 55.5939 34.6827 55.5939 30.7758ZM52.5891 30.7758C52.5891 33.9458 51.1795 34.8489 49.9508 34.8489C48.722 34.8489 47.2373 33.9458 47.2373 30.7758C47.2373 27.6059 48.7262 26.704 49.9508 26.704C51.1754 26.704 52.5891 27.6094 52.5891 30.7758Z" fill="white"/>
<path d="M76.0087 51.038L72.0254 46.3556H71.9984L72.0371 51.038H69.0464V38.0034H72.0371L71.9984 43.0153H72.0401L75.5295 39.1126H79.6074L74.0435 44.6764L80.0026 51.038H76.0087Z" fill="white"/>
<path d="M72.0636 22.1241C71.2079 23.0851 73.223 24.2019 74.5269 24.6754C76.6619 25.4179 78.8831 25.8868 81.1368 26.0708L81.1298 19.3076C76.8369 19.7442 73.4544 20.7972 72.0636 22.1241Z" fill="url(#paint0_linear_1101_5737)"/>
<path d="M20.7732 25.9351C20.7925 27.6043 20.1778 29.219 19.0523 30.4554C17.8294 31.595 16.6594 31.9906 13.6117 31.9379H13.0585V36.7433H8.86133V20.1155C8.86133 20.1155 11.1408 19.8475 13.5377 19.8334C16.9214 19.8147 18.2423 20.438 19.2408 21.3845C19.9955 22.1015 20.7732 23.8608 20.7732 25.9351ZM16.6495 25.8555C16.6495 22.8365 15.1394 22.1161 14.1039 22.0617C13.7192 22.0423 13.0585 22.0804 13.0585 22.0804V29.6079H13.6294C15.039 29.6079 16.6495 28.4695 16.6495 25.8555Z" fill="#0072BC"/>
<path d="M30.6417 36.7418H27.0995L21.1509 20.0742H26.202C26.202 20.0742 28.9719 29.9658 29.0042 30.1917H29.0306C29.0629 29.9652 31.9503 20.0742 31.9503 20.0742H36.5621L30.6417 36.7418Z" fill="#0072BC"/>
<path d="M89.8664 27.6167C94.1587 27.1824 97.5412 26.1294 98.9338 24.8014C99.7872 23.8409 97.772 22.7248 96.467 22.2507C94.3317 21.5081 92.1104 21.039 89.8564 20.8547L89.8664 27.6167Z" fill="url(#paint1_linear_1101_5737)"/>
<path d="M85.5037 27.8336C79.6063 27.8394 74.5539 26.7215 72.4395 25.1412C72.4213 25.1289 72.4113 25.1412 72.4072 25.1453C72.4073 25.1541 72.4102 25.1627 72.4155 25.1699L85.5184 38.2021L98.955 24.7783C97.1419 26.5412 91.8094 27.8283 85.5049 27.8348" fill="url(#paint2_linear_1101_5737)"/>
<path d="M72.4072 25.1722C72.4073 25.1814 72.4102 25.1904 72.4155 25.198V25.1687L72.4119 25.1658L72.409 25.1699L72.4072 25.1722ZM85.5067 27.8336C79.6092 27.8394 74.5569 26.7215 72.4425 25.1412C72.4243 25.1289 72.4143 25.1412 72.4102 25.1453C72.41 25.1528 72.4116 25.1602 72.4149 25.1669C72.4207 25.1617 72.429 25.1599 72.4425 25.1699C74.5569 26.8895 79.608 28.0964 85.5067 28.0917C91.8123 28.0847 97.1448 26.687 98.9567 24.7783C97.1436 26.5412 91.8112 27.8283 85.5067 27.8348" fill="url(#paint3_linear_1101_5737)"/>
<path d="M89.8589 21.0871C92.098 21.2617 94.3083 21.7017 96.443 22.3976C97.5407 22.7716 99.1389 23.5681 99.1371 24.3501C99.1847 23.5131 97.5707 22.6528 96.4694 22.2507C94.3342 21.5081 92.1129 21.039 89.8589 20.8547V21.0871Z" fill="url(#paint4_linear_1101_5737)"/>
<path d="M72.042 22.1505C73.8528 20.3888 79.187 19.0999 85.4921 19.0929C91.3866 19.0876 96.4395 20.2014 98.5533 21.7853C98.5715 21.7993 98.5815 21.7894 98.5845 21.7853C98.5861 21.7766 98.5845 21.7676 98.5798 21.7601L85.4762 8.72729L72.042 22.1505Z" fill="url(#paint5_linear_1101_5737)"/>
<path d="M98.5822 21.7605V21.7634L98.5863 21.7558C98.5878 21.7469 98.5861 21.7378 98.5816 21.73L98.5822 21.7605ZM85.4945 18.8386C79.1871 18.8445 73.8529 20.2434 72.0444 22.1514C73.8552 20.3897 79.1894 19.1009 85.4945 19.0938C91.389 19.0886 96.4419 20.2024 98.5558 21.7862C98.574 21.8002 98.584 21.7903 98.5869 21.7862C98.5879 21.7824 98.5881 21.7785 98.5874 21.7746C98.5867 21.7708 98.5851 21.7671 98.5828 21.764C98.5781 21.7681 98.5687 21.771 98.5558 21.7605C96.4455 20.0455 91.412 18.8399 85.5345 18.8393H85.4945" fill="url(#paint6_linear_1101_5737)"/>
<path d="M85.5185 38.0253L72.442 25.14C72.4238 25.1277 72.4138 25.14 72.4097 25.1441C72.4098 25.1529 72.4127 25.1615 72.4179 25.1686L85.5208 38.2009L98.9574 24.7771L85.5185 38.0253Z" fill="url(#paint7_linear_1101_5737)"/>
<path d="M74.5269 24.6769C76.6619 25.4194 78.883 25.8883 81.1368 26.0723V25.8381C78.8982 25.663 76.6885 25.2227 74.5545 24.5265C73.4561 24.1525 71.8592 23.3559 71.8609 22.5728C71.8128 23.4109 73.4262 24.2701 74.5286 24.674" fill="url(#paint8_linear_1101_5737)"/>
<defs>
<linearGradient id="paint0_linear_1101_5737" x1="79.8286" y1="26.8215" x2="77.5153" y2="19.3023" gradientUnits="userSpaceOnUse">
<stop stop-color="#0071BB"/>
<stop offset="0.218" stop-color="#0274BD"/>
<stop offset="0.414" stop-color="#0B7FC4"/>
<stop offset="0.603" stop-color="#1A91D0"/>
<stop offset="0.785" stop-color="#2EABE1"/>
<stop offset="0.936" stop-color="#44C7F4"/>
</linearGradient>
<linearGradient id="paint1_linear_1101_5737" x1="94.8406" y1="26.4469" x2="92.9158" y2="20.1874" gradientUnits="userSpaceOnUse">
<stop stop-color="#FFDD00"/>
<stop offset="0.097" stop-color="#FFDD00"/>
<stop offset="0.223" stop-color="#FDD403"/>
<stop offset="0.43" stop-color="#FBBB0B"/>
<stop offset="0.689" stop-color="#F69419"/>
<stop offset="0.801" stop-color="#F48120"/>
<stop offset="1" stop-color="#F48120"/>
</linearGradient>
<linearGradient id="paint2_linear_1101_5737" x1="72.4072" y1="31.4902" x2="98.955" y2="31.4902" gradientUnits="userSpaceOnUse">
<stop offset="0.038" stop-color="#FFDD00"/>
<stop offset="0.283" stop-color="#FBC109"/>
<stop offset="0.769" stop-color="#F48120"/>
</linearGradient>
<linearGradient id="paint3_linear_1101_5737" x1="72.4072" y1="26.435" x2="98.9567" y2="26.435" gradientUnits="userSpaceOnUse">
<stop stop-color="#EAC900"/>
<stop offset="0.491" stop-color="#F48120"/>
</linearGradient>
<linearGradient id="paint4_linear_1101_5737" x1="89.8589" y1="22.6024" x2="99.1381" y2="22.6024" gradientUnits="userSpaceOnUse">
<stop stop-color="#F48120"/>
<stop offset="0.13" stop-color="#F48120"/>
<stop offset="0.509" stop-color="#F48120"/>
<stop offset="1" stop-color="#EAC900"/>
</linearGradient>
<linearGradient id="paint5_linear_1101_5737" x1="72.042" y1="15.4389" x2="98.5851" y2="15.4389" gradientUnits="userSpaceOnUse">
<stop offset="0.16" stop-color="#0071BB"/>
<stop offset="0.366" stop-color="#1186C9"/>
<stop offset="1" stop-color="#44C7F4"/>
</linearGradient>
<linearGradient id="paint6_linear_1101_5737" x1="72.0444" y1="20.495" x2="98.5878" y2="20.495" gradientUnits="userSpaceOnUse">
<stop stop-color="#005CA6"/>
<stop offset="0.16" stop-color="#005CA6"/>
<stop offset="0.406" stop-color="#0077BC"/>
<stop offset="1" stop-color="#00B8F1"/>
</linearGradient>
<linearGradient id="paint7_linear_1101_5737" x1="72.4097" y1="31.489" x2="98.9574" y2="31.489" gradientUnits="userSpaceOnUse">
<stop stop-color="#E8C81C"/>
<stop offset="0.769" stop-color="#DC7727"/>
</linearGradient>
<linearGradient id="paint8_linear_1101_5737" x1="71.8599" y1="24.3225" x2="81.1368" y2="24.3225" gradientUnits="userSpaceOnUse">
<stop stop-color="#1B92D0"/>
<stop offset="0.84" stop-color="#015DA6"/>
<stop offset="1" stop-color="#015DA6"/>
</linearGradient>
</defs>
</svg>
