<svg width="69" height="32" viewBox="0 0 69 32" fill="none" xmlns="http://www.w3.org/2000/svg">
<path d="M24.7262 21.1348C22.8761 21.1348 20.4093 19.9733 20.4093 16.5658C20.4093 13.0578 23.1206 11.998 24.7395 11.998C25.5768 11.9684 26.4081 12.1472 27.1548 12.5178L26.457 13.7673C26.0493 13.6014 25.6137 13.5105 25.172 13.499C23.7884 13.499 22.6475 14.7583 22.6475 16.5546C22.6475 18.0462 23.688 19.545 25.1549 19.545C25.5887 19.562 26.0197 19.4693 26.4059 19.2759L27.1473 20.609C26.3619 20.9972 25.4859 21.1784 24.6064 21.1348" fill="#FFC709"/>
<path d="M45.7859 20.9448V14.7954C45.8019 14.6394 45.783 14.4819 45.7305 14.3337C45.678 14.1855 45.5931 14.0501 45.4817 13.937C45.3704 13.8239 45.2351 13.7356 45.0853 13.6783C44.9356 13.621 44.7748 13.5961 44.6142 13.6052C44.4169 13.5941 44.2197 13.6266 44.0371 13.7002C43.8545 13.7737 43.6913 13.8865 43.5596 14.0301V20.9448H41.3091V14.7615C41.3159 14.6067 41.2895 14.4522 41.2316 14.3079C41.1737 14.1636 41.0857 14.0325 40.973 13.9232C40.8406 13.8103 40.6865 13.7241 40.5198 13.6695C40.353 13.6149 40.1767 13.5931 40.0012 13.6052C39.6794 13.6023 39.3597 13.6576 39.0586 13.7683V20.9448H36.8252V12.4308C37.6906 12.2137 38.5743 12.0725 39.4656 12.0089C40.1876 11.9574 40.9131 12.0431 41.6016 12.2613C41.9618 12.4001 42.2865 12.6141 42.5526 12.8884C42.8538 12.6238 43.2011 12.4139 43.5781 12.2686C44.1026 12.08 44.6598 11.9925 45.2186 12.0111C45.9992 12.0039 46.7512 12.2969 47.3114 12.8265C47.5583 13.0931 47.7489 13.4044 47.8723 13.7428C47.9956 14.0811 48.0493 14.4398 48.0303 14.7984V20.9478L45.7859 20.9448Z" fill="#FFC709"/>
<path d="M36.0561 31.4273C36.0561 31.4273 34.6386 31.599 33.6748 31.599C30.371 31.599 28.9957 30.4547 28.9957 28.5592C28.9957 27.057 30.5375 25.6551 33.8012 25.6551V25.2568C33.8012 24.8079 33.4276 24.0585 32.1383 24.0585C31.5117 24.0627 30.8942 24.2052 30.3322 24.4752C30.323 24.4404 29.5961 23.139 29.5961 23.139C30.5462 22.6789 31.5974 22.4523 32.6581 22.4789C34.2805 22.4789 36.057 23.3425 36.057 25.2568L36.0561 31.4273ZM33.803 26.7853C32.0436 26.7853 31.2123 27.381 31.2123 28.561C31.2074 28.7907 31.2517 29.0188 31.3423 29.2309C31.433 29.443 31.5681 29.6343 31.7389 29.7927C31.9097 29.9511 32.1126 30.073 32.3345 30.1507C32.5564 30.2284 32.7925 30.2602 33.0277 30.2439C33.2902 30.2433 33.5512 30.2061 33.803 30.1336V26.7853Z" fill="#FFC709"/>
<path d="M27.793 30.363C27.0733 31.1223 25.7874 31.6 23.8651 31.6C22.3925 31.6 20.7661 31.4283 20.7661 31.4283V21.861C20.7661 21.861 22.24 21.697 23.3012 21.697C25.8332 21.697 26.4337 22.1288 26.8909 22.4027C27.2345 22.5748 27.5252 22.8326 27.7333 23.1498C27.9414 23.467 28.0596 23.8323 28.0759 24.2084C28.0759 25.7369 26.6098 26.136 26.1927 26.3051V26.3322C26.5945 26.4184 26.9738 26.5841 27.3072 26.8189C27.6406 27.0538 27.9209 27.3528 28.1309 27.6975C28.3015 28.135 28.3597 28.6064 28.3005 29.0709C28.2413 29.5353 28.0665 29.9786 27.7913 30.3621L27.793 30.363ZM25.8328 24.2453C25.8328 23.4384 25.2302 23.034 24.1007 23.034C23.7347 23.0319 23.3695 23.0701 23.0122 23.1478V25.8364H23.3206C25.4033 25.8364 25.835 25.0346 25.835 24.2453H25.8328ZM26.1218 28.7182C26.1218 27.9641 25.8068 26.943 23.3206 26.943H23.0122V30.1437C23.7783 30.3298 24.5859 30.2639 25.3095 29.9561C25.5506 29.8452 25.7546 29.6701 25.898 29.4511C26.0413 29.2321 26.1181 28.978 26.1196 28.7182" fill="#FFC709"/>
<path d="M42.1993 31.427V26.0145C42.1993 24.8797 42.0231 24.3187 41.072 24.1109C40.5862 24.0471 40.0918 24.0911 39.6258 24.2397V31.427H37.3982V22.9061C38.2596 22.7058 39.1361 22.5734 40.0192 22.5099C41.6865 22.4267 42.5169 22.622 43.3432 23.1538C43.6828 23.388 43.959 23.6989 44.1484 24.0599C44.3377 24.4208 44.4345 24.8211 44.4304 25.2265V31.427H42.1993Z" fill="#FFC709"/>
<path d="M35.6957 16.569C35.6957 13.7061 34.146 12 31.4633 12C28.7806 12 27.1746 13.7061 27.1746 16.569C27.1746 19.4319 28.7828 21.1384 31.4633 21.1384C34.1438 21.1384 35.6957 19.434 35.6957 16.569ZM33.4421 16.569C33.4421 18.8936 32.3848 19.5559 31.4633 19.5559C30.5418 19.5559 29.4282 18.8936 29.4282 16.569C29.4282 14.2443 30.5449 13.583 31.4633 13.583C32.3818 13.583 33.4421 14.2469 33.4421 16.569Z" fill="#FFC709"/>
<path d="M51.0068 31.4278L48.0193 27.9941H47.999L48.0281 31.4278H45.785V21.8691H48.0281L47.999 25.5445H48.0303L50.6473 22.6825H53.7058L49.5329 26.7627L54.0022 31.4278H51.0068Z" fill="#FFC709"/>
<path d="M48.048 10.2243C47.4061 10.9291 48.9175 11.7481 49.8954 12.0953C51.4967 12.6398 53.1626 12.9837 54.8529 13.1186L54.8476 8.15894C51.6279 8.47913 49.0911 9.2513 48.048 10.2243Z" fill="url(#paint0_linear_1454_1525)"/>
<path d="M9.58 13.0191C9.59451 14.2431 9.13345 15.4273 8.28931 16.3339C7.37218 17.1696 6.4947 17.4598 4.20892 17.4211H3.79397V20.945H0.646118V8.75135C0.646118 8.75135 2.35572 8.55479 4.15342 8.54449C6.69117 8.53076 7.68186 8.98788 8.43072 9.68193C8.99677 10.2077 9.58 11.4979 9.58 13.0191ZM6.48721 12.9607C6.48721 10.7468 5.35468 10.2184 4.57807 10.1785C4.28954 10.1644 3.79397 10.1923 3.79397 10.1923V15.7124H4.22214C5.27935 15.7124 6.48721 14.8776 6.48721 12.9607Z" fill="#0072BC"/>
<path d="M16.9813 20.9438H14.3246L9.86316 8.72095H13.6515C13.6515 8.72095 15.7289 15.9748 15.7531 16.1404H15.773C15.7972 15.9743 17.9627 8.72095 17.9627 8.72095H21.4216L16.9813 20.9438Z" fill="#0072BC"/>
<path d="M61.4001 14.252C64.6193 13.9335 67.1562 13.1613 68.2006 12.1874C68.8406 11.4831 67.3293 10.6646 66.3505 10.3169C64.749 9.77231 63.0831 9.42832 61.3926 9.29321L61.4001 14.252Z" fill="url(#paint1_linear_1454_1525)"/>
<path d="M58.128 14.4112C53.7049 14.4155 49.9157 13.5957 48.3299 12.4368C48.3162 12.4278 48.3087 12.4367 48.3057 12.4398C48.3058 12.4462 48.3079 12.4525 48.3118 12.4578L58.1391 22.0148L68.2165 12.1707C66.8566 13.4635 62.8573 14.4073 58.1289 14.4121" fill="url(#paint2_linear_1454_1525)"/>
<path d="M48.3057 12.4595C48.3057 12.4663 48.3079 12.4729 48.3118 12.4784V12.4569L48.3092 12.4548L48.307 12.4578L48.3057 12.4595ZM58.1302 14.4112C53.7071 14.4155 49.9179 13.5957 48.3321 12.4368C48.3184 12.4278 48.311 12.4368 48.3079 12.4398C48.3077 12.4452 48.3089 12.4507 48.3114 12.4556C48.3158 12.4518 48.322 12.4505 48.3321 12.4578C49.9179 13.7188 53.7063 14.6039 58.1302 14.6005C62.8595 14.5953 66.8588 13.5703 68.2178 12.1707C66.858 13.4635 62.8586 14.4073 58.1302 14.4121" fill="url(#paint3_linear_1454_1525)"/>
<path d="M61.3944 9.4636C63.0738 9.59167 64.7315 9.91429 66.3325 10.4246C67.1558 10.6989 68.3544 11.283 68.3531 11.8565C68.3888 11.2427 67.1782 10.6118 66.3523 10.3169C64.7509 9.77231 63.0849 9.42832 61.3944 9.29321V9.4636Z" fill="url(#paint4_linear_1454_1525)"/>
<path d="M48.0316 10.2436C49.3897 8.95164 53.3904 8.0065 58.1192 8.00135C62.5401 7.99749 66.3297 8.81428 67.9151 9.97574C67.9288 9.98604 67.9363 9.97875 67.9385 9.97574C67.9397 9.96938 67.9385 9.9628 67.9349 9.9573L58.1073 0.399902L48.0316 10.2436Z" fill="url(#paint5_linear_1454_1525)"/>
<path d="M67.9368 9.95739V9.95953L67.9399 9.95393C67.9409 9.94742 67.9397 9.94078 67.9363 9.93507L67.9368 9.95739ZM58.121 7.8147C53.3904 7.81899 49.3898 8.84484 48.0334 10.2441C49.3915 8.95214 53.3922 8.007 58.121 8.00185C62.5419 7.99799 66.3316 8.81478 67.9169 9.97625C67.9306 9.98655 67.9381 9.97925 67.9403 9.97625C67.9411 9.97348 67.9412 9.97058 67.9406 9.96776C67.9401 9.96494 67.9389 9.96228 67.9372 9.95995C67.9337 9.96296 67.9266 9.96511 67.9169 9.95739C66.3342 8.69977 62.5591 7.8156 58.151 7.81517H58.121" fill="url(#paint6_linear_1454_1525)"/>
<path d="M58.139 21.885L48.3316 12.4358C48.3179 12.4268 48.3105 12.4358 48.3074 12.4388C48.3075 12.4453 48.3096 12.4516 48.3135 12.4568L58.1408 22.0138L68.2182 12.1697L58.139 21.885Z" fill="url(#paint7_linear_1454_1525)"/>
<path d="M49.8954 12.0963C51.4967 12.6408 53.1625 12.9846 54.8528 13.1195V12.9478C53.1739 12.8194 51.5166 12.4965 49.9161 11.986C49.0923 11.7117 47.8946 11.1275 47.8959 10.5532C47.8598 11.1679 49.0699 11.7979 49.8967 12.0941" fill="url(#paint8_linear_1454_1525)"/>
<defs>
<linearGradient id="paint0_linear_1454_1525" x1="53.8717" y1="13.6691" x2="52.2066" y2="8.13397" gradientUnits="userSpaceOnUse">
<stop stop-color="#0071BB"/>
<stop offset="0.218" stop-color="#0274BD"/>
<stop offset="0.414" stop-color="#0B7FC4"/>
<stop offset="0.603" stop-color="#1A91D0"/>
<stop offset="0.785" stop-color="#2EABE1"/>
<stop offset="0.936" stop-color="#44C7F4"/>
</linearGradient>
<linearGradient id="paint1_linear_1454_1525" x1="65.1307" y1="13.3941" x2="63.7453" y2="8.78636" gradientUnits="userSpaceOnUse">
<stop stop-color="#FFDD00"/>
<stop offset="0.097" stop-color="#FFDD00"/>
<stop offset="0.223" stop-color="#FDD403"/>
<stop offset="0.43" stop-color="#FBBB0B"/>
<stop offset="0.689" stop-color="#F69419"/>
<stop offset="0.801" stop-color="#F48120"/>
<stop offset="1" stop-color="#F48120"/>
</linearGradient>
<linearGradient id="paint2_linear_1454_1525" x1="48.3057" y1="17.0927" x2="68.2165" y2="17.0927" gradientUnits="userSpaceOnUse">
<stop offset="0.038" stop-color="#FFDD00"/>
<stop offset="0.283" stop-color="#FBC109"/>
<stop offset="0.769" stop-color="#F48120"/>
</linearGradient>
<linearGradient id="paint3_linear_1454_1525" x1="48.3057" y1="13.3856" x2="68.2178" y2="13.3856" gradientUnits="userSpaceOnUse">
<stop stop-color="#EAC900"/>
<stop offset="0.491" stop-color="#F48120"/>
</linearGradient>
<linearGradient id="paint4_linear_1454_1525" x1="61.3944" y1="10.5748" x2="68.3539" y2="10.5748" gradientUnits="userSpaceOnUse">
<stop stop-color="#F48120"/>
<stop offset="0.13" stop-color="#F48120"/>
<stop offset="0.509" stop-color="#F48120"/>
<stop offset="1" stop-color="#EAC900"/>
</linearGradient>
<linearGradient id="paint5_linear_1454_1525" x1="48.0316" y1="5.32174" x2="67.9389" y2="5.32174" gradientUnits="userSpaceOnUse">
<stop offset="0.16" stop-color="#0071BB"/>
<stop offset="0.366" stop-color="#1186C9"/>
<stop offset="1" stop-color="#44C7F4"/>
</linearGradient>
<linearGradient id="paint6_linear_1454_1525" x1="48.0334" y1="9.02939" x2="67.941" y2="9.02939" gradientUnits="userSpaceOnUse">
<stop stop-color="#005CA6"/>
<stop offset="0.16" stop-color="#005CA6"/>
<stop offset="0.406" stop-color="#0077BC"/>
<stop offset="1" stop-color="#00B8F1"/>
</linearGradient>
<linearGradient id="paint7_linear_1454_1525" x1="48.3074" y1="17.0917" x2="68.2182" y2="17.0917" gradientUnits="userSpaceOnUse">
<stop stop-color="#E8C81C"/>
<stop offset="0.769" stop-color="#DC7727"/>
</linearGradient>
<linearGradient id="paint8_linear_1454_1525" x1="47.8951" y1="11.8364" x2="54.8528" y2="11.8364" gradientUnits="userSpaceOnUse">
<stop stop-color="#1B92D0"/>
<stop offset="0.84" stop-color="#015DA6"/>
<stop offset="1" stop-color="#015DA6"/>
</linearGradient>
</defs>
</svg>
