<svg width="15" height="17" viewBox="0 0 15 17" fill="none" xmlns="http://www.w3.org/2000/svg">
<path fill-rule="evenodd" clip-rule="evenodd" d="M3.5375 0H11.4625C12.4283 0 12.9108 8.69234e-08 13.3008 0.135833C13.6684 0.266436 14.001 0.479886 14.2728 0.759653C14.5446 1.03942 14.7484 1.378 14.8683 1.74917C15 2.15083 15 2.6475 15 3.64167V15.3117C15 16.0267 14.1792 16.4067 13.66 15.9317C13.5143 15.7971 13.3233 15.7223 13.125 15.7223C12.9267 15.7223 12.7357 15.7971 12.59 15.9317L12.1875 16.3C11.9323 16.536 11.5976 16.667 11.25 16.667C10.9024 16.667 10.5677 16.536 10.3125 16.3C10.0573 16.064 9.72255 15.933 9.375 15.933C9.02744 15.933 8.69267 16.064 8.4375 16.3C8.18233 16.536 7.84755 16.667 7.5 16.667C7.15245 16.667 6.81767 16.536 6.5625 16.3C6.30733 16.064 5.97255 15.933 5.625 15.933C5.27745 15.933 4.94267 16.064 4.6875 16.3C4.43233 16.536 4.09755 16.667 3.75 16.667C3.40245 16.667 3.06767 16.536 2.8125 16.3L2.41 15.9317C2.26434 15.7971 2.07331 15.7223 1.875 15.7223C1.67668 15.7223 1.48566 15.7971 1.34 15.9317C0.820833 16.4067 0 16.0267 0 15.3117V3.64167C0 2.6475 -1.24176e-08 2.15 0.131667 1.75C0.381667 0.989167 0.960833 0.3925 1.69917 0.135833C2.08917 8.69234e-08 2.57167 0 3.5375 0ZM3.33333 3.95833C3.16757 3.95833 3.0086 4.02418 2.89139 4.14139C2.77418 4.2586 2.70833 4.41757 2.70833 4.58333C2.70833 4.74909 2.77418 4.90806 2.89139 5.02527C3.0086 5.14248 3.16757 5.20833 3.33333 5.20833H3.75C3.91576 5.20833 4.07473 5.14248 4.19194 5.02527C4.30915 4.90806 4.375 4.74909 4.375 4.58333C4.375 4.41757 4.30915 4.2586 4.19194 4.14139C4.07473 4.02418 3.91576 3.95833 3.75 3.95833H3.33333ZM6.25 3.95833C6.08424 3.95833 5.92527 4.02418 5.80806 4.14139C5.69085 4.2586 5.625 4.41757 5.625 4.58333C5.625 4.74909 5.69085 4.90806 5.80806 5.02527C5.92527 5.14248 6.08424 5.20833 6.25 5.20833H11.6667C11.8324 5.20833 11.9914 5.14248 12.1086 5.02527C12.2258 4.90806 12.2917 4.74909 12.2917 4.58333C12.2917 4.41757 12.2258 4.2586 12.1086 4.14139C11.9914 4.02418 11.8324 3.95833 11.6667 3.95833H6.25ZM3.33333 6.875C3.16757 6.875 3.0086 6.94085 2.89139 7.05806C2.77418 7.17527 2.70833 7.33424 2.70833 7.5C2.70833 7.66576 2.77418 7.82473 2.89139 7.94194C3.0086 8.05915 3.16757 8.125 3.33333 8.125H3.75C3.91576 8.125 4.07473 8.05915 4.19194 7.94194C4.30915 7.82473 4.375 7.66576 4.375 7.5C4.375 7.33424 4.30915 7.17527 4.19194 7.05806C4.07473 6.94085 3.91576 6.875 3.75 6.875H3.33333ZM6.25 6.875C6.08424 6.875 5.92527 6.94085 5.80806 7.05806C5.69085 7.17527 5.625 7.33424 5.625 7.5C5.625 7.66576 5.69085 7.82473 5.80806 7.94194C5.92527 8.05915 6.08424 8.125 6.25 8.125H11.6667C11.8324 8.125 11.9914 8.05915 12.1086 7.94194C12.2258 7.82473 12.2917 7.66576 12.2917 7.5C12.2917 7.33424 12.2258 7.17527 12.1086 7.05806C11.9914 6.94085 11.8324 6.875 11.6667 6.875H6.25ZM3.33333 9.79167C3.16757 9.79167 3.0086 9.85751 2.89139 9.97472C2.77418 10.0919 2.70833 10.2509 2.70833 10.4167C2.70833 10.5824 2.77418 10.7414 2.89139 10.8586C3.0086 10.9758 3.16757 11.0417 3.33333 11.0417H3.75C3.91576 11.0417 4.07473 10.9758 4.19194 10.8586C4.30915 10.7414 4.375 10.5824 4.375 10.4167C4.375 10.2509 4.30915 10.0919 4.19194 9.97472C4.07473 9.85751 3.91576 9.79167 3.75 9.79167H3.33333ZM6.25 9.79167C6.08424 9.79167 5.92527 9.85751 5.80806 9.97472C5.69085 10.0919 5.625 10.2509 5.625 10.4167C5.625 10.5824 5.69085 10.7414 5.80806 10.8586C5.92527 10.9758 6.08424 11.0417 6.25 11.0417H11.6667C11.8324 11.0417 11.9914 10.9758 12.1086 10.8586C12.2258 10.7414 12.2917 10.5824 12.2917 10.4167C12.2917 10.2509 12.2258 10.0919 12.1086 9.97472C11.9914 9.85751 11.8324 9.79167 11.6667 9.79167H6.25Z" fill="white"/>
</svg>
