<svg width="33" height="33" viewBox="0 0 33 33" fill="none" xmlns="http://www.w3.org/2000/svg">
<circle cx="16.25" cy="16.25" r="16.25" fill="#6360FF"/>
<path fill-rule="evenodd" clip-rule="evenodd" d="M14.8335 23H18.1665C20.5072 23 21.678 23 22.5187 22.4692C22.8816 22.2403 23.1941 21.9448 23.4382 21.5996C24 20.8052 24 19.698 24 17.4851C24 15.2722 24 14.1651 23.4382 13.3706C23.1941 13.0254 22.8816 12.7299 22.5187 12.5011C21.9787 12.1595 21.3022 12.0374 20.2665 11.9941C19.7722 11.9941 19.347 11.6402 19.2502 11.1816C19.1763 10.8457 18.9842 10.5446 18.7064 10.3293C18.4286 10.114 18.0821 9.99773 17.7255 10H15.2745C14.5335 10 13.8953 10.4948 13.7498 11.1816C13.653 11.6402 13.2277 11.9941 12.7335 11.9941C11.6985 12.0374 11.022 12.1602 10.4812 12.5011C10.1187 12.73 9.80646 13.0255 9.5625 13.3706C9 14.1651 9 15.2715 9 17.4851C9 19.6987 9 20.8045 9.56175 21.5996C9.80475 21.9434 10.1168 22.2388 10.4812 22.4692C11.322 23 12.4927 23 14.8335 23ZM16.5 14.5305C14.7743 14.5305 13.3748 15.8529 13.3748 17.4844C13.3748 19.1159 14.775 20.4405 16.5 20.4405C18.225 20.4405 19.6252 19.1173 19.6252 17.4858C19.6252 15.8544 18.225 14.5305 16.5 14.5305ZM16.5 15.7121C15.465 15.7121 14.625 16.5058 14.625 17.4851C14.625 18.4637 15.465 19.2575 16.5 19.2575C17.535 19.2575 18.375 18.4637 18.375 17.4851C18.375 16.5065 17.535 15.7121 16.5 15.7121ZM20.0415 15.1213C20.0415 14.7949 20.3212 14.5305 20.667 14.5305H21.4995C21.8445 14.5305 22.125 14.7949 22.125 15.1213C22.1234 15.2794 22.0567 15.4304 21.9396 15.5412C21.8224 15.652 21.6644 15.7134 21.5002 15.7121H20.667C20.5856 15.7128 20.5049 15.6982 20.4295 15.6689C20.354 15.6396 20.2853 15.5963 20.2272 15.5414C20.1691 15.4866 20.1228 15.4212 20.0909 15.3492C20.0591 15.2771 20.0423 15.1996 20.0415 15.1213Z" fill="white"/>
</svg>
