<svg width="17" height="15" viewBox="0 0 17 15" fill="none" xmlns="http://www.w3.org/2000/svg">
<path fill-rule="evenodd" clip-rule="evenodd" d="M11.9546 0C12.4036 1.67012e-05 12.8436 0.136883 13.2255 0.395267C13.6074 0.653651 13.916 1.02335 14.1169 1.46294L15.2338 3.90794C15.4305 3.81971 15.6239 3.72441 15.8141 3.62206C16.0054 3.51745 16.2268 3.50033 16.4296 3.57447C16.6324 3.6486 16.8 3.80791 16.8956 4.01735C16.9911 4.2268 17.0068 4.46921 16.939 4.69128C16.8713 4.91334 16.7258 5.09687 16.5345 5.20147C16.3408 5.29586 16.146 5.38763 15.9503 5.47676L16.7247 7.17353C16.8928 7.54143 16.9803 7.94716 16.9802 8.35853V10.5882C16.9802 10.9607 16.9084 11.3289 16.7695 11.6689C16.6307 12.0088 16.4278 12.3129 16.1743 12.5612V13.6765C16.1743 14.0275 16.0469 14.3641 15.8202 14.6123C15.5935 14.8606 15.2861 15 14.9655 15C14.6449 15 14.3374 14.8606 14.1107 14.6123C13.884 14.3641 13.7566 14.0275 13.7566 13.6765V13.2353H4.08588V13.6765C4.08588 14.0275 3.95852 14.3641 3.73182 14.6123C3.50512 14.8606 3.19765 15 2.87704 15C2.55644 15 2.24896 14.8606 2.02226 14.6123C1.79556 14.3641 1.6682 14.0275 1.6682 13.6765V12.5612C1.17338 12.0759 0.862305 11.3718 0.862305 10.5882V8.35765C0.862455 7.94688 0.949918 7.54178 1.11777 7.17441L1.88579 5.49088C1.6913 5.40147 1.49923 5.30529 1.30958 5.20235C1.11925 5.09639 0.974574 4.91278 0.906736 4.69112C0.838898 4.46945 0.853331 4.22748 0.946924 4.01735C0.994196 3.91361 1.05968 3.82109 1.13963 3.74507C1.21957 3.66906 1.31242 3.61103 1.41286 3.57432C1.5133 3.53761 1.61936 3.52293 1.72499 3.53112C1.83061 3.53931 1.93372 3.57021 2.02843 3.62206C2.21916 3.725 2.41258 3.82029 2.60868 3.90794L3.72565 1.46382C3.92635 1.02406 4.23495 0.654187 4.61684 0.395642C4.99874 0.137097 5.43885 9.8633e-05 5.88786 0H11.9546ZM5.29472 7.94118C4.97412 7.94118 4.66665 8.08062 4.43994 8.32883C4.21324 8.57704 4.08588 8.91368 4.08588 9.26471C4.08588 9.61573 4.21324 9.95237 4.43994 10.2006C4.66665 10.4488 4.97412 10.5882 5.29472 10.5882C5.61533 10.5882 5.9228 10.4488 6.1495 10.2006C6.37621 9.95237 6.50357 9.61573 6.50357 9.26471C6.50357 8.91368 6.37621 8.57704 6.1495 8.32883C5.9228 8.08062 5.61533 7.94118 5.29472 7.94118ZM12.5478 7.94118C12.2272 7.94118 11.9197 8.08062 11.693 8.32883C11.4663 8.57704 11.3389 8.91368 11.3389 9.26471C11.3389 9.61573 11.4663 9.95237 11.693 10.2006C11.9197 10.4488 12.2272 10.5882 12.5478 10.5882C12.8684 10.5882 13.1759 10.4488 13.4026 10.2006C13.6293 9.95237 13.7566 9.61573 13.7566 9.26471C13.7566 8.91368 13.6293 8.57704 13.4026 8.32883C13.1759 8.08062 12.8684 7.94118 12.5478 7.94118ZM11.9546 1.76471H5.88786C5.75522 1.76468 5.62462 1.80051 5.50766 1.869C5.39069 1.9375 5.29098 2.03654 5.21736 2.15735L5.16739 2.25265L4.14391 4.49206C5.39143 4.90147 7.07253 5.29412 8.92125 5.29412C10.6475 5.29412 12.2262 4.95176 13.4423 4.57324L13.6978 4.49206L12.6751 2.25265C12.6158 2.12278 12.5281 2.01094 12.4199 1.92706C12.3116 1.84317 12.1862 1.78983 12.0546 1.77176L11.9554 1.76471H11.9546Z" fill="white"/>
</svg>
