<svg width="22" height="22" viewBox="0 0 22 22" fill="none" xmlns="http://www.w3.org/2000/svg">
<path d="M5.44444 1H3.22222C2.63285 1 2.06762 1.23413 1.65087 1.65087C1.23413 2.06762 1 2.63285 1 3.22222V5.44444M16.5556 1H18.7778C19.3671 1 19.9324 1.23413 20.3491 1.65087C20.7659 2.06762 21 2.63285 21 3.22222V5.44444M15.4444 6.55556V8.77778M6.55556 6.55556V8.77778M7.66667 15.4444C7.66667 15.4444 8.77778 16.5556 11 16.5556C13.2222 16.5556 14.3333 15.4444 14.3333 15.4444M11 6.55556V12.1111H9.88889M5.44444 21H3.22222C2.63285 21 2.06762 20.7659 1.65087 20.3491C1.23413 19.9324 1 19.3671 1 18.7778V16.5556M16.5556 21H18.7778C19.3671 21 19.9324 20.7659 20.3491 20.3491C20.7659 19.9324 21 19.3671 21 18.7778V16.5556" stroke="white" stroke-width="1.25" stroke-linecap="round" stroke-linejoin="round"/>
</svg>
