<svg width="24" height="24" viewBox="0 0 24 24" fill="none" xmlns="http://www.w3.org/2000/svg">
<path d="M10.5 2.02073C11.4282 1.48483 12.5718 1.48483 13.5 2.02073L19.8923 5.71132C20.8205 6.24722 21.3923 7.2376 21.3923 8.3094V15.6906C21.3923 16.7624 20.8205 17.7528 19.8923 18.2887L13.5 21.9793C12.5718 22.5152 11.4282 22.5152 10.5 21.9793L4.1077 18.2887C3.17949 17.7528 2.6077 16.7624 2.6077 15.6906V8.3094C2.6077 7.2376 3.17949 6.24722 4.1077 5.71132L10.5 2.02073Z" fill="#03731C" stroke="#05BB2D" stroke-width="2"/>
<path d="M11.5732 16.1416C10.4893 16.1416 9.55176 15.624 9.20508 14.8574C9.13672 14.7061 9.09277 14.5596 9.09277 14.3789C9.09277 14.0518 9.30273 13.8467 9.63477 13.8467C9.89844 13.8467 10.0596 13.9492 10.1914 14.208C10.4307 14.7793 10.8994 15.1162 11.5781 15.1162C12.4131 15.1162 13.0039 14.5254 13.0039 13.6904C13.0039 12.8799 12.4131 12.3037 11.583 12.3037C11.1387 12.3037 10.7529 12.4844 10.4844 12.748C10.1914 13.041 10.0693 13.1045 9.78125 13.1045C9.37598 13.1045 9.17578 12.8164 9.18555 12.4746C9.18555 12.4453 9.18555 12.4258 9.19043 12.3965L9.41504 9.73535C9.45898 9.17871 9.74219 8.9541 10.2939 8.9541H13.3311C13.6533 8.9541 13.8633 9.15918 13.8633 9.4668C13.8633 9.7793 13.6533 9.98438 13.3311 9.98438H10.4844L10.2988 12.0693H10.3232C10.6211 11.6299 11.2021 11.3564 11.9102 11.3564C13.2578 11.3564 14.2197 12.3086 14.2197 13.6562C14.2197 15.1309 13.1357 16.1416 11.5732 16.1416Z" fill="white"/>
</svg>
