<svg width="19" height="20" viewBox="0 0 19 20" fill="none" xmlns="http://www.w3.org/2000/svg">
<path d="M8.99564 2.45C10.7623 2.45 12.429 2.82933 13.9956 3.588C15.5623 4.34667 16.8706 5.44233 17.9206 6.875C18.0373 7.025 18.075 7.15833 18.0336 7.275C17.9923 7.39167 17.9213 7.49167 17.8206 7.575C17.72 7.65833 17.6033 7.696 17.4706 7.688C17.338 7.68 17.2213 7.609 17.1206 7.475C16.204 6.175 15.025 5.17933 13.5836 4.488C12.1423 3.79667 10.613 3.45067 8.99564 3.45C7.37831 3.44933 5.86164 3.79533 4.44564 4.488C3.02964 5.18067 1.85464 6.17633 0.92064 7.475C0.82064 7.625 0.703973 7.70833 0.57064 7.725C0.437307 7.74167 0.32064 7.70833 0.22064 7.625C0.103974 7.54167 0.0329735 7.43767 0.0076402 7.313C-0.0176931 7.18833 0.0199737 7.059 0.12064 6.925C1.15397 5.50833 2.44997 4.40833 4.00864 3.625C5.56731 2.84167 7.22964 2.45 8.99564 2.45ZM8.99564 4.8C11.2456 4.8 13.179 5.55 14.7956 7.05C16.4123 8.55 17.2206 10.4083 17.2206 12.625C17.2206 13.4583 16.925 14.1543 16.3336 14.713C15.7423 15.2717 15.0213 15.5507 14.1706 15.55C13.32 15.5493 12.591 15.2703 11.9836 14.713C11.3763 14.1557 11.072 13.4597 11.0706 12.625C11.0706 12.075 10.8666 11.6123 10.4586 11.237C10.0506 10.8617 9.56297 10.6743 8.99564 10.675C8.42831 10.6757 7.94064 10.8633 7.53264 11.238C7.12464 11.6127 6.92064 12.075 6.92064 12.625C6.92064 14.2417 7.39997 15.5917 8.35864 16.675C9.31731 17.7583 10.5546 18.5167 12.0706 18.95C12.2206 19 12.3206 19.0833 12.3706 19.2C12.4206 19.3167 12.429 19.4417 12.3956 19.575C12.3623 19.6917 12.2956 19.7917 12.1956 19.875C12.0956 19.9583 11.9706 19.9833 11.8206 19.95C10.0873 19.5167 8.67064 18.654 7.57064 17.362C6.47064 16.07 5.92064 14.491 5.92064 12.625C5.92064 11.7917 6.22064 11.0917 6.82064 10.525C7.42064 9.95833 8.14564 9.675 8.99564 9.675C9.84564 9.675 10.5706 9.95833 11.1706 10.525C11.7706 11.0917 12.0706 11.7917 12.0706 12.625C12.0706 13.175 12.279 13.6377 12.6956 14.013C13.1123 14.3883 13.604 14.5757 14.1706 14.575C14.7373 14.5743 15.2206 14.387 15.6206 14.013C16.0206 13.639 16.2206 13.1763 16.2206 12.625C16.2206 10.6917 15.5123 9.06667 14.0956 7.75C12.679 6.43333 10.9873 5.775 9.02064 5.775C7.05397 5.775 5.36231 6.43333 3.94564 7.75C2.52897 9.06667 1.82064 10.6833 1.82064 12.6C1.82064 13 1.85831 13.5 1.93364 14.1C2.00897 14.7 2.18797 15.4 2.47064 16.2C2.52064 16.35 2.51664 16.4833 2.45864 16.6C2.40064 16.7167 2.30464 16.8 2.17064 16.85C2.03664 16.9 1.90764 16.896 1.78364 16.838C1.65964 16.78 1.57197 16.684 1.52064 16.55C1.27064 15.9 1.09164 15.2543 0.98364 14.613C0.87564 13.9717 0.821307 13.309 0.82064 12.625C0.82064 10.4083 1.62497 8.55 3.23364 7.05C4.84231 5.55 6.76297 4.8 8.99564 4.8ZM8.99564 0C10.0623 0 11.104 0.129 12.1206 0.387C13.1373 0.645 14.1206 1.016 15.0706 1.5C15.2206 1.58333 15.3083 1.68333 15.3336 1.8C15.359 1.91667 15.3463 2.03333 15.2956 2.15C15.245 2.26667 15.1616 2.35833 15.0456 2.425C14.9296 2.49167 14.788 2.48333 14.6206 2.4C13.7373 1.95 12.8246 1.60433 11.8826 1.363C10.9406 1.12167 9.97831 1.00067 8.99564 1C8.02897 1 7.07897 1.11267 6.14564 1.338C5.21231 1.56333 4.32064 1.91733 3.47064 2.4C3.33731 2.48333 3.20397 2.50433 3.07064 2.463C2.93731 2.42167 2.83731 2.334 2.77064 2.2C2.70397 2.066 2.68731 1.94533 2.72064 1.838C2.75397 1.73067 2.83731 1.63467 2.97064 1.55C3.90397 1.05 4.87897 0.666667 5.89564 0.4C6.91231 0.133333 7.94564 0 8.99564 0ZM8.99564 7.225C10.5456 7.225 11.879 7.746 12.9956 8.788C14.1123 9.83 14.6706 11.109 14.6706 12.625C14.6706 12.775 14.625 12.896 14.5336 12.988C14.4423 13.08 14.3213 13.1257 14.1706 13.125C14.0373 13.125 13.9206 13.0793 13.8206 12.988C13.7206 12.8967 13.6706 12.7757 13.6706 12.625C13.6706 11.375 13.208 10.3293 12.2826 9.488C11.3573 8.64667 10.2616 8.22567 8.99564 8.225C7.72964 8.22433 6.64231 8.64533 5.73364 9.488C4.82497 10.3307 4.37064 11.3763 4.37064 12.625C4.37064 13.975 4.60397 15.121 5.07064 16.063C5.53731 17.005 6.22064 17.9507 7.12064 18.9C7.22064 19 7.27064 19.1167 7.27064 19.25C7.27064 19.3833 7.22064 19.5 7.12064 19.6C7.02064 19.7 6.90397 19.75 6.77064 19.75C6.63731 19.75 6.52064 19.7 6.42064 19.6C5.43731 18.5667 4.68331 17.5127 4.15864 16.438C3.63397 15.3633 3.37131 14.0923 3.37064 12.625C3.37064 11.1083 3.92064 9.829 5.02064 8.787C6.12064 7.745 7.44564 7.22433 8.99564 7.225ZM8.97064 12.125C9.12064 12.125 9.24164 12.175 9.33364 12.275C9.42564 12.375 9.47131 12.4917 9.47064 12.625C9.47064 13.875 9.92064 14.9 10.8206 15.7C11.7206 16.5 12.7706 16.9 13.9706 16.9C14.0706 16.9 14.2123 16.8917 14.3956 16.875C14.579 16.8583 14.7706 16.8333 14.9706 16.8C15.1206 16.7667 15.25 16.7877 15.3586 16.863C15.4673 16.9383 15.538 17.0507 15.5706 17.2C15.604 17.3333 15.579 17.45 15.4956 17.55C15.4123 17.65 15.304 17.7167 15.1706 17.75C14.8706 17.8333 14.6083 17.8793 14.3836 17.888C14.159 17.8967 14.0213 17.9007 13.9706 17.9C12.4873 17.9 11.1996 17.4 10.1076 16.4C9.01564 15.4 8.46997 14.1417 8.47064 12.625C8.47064 12.4917 8.51664 12.375 8.60864 12.275C8.70064 12.175 8.82131 12.125 8.97064 12.125Z" fill="white"/>
</svg>
