<svg width="17" height="21" viewBox="0 0 17 21" fill="none" xmlns="http://www.w3.org/2000/svg">
<path d="M5.35246 14.1988L5.35254 14.1988C5.40631 14.2292 5.46618 14.2443 5.52611 14.2443C5.5896 14.2443 5.65326 14.2271 5.70986 14.1929L7.92962 12.8472C8.03552 12.783 8.10014 12.6683 8.10014 12.5446V7.2961V7.25407L8.12554 7.22057L13.0755 0.692911L13.0755 0.692879C13.1567 0.585786 13.1702 0.442002 13.1104 0.32163L13.1104 0.321587C13.0505 0.201074 12.9278 0.125 12.7933 0.125H0.478964C0.344595 0.125 0.22178 0.201076 0.161939 0.321542L5.35246 14.1988ZM5.35246 14.1988C5.24102 14.136 5.17213 14.0181 5.17213 13.8903V7.2961V7.25407M5.35246 14.1988L5.17213 7.25407M5.17213 7.25407L5.14673 7.22057M5.17213 7.25407L5.14673 7.22057M5.14673 7.22057L0.19685 0.692949M5.14673 7.22057L0.19685 0.692949M1.19165 0.832955H1.44331H11.829H12.0806L11.9286 1.03348L7.4641 6.92097L1.19165 0.832955ZM1.19165 0.832955L1.3437 1.03348M1.19165 0.832955L1.3437 1.03348M1.3437 1.03348L5.80825 6.92123L5.80833 6.92134M1.3437 1.03348L5.80833 6.92134M5.80833 6.92134C5.85489 6.9826 5.88008 7.05769 5.88008 7.13517V13.04V13.2619M5.80833 6.92134L5.88008 13.2619M5.88008 13.2619L6.06988 13.1469M5.88008 13.2619L6.06988 13.1469M6.06988 13.1469L7.33199 12.3818L7.39219 12.3453M6.06988 13.1469L7.39219 12.3453M7.39219 12.3453V12.2749M7.39219 12.3453V12.2749M7.39219 12.2749V7.13501M7.39219 12.2749V7.13501M0.19685 0.692949C0.19684 0.692936 0.196831 0.692924 0.196822 0.692911M0.19685 0.692949L0.196822 0.692911M0.196822 0.692911C0.115691 0.585809 0.10221 0.441987 0.161917 0.321587L0.196822 0.692911ZM7.39219 7.13501C7.39219 7.05789 7.41742 6.98271 7.46402 6.92107L7.39219 7.13501Z" fill="black" stroke="black" stroke-width="0.25"/>
</svg>
