<svg width="79" height="99" viewBox="0 0 79 99" fill="none" xmlns="http://www.w3.org/2000/svg">
<g filter="url(#filter0_dd_1627_2577)">
<path d="M36.125 26.5466C38.2135 25.3409 40.7865 25.3409 42.875 26.5466L57.2577 34.8505C59.3461 36.0563 60.6327 38.2846 60.6327 40.6962V57.3038C60.6327 59.7154 59.3461 61.9437 57.2577 63.1495L42.875 71.4534C40.7865 72.6591 38.2135 72.6591 36.125 71.4534L21.7423 63.1495C19.6539 61.9437 18.3673 59.7154 18.3673 57.3038V40.6962C18.3673 38.2846 19.6539 36.0563 21.7423 34.8505L36.125 26.5466Z" fill="#E3A505" stroke="#FCCC26" stroke-width="4.5"/>
<path d="M40.3184 57.2307C39.3406 57.2307 38.6704 56.5715 38.6704 55.5718V44.2229H38.6045L36.2864 45.8379C35.9788 46.0576 35.748 46.1345 35.4075 46.1345C34.7373 46.1345 34.2429 45.6511 34.2429 44.948C34.2429 44.4426 34.4407 44.0691 34.957 43.7065L38.0991 41.5312C38.8682 41.0039 39.3955 40.905 40.0767 40.905C41.2522 40.905 41.9553 41.6191 41.9553 42.7617V55.5718C41.9553 56.5715 41.2961 57.2307 40.3184 57.2307Z" fill="white"/>
<g clip-path="url(#clip0_1627_2577)">
<path d="M48.2553 21.0326C48.2553 21.0326 48.2506 21.0531 48.2418 21.086C48.267 21.2153 48.28 21.3481 48.28 21.4844C48.28 22.639 47.3428 23.575 46.1883 23.575C45.0337 23.575 44.0954 22.639 44.0954 21.4844C44.0954 20.777 44.4426 20.1536 44.9802 19.7752C44.9996 19.7546 45.0014 19.7423 45.0014 19.7423C45.0014 19.7423 45.2746 18.5037 43.2616 15.355C41.2492 12.2062 39.4554 12 39.4554 12C39.4554 12 37.7004 12.2062 35.6874 15.355C33.6744 18.5031 33.9676 19.7423 33.9676 19.7423C33.9676 19.7423 33.9793 19.7546 33.9987 19.7752C34.5357 20.1536 34.8883 20.7776 34.8883 21.4844C34.8883 22.639 33.9523 23.575 32.7977 23.575C31.6432 23.575 30.7072 22.639 30.7072 21.4844C30.7072 21.3481 30.7213 21.2153 30.7466 21.086C30.7378 21.0526 30.7331 21.0326 30.7331 21.0326C30.7331 21.0326 27.3781 17.9878 22.5007 18.6071L27.7394 32.7491C27.7394 32.7491 31.2231 33.4201 39.456 33.4201C47.6889 33.4201 51.2495 32.7491 51.2495 32.7491L56.4882 18.6071C51.6109 17.9878 48.2559 21.0326 48.2559 21.0326H48.2553Z" fill="url(#paint0_linear_1627_2577)"/>
<g style="mix-blend-mode:overlay" opacity="0.25">
<path d="M51.5932 19.1541C49.5086 19.8974 48.2559 21.032 48.2559 21.032C48.2559 21.032 48.2512 21.0526 48.2424 21.0855C48.2676 21.2147 48.2806 21.3475 48.2806 21.4838C48.2806 22.6384 47.3434 23.5744 46.1888 23.5744C45.0343 23.5744 44.096 22.6384 44.096 21.4838C44.096 20.7764 44.4432 20.153 44.9808 19.7746C45.0002 19.754 45.002 19.7417 45.002 19.7417C45.002 19.7417 45.2752 18.5031 43.2622 15.3544C41.2492 12.2062 39.4554 12 39.4554 12C39.4554 12 37.7004 12.2062 35.6874 15.355C33.6744 18.5031 33.9676 19.7423 33.9676 19.7423C33.9676 19.7423 33.9793 19.7546 33.9987 19.7752C34.5357 20.1536 34.8883 20.7776 34.8883 21.4844C34.8883 22.639 33.9523 23.575 32.7977 23.575C31.6432 23.575 30.7072 22.639 30.7072 21.4844C30.7072 21.3481 30.7213 21.2153 30.7466 21.086C30.7378 21.0526 30.7331 21.0326 30.7331 21.0326C30.7331 21.0326 27.3781 17.9878 22.5007 18.6071L27.7394 32.7491C27.7394 32.7491 31.2231 33.4201 39.456 33.4201C40.1881 33.4201 40.8855 33.4143 41.5489 33.4037C47.4774 31.0875 51.6109 25.877 51.6109 19.8193C51.6109 19.5966 51.6038 19.3751 51.5932 19.1541Z" fill="#FFFFD9"/>
</g>
<g style="mix-blend-mode:overlay" opacity="0.25">
<path d="M47.2449 23.2859C46.9347 23.468 46.5745 23.575 46.1885 23.575C45.0339 23.575 44.0956 22.639 44.0956 21.4844C44.0956 20.777 44.4428 20.1536 44.9804 19.7752C44.9998 19.7546 45.0016 19.7423 45.0016 19.7423C45.0016 19.7423 45.2748 18.5037 43.2618 15.355C41.2488 12.2062 39.455 12 39.455 12C39.455 12 37.7 12.2062 35.687 15.355C33.674 18.5031 33.9672 19.7423 33.9672 19.7423C33.9672 19.7423 33.9789 19.7546 33.9983 19.7752C34.5354 20.1536 34.8879 20.7776 34.8879 21.4844C34.8879 22.639 33.9519 23.575 32.7974 23.575C31.6428 23.575 30.7068 22.639 30.7068 21.4844C30.7068 21.3481 30.7209 21.2153 30.7462 21.086C30.7374 21.0526 30.7327 21.0326 30.7327 21.0326C30.7327 21.0326 28.8507 19.3251 25.8577 18.7276C26.2484 24.7853 31.1622 29.5757 37.1706 29.5757C41.5567 29.5757 45.3588 27.0216 47.2449 23.2865V23.2859Z" fill="#FFFFD9"/>
</g>
<g style="mix-blend-mode:overlay" opacity="0.25">
<path d="M44.4962 17.6235C44.2341 17.016 43.844 16.2663 43.2617 15.355C41.2487 12.2062 39.4549 12 39.4549 12C39.4549 12 37.6998 12.2062 35.6869 15.355C33.6739 18.5031 33.9671 19.7423 33.9671 19.7423C33.9671 19.7423 33.9788 19.7546 33.9982 19.7752C34.5352 20.1536 34.8878 20.7776 34.8878 21.4844C34.8878 21.9292 34.7474 22.3411 34.5106 22.6801C35.5676 24.2554 37.0594 25.2389 38.714 25.2389C41.774 25.2389 44.2782 21.881 44.4968 17.6235H44.4962Z" fill="#FFFFD9"/>
</g>
<g style="mix-blend-mode:overlay" opacity="0.25">
<path d="M34.8643 23.1633C37.1893 22.7938 39.3897 19.1186 39.4937 17.0844C39.61 14.8135 39.4549 12.5302 39.4549 12.5302C39.402 12.3528 39.4208 12.1748 39.4549 12.0009C38.9754 12.1354 37.3367 12.7758 35.6869 15.3558C33.6739 18.504 33.9671 19.7431 33.9671 19.7431C33.9671 19.7431 33.9788 19.7555 33.9982 19.7761C34.5352 20.1544 34.8878 20.7784 34.8878 21.4853C34.8878 21.93 34.7474 22.3419 34.5106 22.681C34.6234 22.8496 34.7427 23.0094 34.8655 23.1639L34.8643 23.1633Z" fill="#FFFFD9"/>
</g>
<path d="M32.9136 24.5681C34.4741 24.5681 35.7392 23.3025 35.7392 21.7419C35.7392 20.5627 35.0159 19.5527 33.9894 19.129C33.9224 19.5503 33.9671 19.7419 33.9671 19.7419C33.9671 19.7419 33.9788 19.7542 33.9982 19.7748C34.5352 20.1531 34.8878 20.7771 34.8878 21.484C34.8878 22.6385 33.9518 23.5745 32.7972 23.5745C31.6427 23.5745 30.7067 22.6385 30.7067 21.484C30.7067 21.3477 30.7208 21.2149 30.7461 21.0856C30.7372 21.0521 30.7325 21.0321 30.7325 21.0321C30.7325 21.0321 30.5798 20.8941 30.2942 20.6837C30.162 21.011 30.0874 21.3676 30.0874 21.7419C30.0874 23.3025 31.353 24.5681 32.9136 24.5681Z" fill="url(#paint1_linear_1627_2577)"/>
<path d="M35.697 15.3552C33.8485 18.2466 33.9396 19.5263 33.9672 19.7161C34.2246 19.7284 34.5824 19.7525 34.8862 19.7954C34.8639 19.4435 34.9414 18.1467 36.6271 15.5097C37.7347 13.7764 38.8287 12.9362 39.475 12.5296V12.0002C39.475 12.0002 37.71 12.2065 35.697 15.3552Z" fill="url(#paint2_linear_1627_2577)"/>
<path d="M30.7326 21.0333C30.7326 21.0333 27.3782 17.9886 22.5015 18.6073L23.7207 19.3147C27.5815 19.5133 30.1127 21.8077 30.1127 21.8077C30.3008 21.5756 30.5217 21.3271 30.7455 21.0862C30.7367 21.0533 30.732 21.0333 30.732 21.0333H30.7326Z" fill="#FFE800"/>
<path d="M36.9811 13.666C36.9653 13.6836 36.9435 13.7018 36.9288 13.7183C36.8859 13.7659 36.8401 13.8135 36.7966 13.8634C36.7878 13.8734 36.7802 13.8804 36.7802 13.8804C36.7802 13.8804 37.8108 12.9098 38.2655 12.7259C38.7203 12.542 38.4106 12.9392 38.0716 13.21C37.7326 13.4809 36.1162 15.8811 35.5163 17.2072C35.2225 17.8571 35.0651 18.4904 34.9805 18.9687C35.145 18.2701 35.568 17.149 36.6162 15.5103C36.8001 15.2224 36.9817 14.9616 37.1603 14.7207C37.3072 14.5162 37.4694 14.3041 37.6462 14.0925C37.826 13.8781 38.0223 13.6871 38.2038 13.5173C38.685 13.0432 39.2403 12.7329 39.4753 12.5302V12.0002C39.4753 12.0002 38.4018 12.126 36.9811 13.666Z" fill="white"/>
<path d="M34.5456 23.3036C34.3247 23.3195 34.152 23.2261 34.0527 23.1526C33.8364 23.3154 33.5879 23.437 33.3176 23.5063C33.3817 23.558 33.4439 23.6168 33.4874 23.6779C33.6161 23.8577 33.3969 24.1809 32.6748 24.3483C32.4222 24.4071 32.099 24.3847 31.7847 24.3313C32.1302 24.4823 32.5121 24.5675 32.9134 24.5675C34.3447 24.5675 35.5245 23.5016 35.7108 22.1215C35.5086 22.9129 34.8976 23.2772 34.5456 23.303V23.3036Z" fill="white"/>
<path d="M30.739 21.1233C30.739 21.1233 30.1391 21.7814 30.1456 21.8971C30.1521 22.0135 30.2508 22.6903 30.2508 22.6903C30.2508 22.6903 30.1397 22.4371 30.0874 22.1216C30.0357 21.8066 29.6009 21.3331 28.9017 20.9412C28.2025 20.5492 26.4058 19.8048 26.4058 19.8048C26.4058 19.8048 27.887 20.239 28.6226 20.6515C29.3583 21.0645 29.8166 21.5481 30.1585 21.4C30.4999 21.2514 29.8154 20.3512 29.8154 20.3512C29.8154 20.3512 30.3718 20.6585 30.5522 20.8454C30.7326 21.0322 30.8037 21.0839 30.739 21.1227V21.1233Z" fill="white"/>
<path d="M25.481 19.3946C24.2683 19.2142 23.9457 19.2271 23.5708 19.0332C23.1965 18.8399 23.6484 18.6848 24.3323 18.6719C25.0162 18.6589 26.0627 18.7712 26.0627 18.7712C26.0627 18.7712 24.4334 18.2993 22.5015 18.6072L23.7001 19.3816C23.7001 19.3816 25.6355 19.4974 26.7066 19.9104C27.7778 20.3235 27.8735 20.3088 27.8735 20.3088C27.8735 20.3088 26.6937 19.5749 25.4804 19.394L25.481 19.3946Z" fill="white"/>
<path d="M46.0736 24.5681C44.5131 24.5681 43.248 23.3025 43.248 21.7419C43.248 20.5627 43.9713 19.5527 44.9978 19.129C45.0648 19.5503 45.0201 19.7419 45.0201 19.7419C45.0201 19.7419 45.0084 19.7542 44.989 19.7748C44.452 20.1531 44.0994 20.7771 44.0994 21.484C44.0994 22.6385 45.0354 23.5745 46.19 23.5745C47.3445 23.5745 48.2805 22.6385 48.2805 21.484C48.2805 21.3477 48.2664 21.2149 48.2411 21.0856C48.25 21.0521 48.2547 21.0321 48.2547 21.0321C48.2547 21.0321 48.4074 20.8941 48.693 20.6837C48.8252 21.011 48.8998 21.3676 48.8998 21.7419C48.8998 23.3025 47.6348 24.5681 46.0736 24.5681Z" fill="url(#paint3_linear_1627_2577)"/>
<path d="M43.2721 15.3552C45.1205 18.2466 45.0389 19.5263 45.0112 19.7161C44.7527 19.7284 44.4008 19.7525 44.0964 19.7954C44.1187 19.4435 44.0253 18.1467 42.3396 15.5097C41.232 13.7764 40.3572 12.9362 39.4758 12.5296V12.0002C39.4758 12.0002 41.2597 12.2065 43.2721 15.3552Z" fill="url(#paint4_linear_1627_2577)"/>
<path d="M48.255 21.0328C48.255 21.0328 51.6094 17.9887 56.4861 18.6074L55.2663 19.3148C51.4055 19.5134 48.8743 21.8078 48.8743 21.8078C48.6862 21.5758 48.4653 21.3272 48.2415 21.0863C48.2503 21.0534 48.2544 21.0334 48.2544 21.0334L48.255 21.0328Z" fill="#FFE800"/>
<path d="M44.4427 23.3036C44.663 23.3195 44.8363 23.2261 44.9356 23.1526C45.1519 23.3154 45.4004 23.437 45.6701 23.5063C45.606 23.558 45.5438 23.6168 45.5003 23.6779C45.3716 23.8577 45.5908 24.1809 46.3129 24.3483C46.5655 24.4071 46.8881 24.3847 47.203 24.3313C46.857 24.4823 46.4756 24.5675 46.0737 24.5675C44.6424 24.5675 43.4626 23.5016 43.2764 22.1215C43.4791 22.9129 44.0901 23.2772 44.4415 23.303L44.4427 23.3036Z" fill="white"/>
<path d="M56.4866 18.6066C54.5547 18.2981 52.9254 18.7705 52.9254 18.7705C52.9254 18.7705 53.9713 18.6583 54.6552 18.6712C55.3391 18.6842 55.6358 18.8387 55.2615 19.0326C54.8873 19.2265 54.5617 19.2171 53.3643 19.4838C51.9706 19.7953 50.6133 20.5244 50.6133 20.5244C50.6133 20.5244 50.4406 20.609 50.3636 20.6519C49.628 21.065 48.9641 21.4581 48.8219 21.2906C48.581 21.0062 49.1715 20.3517 49.1715 20.3517C49.1715 20.3517 48.615 20.659 48.4347 20.8458C48.2543 21.0327 48.1832 21.0844 48.2478 21.1231C48.2478 21.1231 48.8477 21.7812 48.8413 21.897C48.8348 22.0133 48.7361 22.6902 48.7361 22.6902C48.7361 22.6902 48.8477 22.4369 48.8994 22.1214C48.9511 21.8065 49.3859 21.3329 50.0845 20.941C50.7344 20.5767 52.3437 19.9651 52.5705 19.8834C53.6493 19.4938 55.2868 19.3798 55.2868 19.3798L56.4854 18.6054L56.4866 18.6066Z" fill="white"/>
<path opacity="0.48" d="M50.9331 31.9945C50.9331 31.9945 55.3463 19.7133 55.5396 19.4518C55.7329 19.1904 56.4867 18.6069 56.4867 18.6069L55.2881 19.3813L50.9331 31.9945Z" fill="#FFE800"/>
<path opacity="0.48" d="M27.9955 31.9945C27.9955 31.9945 23.5829 19.7133 23.389 19.4525C23.1957 19.191 22.5 18.6075 22.5 18.6075L23.6998 19.3819L27.9955 31.9951V31.9945Z" fill="#FFE800"/>
</g>
</g>
<defs>
<filter id="filter0_dd_1627_2577" x="-3.5" y="0" width="86" height="100" filterUnits="userSpaceOnUse" color-interpolation-filters="sRGB">
<feFlood flood-opacity="0" result="BackgroundImageFix"/>
<feColorMatrix in="SourceAlpha" type="matrix" values="0 0 0 0 0 0 0 0 0 0 0 0 0 0 0 0 0 0 127 0" result="hardAlpha"/>
<feOffset dy="4"/>
<feGaussianBlur stdDeviation="8"/>
<feComposite in2="hardAlpha" operator="out"/>
<feColorMatrix type="matrix" values="0 0 0 0 0 0 0 0 0 0 0 0 0 0 0 0 0 0 0.05 0"/>
<feBlend mode="normal" in2="BackgroundImageFix" result="effect1_dropShadow_1627_2577"/>
<feColorMatrix in="SourceAlpha" type="matrix" values="0 0 0 0 0 0 0 0 0 0 0 0 0 0 0 0 0 0 127 0" result="hardAlpha"/>
<feOffset dy="8"/>
<feGaussianBlur stdDeviation="8"/>
<feComposite in2="hardAlpha" operator="out"/>
<feColorMatrix type="matrix" values="0 0 0 0 0 0 0 0 0 0 0 0 0 0 0 0 0 0 0.05 0"/>
<feBlend mode="normal" in2="effect1_dropShadow_1627_2577" result="effect2_dropShadow_1627_2577"/>
<feBlend mode="normal" in="SourceGraphic" in2="effect2_dropShadow_1627_2577" result="shape"/>
</filter>
<linearGradient id="paint0_linear_1627_2577" x1="24.5907" y1="22.7101" x2="54.014" y2="22.7101" gradientUnits="userSpaceOnUse">
<stop stop-color="#DC7100"/>
<stop offset="0.12" stop-color="#E89B00"/>
<stop offset="0.44" stop-color="#FFE800"/>
<stop offset="0.54" stop-color="#F1B800"/>
<stop offset="1" stop-color="#D65E00"/>
</linearGradient>
<linearGradient id="paint1_linear_1627_2577" x1="32.118" y1="25.3249" x2="33.9759" y2="16.9633" gradientUnits="userSpaceOnUse">
<stop stop-color="#D45900"/>
<stop offset="1" stop-color="#FFE800"/>
</linearGradient>
<linearGradient id="paint2_linear_1627_2577" x1="33.9572" y1="15.8981" x2="39.475" y2="15.8981" gradientUnits="userSpaceOnUse">
<stop stop-color="#FFE800"/>
<stop offset="1" stop-color="#D45900"/>
</linearGradient>
<linearGradient id="paint3_linear_1627_2577" x1="46.8692" y1="25.3249" x2="45.0113" y2="16.9633" gradientUnits="userSpaceOnUse">
<stop stop-color="#D45900"/>
<stop offset="1" stop-color="#FFE800"/>
</linearGradient>
<linearGradient id="paint4_linear_1627_2577" x1="45.0206" y1="15.8981" x2="39.4752" y2="15.8981" gradientUnits="userSpaceOnUse">
<stop stop-color="#D45900"/>
<stop offset="1" stop-color="#F2BE00"/>
</linearGradient>
<clipPath id="clip0_1627_2577">
<rect width="33.9875" height="21.4201" fill="white" transform="translate(22.5 12)"/>
</clipPath>
</defs>
</svg>
