<svg width="24" height="28" viewBox="0 0 24 28" fill="none" xmlns="http://www.w3.org/2000/svg">
<path d="M10.5 6.02073C11.4282 5.48483 12.5718 5.48483 13.5 6.02073L19.8923 9.71132C20.8205 10.2472 21.3923 11.2376 21.3923 12.3094V19.6906C21.3923 20.7624 20.8205 21.7528 19.8923 22.2887L13.5 25.9793C12.5718 26.5152 11.4282 26.5152 10.5 25.9793L4.1077 22.2887C3.17949 21.7528 2.6077 20.7624 2.6077 19.6906V12.3094C2.6077 11.2376 3.17949 10.2472 4.1077 9.71132L10.5 6.02073Z" fill="#0468A1" stroke="#089BED" stroke-width="2"/>
<path d="M12.8184 20.0977C12.4717 20.0977 12.2178 19.873 12.2178 19.4775V18.6475H9.43945C8.98535 18.6475 8.6875 18.3594 8.6875 17.9395C8.6875 17.666 8.76562 17.4365 8.96094 17.085C9.4541 16.2012 10.2549 14.9951 11.0996 13.7549C11.5586 13.0713 11.8662 12.8564 12.3838 12.8564C13.0332 12.8564 13.4189 13.1982 13.4189 13.7842V17.6123H13.9121C14.2441 17.6123 14.4443 17.8271 14.4443 18.1299C14.4443 18.4375 14.2441 18.6475 13.9072 18.6475H13.4189V19.4775C13.4189 19.873 13.1699 20.0977 12.8184 20.0977ZM12.2373 17.6416V13.9111H12.2178C11.0996 15.5127 10.4014 16.5674 9.83008 17.6074V17.6416H12.2373Z" fill="white"/>
<g clip-path="url(#clip0_1627_2677)">
<path d="M15.2924 3.60963C15.2924 3.60963 15.2905 3.61785 15.287 3.631C15.2971 3.68266 15.3022 3.73572 15.3022 3.7902C15.3022 4.25159 14.9277 4.62563 14.4663 4.62563C14.005 4.62563 13.63 4.25159 13.63 3.7902C13.63 3.5075 13.7687 3.25837 13.9836 3.10716C13.9913 3.09894 13.992 3.09401 13.992 3.09401C13.992 3.09401 14.1012 2.59904 13.2968 1.34073C12.4926 0.082416 11.7757 0 11.7757 0C11.7757 0 11.0744 0.082416 10.2699 1.34073C9.46549 2.59881 9.58243 3.09401 9.58243 3.09401C9.58243 3.09401 9.58712 3.09894 9.59487 3.10716C9.80948 3.25837 9.95036 3.50773 9.95036 3.7902C9.95036 4.25159 9.57632 4.62563 9.11493 4.62563C8.65354 4.62563 8.2795 4.25159 8.2795 3.7902C8.2795 3.73572 8.28514 3.68266 8.29523 3.631C8.29171 3.61762 8.28983 3.60963 8.28983 3.60963C8.28983 3.60963 6.9491 2.39288 5 2.64037L7.09351 8.29185C7.09351 8.29185 8.48566 8.56 11.7757 8.56C15.0658 8.56 16.4887 8.29185 16.4887 8.29185L18.5822 2.64037C16.6331 2.39288 15.2924 3.60963 15.2924 3.60963Z" fill="url(#paint0_linear_1627_2677)"/>
<path d="M16.3626 7.99016C16.3626 7.99016 14.9421 8.44638 11.7757 8.44638C8.6094 8.44638 7.22758 8.01317 7.22758 8.01317L5.47947 2.94963C5.42194 2.95456 5.05894 2.63288 5 2.64016L7.09351 8.29165C7.09351 8.29165 8.48566 8.55979 11.7757 8.55979C15.0658 8.55979 16.4887 8.29165 16.4887 8.29165L18.5822 2.64016C18.5235 2.63265 18.2176 2.9177 18.1598 2.91277L16.3624 7.99016H16.3626Z" fill="#068CD7"/>
<path d="M9.16139 5.02245C9.78503 5.02245 10.2906 4.51669 10.2906 3.89305C10.2906 3.4218 10.0015 3.01817 9.59131 2.84888C9.56454 3.01723 9.58239 3.09378 9.58239 3.09378C9.58239 3.09378 9.58709 3.09871 9.59483 3.10693C9.80945 3.25814 9.95033 3.5075 9.95033 3.78997C9.95033 4.25136 9.57629 4.6254 9.1149 4.6254C8.65351 4.6254 8.27947 4.25136 8.27947 3.78997C8.27947 3.7355 8.2851 3.68243 8.2952 3.63077C8.29167 3.61739 8.2898 3.60941 8.2898 3.60941C8.2898 3.60941 8.22875 3.55423 8.11463 3.47017C8.0618 3.60095 8.03198 3.74348 8.03198 3.89305C8.03198 4.51669 8.53775 5.02245 9.16139 5.02245Z" fill="url(#paint1_linear_1627_2677)"/>
<path d="M9.16139 5.02245C9.78503 5.02245 10.2906 4.51669 10.2906 3.89305C10.2906 3.4218 10.0015 3.01817 9.59131 2.84888C9.56454 3.01723 9.58239 3.09378 9.58239 3.09378C9.58239 3.09378 9.58709 3.09871 9.59483 3.10693C9.80945 3.25814 9.95033 3.5075 9.95033 3.78997C9.95033 4.25136 9.57629 4.6254 9.1149 4.6254C8.65351 4.6254 8.27947 4.25136 8.27947 3.78997C8.27947 3.7355 8.2851 3.68243 8.2952 3.63077C8.29167 3.61739 8.2898 3.60941 8.2898 3.60941C8.2898 3.60941 8.22875 3.55423 8.11463 3.47017C8.0618 3.60095 8.03198 3.74348 8.03198 3.89305C8.03198 4.51669 8.53775 5.02245 9.16139 5.02245Z" fill="url(#paint2_linear_1627_2677)"/>
<path d="M10.263 1.34073C9.52429 2.4962 9.56632 3.0076 9.57735 3.08344C9.68019 3.08837 9.82577 3.098 9.9474 3.11514C9.93848 2.97449 9.95985 2.45628 10.6335 1.40248C11.0761 0.709811 11.5037 0.374042 11.762 0.211558V0C11.762 0 11.0676 0.082416 10.263 1.34073Z" fill="url(#paint3_linear_1627_2677)"/>
<path d="M8.28985 3.60959C8.28985 3.60959 6.94959 2.39284 5.00049 2.64009L5.48794 2.92279C7.03083 3.00215 8.04237 3.91906 8.04237 3.91906C8.11751 3.82632 8.20579 3.72699 8.29525 3.63072C8.29173 3.61758 8.28985 3.60959 8.28985 3.60959Z" fill="url(#paint4_linear_1627_2677)"/>
<path d="M8.28985 3.60959C8.28985 3.60959 6.94959 2.39284 5.00049 2.64009L5.48794 2.92279C7.03083 3.00215 8.04237 3.91906 8.04237 3.91906C8.11751 3.82632 8.20579 3.72699 8.29525 3.63072C8.29173 3.61758 8.28985 3.60959 8.28985 3.60959Z" fill="url(#paint5_linear_1627_2677)"/>
<path d="M10.7758 0.665668C10.7694 0.672712 10.7664 0.679991 10.7605 0.686566C10.7434 0.705585 10.7279 0.724604 10.7105 0.744562C10.707 0.748554 10.7053 0.751371 10.7053 0.751371C10.7053 0.751371 11.1176 0.363476 11.2994 0.289982C11.4811 0.216489 11.3579 0.375216 11.2224 0.48346C11.0871 0.591705 10.4412 1.55088 10.2014 2.08083C10.084 2.34052 10.0211 2.59364 9.9873 2.78477C10.053 2.50559 10.2223 2.05758 10.641 1.40272C10.7145 1.28766 10.787 1.18341 10.8584 1.08714C10.9171 1.00543 10.9819 0.920665 11.0526 0.836135C11.1245 0.750432 11.1916 0.674121 11.2644 0.606263C11.4567 0.416776 11.6441 0.2928 11.7615 0.211793V0C11.7615 0 11.3435 0.050248 10.7755 0.665668H10.7758Z" fill="#FFFCDE"/>
<path d="M9.81378 4.51722C9.7255 4.52356 9.65646 4.48623 9.61655 4.45688C9.53014 4.52192 9.43082 4.57053 9.32281 4.59823C9.3484 4.61889 9.37329 4.64237 9.39067 4.66679C9.44209 4.73864 9.35451 4.86779 9.06593 4.93471C8.96497 4.95819 8.83582 4.94926 8.71021 4.9279C8.84827 4.98824 9.00089 5.02229 9.16126 5.02229C9.73324 5.02229 10.205 4.59635 10.2792 4.0448C10.1984 4.36108 9.95419 4.50666 9.81355 4.51699L9.81378 4.51722Z" fill="#FFFCDE"/>
<path d="M8.29248 3.6458C8.29248 3.6458 8.05274 3.90878 8.05532 3.95503C8.05791 4.00152 8.09735 4.27202 8.09735 4.27202C8.09735 4.27202 8.05274 4.17082 8.03208 4.04473C8.01142 3.91887 7.83766 3.72962 7.55848 3.57301C7.27906 3.41639 6.56104 3.1189 6.56104 3.1189C6.56104 3.1189 7.15297 3.29242 7.44695 3.45725C7.74092 3.62232 7.92407 3.81556 8.06073 3.75639C8.19715 3.69698 7.9236 3.33726 7.9236 3.33726C7.9236 3.33726 8.14596 3.46007 8.21804 3.53473C8.29013 3.6094 8.31854 3.63006 8.29271 3.64556L8.29248 3.6458Z" fill="#FFFCDE"/>
<path d="M6.19118 2.95483C5.70654 2.88274 5.57764 2.88791 5.42783 2.81042C5.27826 2.73317 5.45882 2.67118 5.73214 2.66602C6.00545 2.66085 6.42363 2.7057 6.42363 2.7057C6.42363 2.7057 5.77252 2.51715 5.00049 2.64019L5.47949 2.94966C5.47949 2.94966 6.25317 2.99592 6.68098 3.16098C7.10902 3.32605 7.1473 3.32018 7.1473 3.32018C7.1473 3.32018 6.67581 3.02691 6.19094 2.95459L6.19118 2.95483Z" fill="#FFFCDE"/>
<path d="M14.4207 5.02245C13.797 5.02245 13.2915 4.51669 13.2915 3.89305C13.2915 3.4218 13.5805 3.01817 13.9907 2.84888C14.0175 3.01723 13.9997 3.09378 13.9997 3.09378C13.9997 3.09378 13.995 3.09871 13.9872 3.10693C13.7726 3.25814 13.6317 3.5075 13.6317 3.78997C13.6317 4.25136 14.0058 4.6254 14.4672 4.6254C14.9286 4.6254 15.3026 4.25136 15.3026 3.78997C15.3026 3.7355 15.297 3.68243 15.2869 3.63077C15.2904 3.61739 15.2923 3.60941 15.2923 3.60941C15.2923 3.60941 15.3533 3.55423 15.4674 3.47017C15.5203 3.60095 15.5501 3.74348 15.5501 3.89305C15.5501 4.51669 15.0445 5.02245 14.4207 5.02245Z" fill="url(#paint6_linear_1627_2677)"/>
<path d="M14.4207 5.02245C13.797 5.02245 13.2915 4.51669 13.2915 3.89305C13.2915 3.4218 13.5805 3.01817 13.9907 2.84888C14.0175 3.01723 13.9997 3.09378 13.9997 3.09378C13.9997 3.09378 13.995 3.09871 13.9872 3.10693C13.7726 3.25814 13.6317 3.5075 13.6317 3.78997C13.6317 4.25136 14.0058 4.6254 14.4672 4.6254C14.9286 4.6254 15.3026 4.25136 15.3026 3.78997C15.3026 3.7355 15.297 3.68243 15.2869 3.63077C15.2904 3.61739 15.2923 3.60941 15.2923 3.60941C15.2923 3.60941 15.3533 3.55423 15.4674 3.47017C15.5203 3.60095 15.5501 3.74348 15.5501 3.89305C15.5501 4.51669 15.0445 5.02245 14.4207 5.02245Z" fill="url(#paint7_linear_1627_2677)"/>
<path d="M13.2898 1.34073C14.0285 2.4962 14.0015 3.0076 13.9905 3.08344C13.8872 3.08837 13.7491 3.098 13.6277 3.11514C13.6366 2.97449 13.5897 2.45628 12.9158 1.40248C12.4732 0.709811 12.1139 0.374042 11.7617 0.211558V0C11.7617 0 12.4854 0.082416 13.2898 1.34073Z" fill="url(#paint8_linear_1627_2677)"/>
<path d="M13.2898 1.34073C14.0285 2.4962 14.0015 3.0076 13.9905 3.08344C13.8872 3.08837 13.7491 3.098 13.6277 3.11514C13.6366 2.97449 13.5897 2.45628 12.9158 1.40248C12.4732 0.709811 12.1139 0.374042 11.7617 0.211558V0C11.7617 0 12.4854 0.082416 13.2898 1.34073Z" fill="url(#paint9_linear_1627_2677)"/>
<path d="M15.2923 3.60961C15.2923 3.60961 16.6328 2.39309 18.5816 2.64034L18.0942 2.92304C16.5513 3.0024 15.5397 3.91931 15.5397 3.91931C15.4646 3.82657 15.3763 3.72724 15.2869 3.63097C15.2904 3.61782 15.292 3.60984 15.292 3.60984L15.2923 3.60961Z" fill="url(#paint10_linear_1627_2677)"/>
<path d="M15.2923 3.60961C15.2923 3.60961 16.6328 2.39309 18.5816 2.64034L18.0942 2.92304C16.5513 3.0024 15.5397 3.91931 15.5397 3.91931C15.4646 3.82657 15.3763 3.72724 15.2869 3.63097C15.2904 3.61782 15.292 3.60984 15.292 3.60984L15.2923 3.60961Z" fill="url(#paint11_linear_1627_2677)"/>
<path d="M13.7686 4.51722C13.8566 4.52356 13.9259 4.48623 13.9656 4.45688C14.052 4.52192 14.1513 4.57053 14.2591 4.59823C14.2335 4.61889 14.2086 4.64237 14.1912 4.66679C14.1398 4.73864 14.2274 4.86779 14.516 4.93471C14.6167 4.95819 14.7458 4.94926 14.8717 4.9279C14.7334 4.98824 14.581 5.02229 14.4206 5.02229C13.8487 5.02229 13.3772 4.59635 13.3027 4.0448C13.3837 4.36108 13.6279 4.50666 13.7684 4.51699L13.7686 4.51722Z" fill="#FFFCDE"/>
<path d="M18.5818 2.64017C17.8098 2.51689 17.1587 2.70568 17.1587 2.70568C17.1587 2.70568 17.5766 2.66083 17.8499 2.66599C18.1232 2.67116 18.2418 2.73291 18.0923 2.8104C17.9427 2.88788 17.8126 2.88413 17.3341 2.99073C16.7771 3.11517 16.2347 3.40657 16.2347 3.40657C16.2347 3.40657 16.1657 3.44038 16.1349 3.45752C15.8412 3.62258 15.5756 3.77967 15.5188 3.71275C15.4225 3.5991 15.6585 3.33753 15.6585 3.33753C15.6585 3.33753 15.4362 3.46034 15.3641 3.535C15.292 3.60967 15.2636 3.63033 15.2894 3.64583C15.2894 3.64583 15.5291 3.90881 15.5266 3.95507C15.524 4.00156 15.4845 4.27205 15.4845 4.27205C15.4845 4.27205 15.5291 4.17085 15.5498 4.04476C15.5705 3.91891 15.7442 3.72965 16.0234 3.57304C16.2831 3.42746 16.9262 3.18303 17.0169 3.15039C17.4477 2.99472 18.1023 2.94917 18.1023 2.94917L18.5813 2.6397L18.5818 2.64017Z" fill="#FFFCDE"/>
<path d="M7.23204 8.01476L7.09351 8.29159C7.09351 8.29159 8.48566 8.55974 11.7757 8.55974C15.0658 8.55974 16.4887 8.29159 16.4887 8.29159L16.4922 8.28455L16.3624 7.98987C16.3624 7.98987 14.9418 8.44609 11.7755 8.44609C8.60916 8.44609 7.31352 8.04129 7.23181 8.01452L7.23204 8.01476Z" fill="#033856"/>
<path d="M16.3625 7.99014C16.3625 7.99014 18.1262 3.08227 18.2034 2.97778C18.2807 2.8733 18.5819 2.64014 18.5819 2.64014L18.1029 2.94961L16.3625 7.99014Z" fill="#3CB7FC"/>
<path d="M7.19612 7.99014C7.19612 7.99014 5.43274 3.08228 5.35526 2.97803C5.27801 2.87354 5 2.64038 5 2.64038L5.47947 2.94985L7.19612 7.99038V7.99014Z" fill="#FFFCDE"/>
</g>
<defs>
<linearGradient id="paint0_linear_1627_2677" x1="5.83543" y1="4.28" x2="17.5937" y2="4.28" gradientUnits="userSpaceOnUse">
<stop stop-color="#0468A1"/>
<stop offset="0.43" stop-color="#089BED"/>
<stop offset="0.71" stop-color="#0771AD"/>
<stop offset="1" stop-color="#0468A1"/>
</linearGradient>
<linearGradient id="paint1_linear_1627_2677" x1="8.84346" y1="5.32488" x2="9.58591" y2="1.98339" gradientUnits="userSpaceOnUse">
<stop stop-color="#572600"/>
<stop offset="0.43" stop-color="#BD6E50"/>
<stop offset="1" stop-color="#E38250"/>
</linearGradient>
<linearGradient id="paint2_linear_1627_2677" x1="8.03187" y1="3.93575" x2="10.2903" y2="3.93575" gradientUnits="userSpaceOnUse">
<stop stop-color="#0572B1"/>
<stop offset="0.43" stop-color="#0896E5"/>
<stop offset="1" stop-color="#0894E2"/>
</linearGradient>
<linearGradient id="paint3_linear_1627_2677" x1="9.57289" y1="1.55769" x2="11.7617" y2="1.55769" gradientUnits="userSpaceOnUse">
<stop stop-color="#0572B1"/>
<stop offset="0.43" stop-color="#0896E5"/>
<stop offset="1" stop-color="#0894E2"/>
</linearGradient>
<linearGradient id="paint4_linear_1627_2677" x1="5.00049" y1="3.26302" x2="8.29525" y2="3.26302" gradientUnits="userSpaceOnUse">
<stop stop-color="#E38250"/>
<stop offset="0.57" stop-color="#BD6E50"/>
<stop offset="1" stop-color="#572600"/>
</linearGradient>
<linearGradient id="paint5_linear_1627_2677" x1="5.00033" y1="3.26305" x2="8.2949" y2="3.26305" gradientUnits="userSpaceOnUse">
<stop stop-color="#0572B1"/>
<stop offset="0.43" stop-color="#0896E5"/>
<stop offset="1" stop-color="#0894E2"/>
</linearGradient>
<linearGradient id="paint6_linear_1627_2677" x1="14.7388" y1="5.32488" x2="13.9961" y2="1.98339" gradientUnits="userSpaceOnUse">
<stop stop-color="#E38250"/>
<stop offset="0.57" stop-color="#BD6E50"/>
<stop offset="1" stop-color="#572600"/>
</linearGradient>
<linearGradient id="paint7_linear_1627_2677" x1="13.2914" y1="3.93575" x2="15.5498" y2="3.93575" gradientUnits="userSpaceOnUse">
<stop stop-color="#0572B1"/>
<stop offset="0.43" stop-color="#0896E5"/>
<stop offset="1" stop-color="#0894E2"/>
</linearGradient>
<linearGradient id="paint8_linear_1627_2677" x1="13.9938" y1="1.55769" x2="11.7615" y2="1.55769" gradientUnits="userSpaceOnUse">
<stop stop-color="#572600"/>
<stop offset="0.43" stop-color="#BD6E50"/>
<stop offset="1" stop-color="#E38250"/>
</linearGradient>
<linearGradient id="paint9_linear_1627_2677" x1="11.7616" y1="1.55769" x2="13.9937" y2="1.55769" gradientUnits="userSpaceOnUse">
<stop stop-color="#0572B1"/>
<stop offset="0.43" stop-color="#0896E5"/>
<stop offset="1" stop-color="#0894E2"/>
</linearGradient>
<linearGradient id="paint10_linear_1627_2677" x1="15.2871" y1="-2.79757e-05" x2="18.5819" y2="-2.79757e-05" gradientUnits="userSpaceOnUse">
<stop stop-color="#E38250"/>
<stop offset="0.57" stop-color="#BD6E50"/>
<stop offset="1" stop-color="#572600"/>
</linearGradient>
<linearGradient id="paint11_linear_1627_2677" x1="15.2867" y1="3.26329" x2="18.5813" y2="3.26329" gradientUnits="userSpaceOnUse">
<stop stop-color="#0572B1"/>
<stop offset="0.43" stop-color="#0896E5"/>
<stop offset="1" stop-color="#0894E2"/>
</linearGradient>
<clipPath id="clip0_1627_2677">
<rect width="13.5822" height="8.56" fill="white" transform="translate(5)"/>
</clipPath>
</defs>
</svg>
