<svg width="33" height="33" viewBox="0 0 33 33" fill="none" xmlns="http://www.w3.org/2000/svg">
<circle cx="16.25" cy="16.25" r="16.25" fill="#6360FF"/>
<path d="M10.6111 23.5C10.1681 23.5 9.78891 23.3424 9.47367 23.0271C9.15843 22.7119 9.00054 22.3325 9 21.8889V10.6111C9 10.1681 9.15789 9.78891 9.47367 9.47367C9.78944 9.15843 10.1686 9.00054 10.6111 9H21.8889C22.3319 9 22.7114 9.15789 23.0271 9.47367C23.3429 9.78944 23.5005 10.1686 23.5 10.6111V21.8889C23.5 22.3319 23.3424 22.7114 23.0271 23.0271C22.7119 23.3429 22.3325 23.5005 21.8889 23.5H10.6111ZM11.4167 20.2778H21.0833L18.0625 16.25L15.6458 19.4722L13.8333 17.0556L11.4167 20.2778Z" fill="white"/>
</svg>
