<svg width="14" height="14" viewBox="0 0 14 14" fill="none" xmlns="http://www.w3.org/2000/svg">
<path d="M12.9802 2.70666L12.9905 2.69344L10.0432 0.173444L9.11474 1.38211L10.6378 2.68411C10.26 2.92646 9.95996 3.28319 9.77677 3.70792C9.59358 4.13265 9.5357 4.60574 9.61063 5.06566C9.72116 5.76488 10.1773 6.36921 10.7675 6.70755C11.4269 7.08632 12.0054 7.05132 12.5197 6.85844L12.5086 11.6667C12.5095 11.7954 12.48 11.9224 12.4227 12.0361C12.3654 12.1498 12.2821 12.2467 12.1804 12.3179C12.0787 12.389 11.9619 12.4324 11.8403 12.4439C11.7188 12.4554 11.5965 12.4347 11.4844 12.3838C11.3967 12.3441 11.3171 12.2867 11.2501 12.215C11.1128 12.0693 11.0357 11.8722 11.0357 11.6667L11.0526 10.1111C11.0534 9.80495 10.9967 9.50168 10.8857 9.2188C10.7748 8.93592 10.6119 8.67904 10.4064 8.46299C10.2011 8.24584 9.95732 8.07354 9.6889 7.95597C9.42048 7.83839 9.13272 7.77783 8.8421 7.77777H8.10526V1.55555C8.10526 1.143 7.95 0.747334 7.67363 0.455611C7.39726 0.163888 7.02242 0 6.63158 0H1.47368C1.08284 0 0.708001 0.163888 0.431632 0.455611C0.155263 0.747334 0 1.143 0 1.55555V12.4444C0 12.857 0.155263 13.2526 0.431632 13.5444C0.708001 13.8361 1.08284 14 1.47368 14H6.63158C7.02242 14 7.39726 13.8361 7.67363 13.5444C7.95 13.2526 8.10526 12.857 8.10526 12.4444V9.33332H8.8421C8.94281 9.33332 9.03884 9.35354 9.13021 9.39399C9.30549 9.47515 9.44524 9.62322 9.52147 9.80854C9.55958 9.90433 9.57913 10.0072 9.57895 10.1111L9.56126 11.6667C9.56126 11.9824 9.61947 12.2881 9.73516 12.5751C9.84642 12.8543 10.0063 13.104 10.2075 13.3148C10.412 13.533 10.6557 13.7059 10.9243 13.8236C11.1929 13.9412 11.481 14.0012 11.7718 14C12.0719 14 12.3588 13.9388 12.6324 13.8164C12.8962 13.6998 13.1335 13.531 13.3332 13.3179C13.5395 13.1017 13.7032 12.8444 13.8146 12.561C13.9261 12.2775 13.9831 11.9735 13.9823 11.6667L14 4.66666C13.9991 4.27596 13.9052 3.89177 13.727 3.54931C13.5488 3.20686 13.2921 2.91712 12.9802 2.70666ZM6.63158 3.88888H1.47368V1.55555H6.63158V3.88888ZM11.7895 5.44444C11.5941 5.44444 11.4066 5.36249 11.2684 5.21663C11.1303 5.07077 11.0526 4.87294 11.0526 4.66666C11.0526 4.46038 11.1303 4.26255 11.2684 4.11669C11.4066 3.97083 11.5941 3.88888 11.7895 3.88888C11.9849 3.88888 12.1723 3.97083 12.3105 4.11669C12.4487 4.26255 12.5263 4.46038 12.5263 4.66666C12.5263 4.87294 12.4487 5.07077 12.3105 5.21663C12.1723 5.36249 11.9849 5.44444 11.7895 5.44444Z" fill="white"/>
</svg>
