<svg width="44" height="44" viewBox="0 0 44 44" fill="none" xmlns="http://www.w3.org/2000/svg">
<rect width="44" height="44" rx="12.8333" fill="#3A9EFC"/>
<mask id="mask0_2_1236" style="mask-type:alpha" maskUnits="userSpaceOnUse" x="0" y="0" width="44" height="44">
<rect width="44" height="44" rx="12.8333" fill="#D70008"/>
</mask>
<g mask="url(#mask0_2_1236)">
<path d="M8.86084 10.018C8.86084 8.5354 9.73737 7.3335 10.8186 7.3335H29.0912C30.1724 7.3335 31.0489 8.5354 31.0489 10.018V42.2323C31.0489 43.7149 30.1724 44.9168 29.0912 44.9168H10.8186C9.73737 44.9168 8.86084 43.7149 8.86084 42.2323V10.018Z" fill="#C4E2FE"/>
<path d="M6.90967 12.8857C6.90967 11.4149 7.94036 10.2227 9.21177 10.2227H30.6981C31.9695 10.2227 33.0002 11.4149 33.0002 12.8857V44.8419C33.0002 46.3127 31.9695 47.505 30.6981 47.505H9.21177C7.94036 47.505 6.90967 46.3127 6.90967 44.8419V12.8857Z" fill="url(#paint0_linear_2_1236)"/>
<path d="M8.86084 14.9363C8.86084 14.2811 9.5231 13.75 10.34 13.75H29.5697C30.3867 13.75 31.0489 14.2811 31.0489 14.9363V22.6471C31.0489 23.3022 30.3867 23.8333 29.5697 23.8333H10.34C9.5231 23.8333 8.86084 23.3022 8.86084 22.6471V14.9363Z" fill="#A6D3FE"/>
<mask id="path-6-inside-1_2_1236" fill="white">
<path fill-rule="evenodd" clip-rule="evenodd" d="M13.5282 15.6099C13.4777 15.6408 13.4362 15.6986 13.4221 15.7574C13.416 15.783 13.4109 15.9118 13.4109 16.0436C13.4108 16.2815 13.4106 16.2833 13.3865 16.2908C13.3732 16.295 13.347 16.2985 13.3283 16.2985C13.2741 16.2988 13.0811 16.3471 12.9689 16.3885C12.8523 16.4315 12.6869 16.5233 12.5934 16.597C12.5053 16.6665 12.374 16.8116 12.3101 16.9104C12.0632 17.2915 12.0235 17.8272 12.211 18.2461C12.2509 18.3353 12.2824 18.3832 12.3638 18.4788C12.5584 18.7072 12.7896 18.8418 13.2651 19.0036L13.4054 19.0513L13.4082 19.8551L13.411 20.6588L13.3704 20.6505C13.0627 20.5873 12.7992 20.4534 12.5495 20.2334C12.4944 20.1848 12.4313 20.1392 12.4092 20.1321C12.2307 20.0746 12.0518 20.2182 12.0327 20.4345C12.0208 20.5684 12.063 20.661 12.1893 20.7784C12.5154 21.0813 12.9092 21.2642 13.3208 21.3036L13.4089 21.3121L13.4127 21.5642C13.4162 21.797 13.4184 21.8204 13.4409 21.8695C13.5025 22.0044 13.6868 22.0444 13.7851 21.9442C13.8566 21.8714 13.8637 21.8363 13.8639 21.5519L13.8642 21.3001L13.9532 21.2916C14.4062 21.2481 14.8025 21.0032 15.0055 20.6415C15.1973 20.2994 15.2541 19.8079 15.1468 19.4176C15.0194 18.9543 14.6669 18.6503 14.0042 18.4319L13.8642 18.3858V17.6804C13.8642 17.2925 13.8678 16.9751 13.8723 16.9752C13.8964 16.9755 14.0641 17.028 14.134 17.0572C14.2507 17.1059 14.4042 17.1982 14.5253 17.2925C14.6381 17.3802 14.6891 17.3988 14.774 17.3831C14.9657 17.3475 15.0836 17.1031 15.0043 16.9055C14.9748 16.8319 14.9255 16.7796 14.7763 16.6635C14.5311 16.4727 14.231 16.3457 13.9505 16.3141L13.8696 16.305L13.8639 16.0357C13.8581 15.7556 13.8525 15.7188 13.8068 15.6618C13.7446 15.5842 13.6107 15.5592 13.5282 15.6099ZM13.4108 17.6V18.25L13.3326 18.2212C13.0472 18.1163 12.888 18.0109 12.8161 17.8793C12.7004 17.6677 12.7445 17.3676 12.919 17.1781C13.0327 17.0547 13.2263 16.9598 13.3811 16.9516L13.4108 16.9501V17.6ZM14.0053 19.262C14.2774 19.3719 14.4323 19.5002 14.5022 19.6733C14.5621 19.822 14.5659 19.9874 14.5132 20.1613C14.4388 20.4071 14.2039 20.6047 13.9262 20.6551L13.8642 20.6664V19.9418C13.8642 19.3283 13.8665 19.2172 13.8793 19.2172C13.8877 19.2172 13.9444 19.2374 14.0053 19.262Z"/>
</mask>
<path fill-rule="evenodd" clip-rule="evenodd" d="M13.5282 15.6099C13.4777 15.6408 13.4362 15.6986 13.4221 15.7574C13.416 15.783 13.4109 15.9118 13.4109 16.0436C13.4108 16.2815 13.4106 16.2833 13.3865 16.2908C13.3732 16.295 13.347 16.2985 13.3283 16.2985C13.2741 16.2988 13.0811 16.3471 12.9689 16.3885C12.8523 16.4315 12.6869 16.5233 12.5934 16.597C12.5053 16.6665 12.374 16.8116 12.3101 16.9104C12.0632 17.2915 12.0235 17.8272 12.211 18.2461C12.2509 18.3353 12.2824 18.3832 12.3638 18.4788C12.5584 18.7072 12.7896 18.8418 13.2651 19.0036L13.4054 19.0513L13.4082 19.8551L13.411 20.6588L13.3704 20.6505C13.0627 20.5873 12.7992 20.4534 12.5495 20.2334C12.4944 20.1848 12.4313 20.1392 12.4092 20.1321C12.2307 20.0746 12.0518 20.2182 12.0327 20.4345C12.0208 20.5684 12.063 20.661 12.1893 20.7784C12.5154 21.0813 12.9092 21.2642 13.3208 21.3036L13.4089 21.3121L13.4127 21.5642C13.4162 21.797 13.4184 21.8204 13.4409 21.8695C13.5025 22.0044 13.6868 22.0444 13.7851 21.9442C13.8566 21.8714 13.8637 21.8363 13.8639 21.5519L13.8642 21.3001L13.9532 21.2916C14.4062 21.2481 14.8025 21.0032 15.0055 20.6415C15.1973 20.2994 15.2541 19.8079 15.1468 19.4176C15.0194 18.9543 14.6669 18.6503 14.0042 18.4319L13.8642 18.3858V17.6804C13.8642 17.2925 13.8678 16.9751 13.8723 16.9752C13.8964 16.9755 14.0641 17.028 14.134 17.0572C14.2507 17.1059 14.4042 17.1982 14.5253 17.2925C14.6381 17.3802 14.6891 17.3988 14.774 17.3831C14.9657 17.3475 15.0836 17.1031 15.0043 16.9055C14.9748 16.8319 14.9255 16.7796 14.7763 16.6635C14.5311 16.4727 14.231 16.3457 13.9505 16.3141L13.8696 16.305L13.8639 16.0357C13.8581 15.7556 13.8525 15.7188 13.8068 15.6618C13.7446 15.5842 13.6107 15.5592 13.5282 15.6099ZM13.4108 17.6V18.25L13.3326 18.2212C13.0472 18.1163 12.888 18.0109 12.8161 17.8793C12.7004 17.6677 12.7445 17.3676 12.919 17.1781C13.0327 17.0547 13.2263 16.9598 13.3811 16.9516L13.4108 16.9501V17.6ZM14.0053 19.262C14.2774 19.3719 14.4323 19.5002 14.5022 19.6733C14.5621 19.822 14.5659 19.9874 14.5132 20.1613C14.4388 20.4071 14.2039 20.6047 13.9262 20.6551L13.8642 20.6664V19.9418C13.8642 19.3283 13.8665 19.2172 13.8793 19.2172C13.8877 19.2172 13.9444 19.2374 14.0053 19.262Z" fill="#3186D6"/>
<path d="M13.5282 15.6099L14.0073 16.3914L14.0073 16.3913L13.5282 15.6099ZM13.4221 15.7574L14.3136 15.9708L14.3136 15.9707L13.4221 15.7574ZM13.4109 16.0436L14.3275 16.0439L14.3275 16.0438L13.4109 16.0436ZM13.3865 16.2908L13.6582 17.1663L13.6589 17.1661L13.3865 16.2908ZM13.3283 16.2985L13.324 15.3819L13.3237 15.3819L13.3283 16.2985ZM12.9689 16.3885L12.6518 15.5284L12.6518 15.5284L12.9689 16.3885ZM12.5934 16.597L12.0261 15.877L12.026 15.8771L12.5934 16.597ZM12.3101 16.9104L13.0795 17.4087L13.0795 17.4087L12.3101 16.9104ZM12.211 18.2461L11.3742 18.6205L11.3743 18.6206L12.211 18.2461ZM12.3638 18.4788L13.0615 17.8842L13.0615 17.8842L12.3638 18.4788ZM13.2651 19.0036L12.9698 19.8714L12.9699 19.8714L13.2651 19.0036ZM13.4054 19.0513L14.3221 19.0482L14.3198 18.3941L13.7006 18.1835L13.4054 19.0513ZM13.4082 19.8551L12.4915 19.8582L12.4915 19.8583L13.4082 19.8551ZM13.411 20.6588L13.2266 21.5568L14.3315 21.7837L14.3276 20.6557L13.411 20.6588ZM13.3704 20.6505L13.1859 21.5484L13.186 21.5485L13.3704 20.6505ZM12.5495 20.2334L11.9435 20.9211L11.9435 20.9211L12.5495 20.2334ZM12.4092 20.1321L12.128 21.0046L12.1284 21.0047L12.4092 20.1321ZM12.0327 20.4345L11.1195 20.3539L11.1195 20.3539L12.0327 20.4345ZM12.1893 20.7784L11.5653 21.4498L11.5653 21.4498L12.1893 20.7784ZM13.3208 21.3036L13.2333 22.2161L13.2334 22.2161L13.3208 21.3036ZM13.4089 21.3121L14.3255 21.2983L14.3131 20.4778L13.4964 20.3996L13.4089 21.3121ZM13.4127 21.5642L14.3293 21.5504L14.3293 21.5504L13.4127 21.5642ZM13.4409 21.8695L14.2745 21.4883L14.2745 21.4883L13.4409 21.8695ZM13.7851 21.9442L13.131 21.302L13.1309 21.3021L13.7851 21.9442ZM13.8639 21.5519L14.7806 21.5528L14.7806 21.5528L13.8639 21.5519ZM13.8642 21.3001L13.7766 20.3876L12.9483 20.4671L12.9475 21.2992L13.8642 21.3001ZM13.9532 21.2916L14.0408 22.204L14.0408 22.204L13.9532 21.2916ZM15.0055 20.6415L15.8049 21.0899L15.8049 21.0899L15.0055 20.6415ZM15.1468 19.4176L14.2629 19.6607L14.2629 19.6607L15.1468 19.4176ZM14.0042 18.4319L13.7173 19.3025L13.7173 19.3025L14.0042 18.4319ZM13.8642 18.3858H12.9475V19.0489L13.5773 19.2564L13.8642 18.3858ZM13.8723 16.9752L13.862 17.8918L13.8623 17.8918L13.8723 16.9752ZM14.134 17.0572L13.7808 17.9031L13.7808 17.9031L14.134 17.0572ZM14.5253 17.2925L15.0883 16.5691L15.0883 16.569L14.5253 17.2925ZM14.774 17.3831L14.6068 16.4818L14.6068 16.4818L14.774 17.3831ZM15.0043 16.9055L15.855 16.5641L15.855 16.5641L15.0043 16.9055ZM14.7763 16.6635L15.3392 15.94L15.3392 15.94L14.7763 16.6635ZM13.9505 16.3141L13.8478 17.225L13.8479 17.225L13.9505 16.3141ZM13.8696 16.305L12.9531 16.3241L12.9698 17.126L13.7668 17.2159L13.8696 16.305ZM13.8639 16.0357L12.9475 16.0548L12.9475 16.0548L13.8639 16.0357ZM13.8068 15.6618L13.0915 16.2351L13.0916 16.2352L13.8068 15.6618ZM13.4108 18.25L13.0944 19.1103L14.3275 19.5639V18.25H13.4108ZM13.3326 18.2212L13.649 17.3609L13.6489 17.3609L13.3326 18.2212ZM12.8161 17.8793L13.6205 17.4397L13.6204 17.4396L12.8161 17.8793ZM12.919 17.1781L12.2448 16.557L12.2448 16.5571L12.919 17.1781ZM13.3811 16.9516L13.3328 16.0362L13.3328 16.0362L13.3811 16.9516ZM13.4108 16.9501H14.3275V15.9838L13.3625 16.0347L13.4108 16.9501ZM14.0053 19.262L14.3486 18.412L14.3486 18.412L14.0053 19.262ZM14.5022 19.6733L13.652 20.0161L13.652 20.0162L14.5022 19.6733ZM14.5132 20.1613L13.6359 19.8956L13.6359 19.8956L14.5132 20.1613ZM13.9262 20.6551L13.7625 19.7532L13.7624 19.7532L13.9262 20.6551ZM13.8642 20.6664H12.9475V21.7646L14.028 21.5683L13.8642 20.6664ZM13.049 14.8284C12.7862 14.9895 12.5999 15.2543 12.5306 15.544L14.3136 15.9707C14.29 16.0693 14.2491 16.148 14.2057 16.2084C14.1625 16.2684 14.0989 16.3352 14.0073 16.3914L13.049 14.8284ZM12.5306 15.544C12.5092 15.6332 12.5042 15.7189 12.5037 15.7256C12.5012 15.7582 12.4995 15.7927 12.4982 15.8248C12.4957 15.89 12.4942 15.9671 12.4942 16.0434L14.3275 16.0438C14.3276 15.9883 14.3287 15.9351 14.3302 15.8965C14.3309 15.8767 14.3316 15.866 14.3318 15.8632C14.332 15.8615 14.3316 15.8672 14.3304 15.8775C14.3298 15.8828 14.3286 15.8926 14.3265 15.9054C14.3255 15.912 14.3241 15.9206 14.3221 15.9308C14.3203 15.9407 14.3175 15.9544 14.3136 15.9708L12.5306 15.544ZM12.4942 16.0434C12.4942 16.1049 12.4942 16.1435 12.4938 16.1706C12.4934 16.2049 12.4927 16.1919 12.4955 16.1638C12.497 16.1485 12.5018 16.1035 12.5167 16.0452C12.5315 15.9871 12.5654 15.8787 12.646 15.762C12.7368 15.6303 12.8518 15.5383 12.9636 15.4787C13.0122 15.4529 13.0532 15.4368 13.0768 15.4282C13.089 15.4238 13.0988 15.4205 13.1046 15.4186C13.1076 15.4176 13.11 15.4169 13.1115 15.4164C13.113 15.4159 13.1141 15.4156 13.1142 15.4155L13.6589 17.1661C13.6595 17.1659 13.6803 17.1596 13.7047 17.1507C13.731 17.1411 13.7745 17.124 13.8254 17.0969C13.9419 17.0349 14.0608 16.9396 14.155 16.803C14.3048 16.586 14.3181 16.3623 14.32 16.3435C14.3287 16.2544 14.3275 16.1297 14.3275 16.0439L12.4942 16.0434ZM13.1149 15.4153C13.1531 15.4035 13.1831 15.3972 13.1973 15.3944C13.2141 15.3911 13.2281 15.3889 13.2388 15.3875C13.2567 15.3851 13.2854 15.3821 13.324 15.3819L13.3326 17.2152C13.4144 17.2148 13.5353 17.2044 13.6582 17.1663L13.1149 15.4153ZM13.3237 15.3819C13.2184 15.3824 13.1236 15.4007 13.0942 15.4063C13.0448 15.4157 12.9942 15.4273 12.9479 15.4389C12.8591 15.4611 12.7489 15.4926 12.6518 15.5284L13.286 17.2486C13.2906 17.2469 13.3043 17.2422 13.3266 17.2355C13.3479 17.2291 13.3711 17.2228 13.3929 17.2174C13.4156 17.2117 13.4305 17.2085 13.436 17.2075C13.4388 17.207 13.434 17.208 13.4234 17.2094C13.4178 17.2101 13.408 17.2113 13.3949 17.2125C13.3828 17.2135 13.3611 17.2151 13.333 17.2152L13.3237 15.3819ZM12.6518 15.5284C12.4489 15.6032 12.1984 15.7413 12.0261 15.877L13.1607 17.3171C13.1556 17.3211 13.1586 17.3184 13.1717 17.3099C13.1839 17.3021 13.1996 17.2926 13.2175 17.2826C13.2354 17.2727 13.2524 17.264 13.2667 17.2572C13.2819 17.25 13.2884 17.2477 13.286 17.2486L12.6518 15.5284ZM12.026 15.8771C11.855 16.0118 11.6567 16.233 11.5407 16.4121L13.0795 17.4087C13.0751 17.4154 13.0767 17.4123 13.0871 17.3992C13.0964 17.3874 13.1087 17.3729 13.1226 17.3575C13.1366 17.342 13.1493 17.3289 13.1591 17.3194C13.1703 17.3086 13.1708 17.3091 13.1608 17.317L12.026 15.8771ZM11.5407 16.4121C11.1228 17.0573 11.0616 17.9218 11.3742 18.6205L13.0477 17.8717C12.9854 17.7326 13.0037 17.5257 13.0795 17.4087L11.5407 16.4121ZM11.3743 18.6206C11.4582 18.8082 11.5433 18.9292 11.6661 19.0733L13.0615 17.8842C13.0462 17.8663 13.0385 17.8567 13.0348 17.852C13.0317 17.848 13.0337 17.8502 13.038 17.8568C13.0401 17.86 13.0423 17.8636 13.0446 17.8674C13.0468 17.8712 13.0486 17.8744 13.0499 17.8768C13.0523 17.8814 13.0519 17.8811 13.0476 17.8716L11.3743 18.6206ZM11.666 19.0733C12.0175 19.4858 12.4315 19.6882 12.9698 19.8714L13.5604 18.1358C13.3467 18.0631 13.2356 18.012 13.1704 17.974C13.119 17.9441 13.0923 17.9204 13.0615 17.8842L11.666 19.0733ZM12.9699 19.8714L13.1102 19.9191L13.7006 18.1835L13.5603 18.1358L12.9699 19.8714ZM12.4888 19.0545L12.4915 19.8582L14.3249 19.8519L14.3221 19.0482L12.4888 19.0545ZM12.4915 19.8583L12.4943 20.662L14.3276 20.6557L14.3249 19.8519L12.4915 19.8583ZM13.5954 19.7609L13.5548 19.7526L13.186 21.5485L13.2266 21.5568L13.5954 19.7609ZM13.5549 19.7526C13.4129 19.7234 13.2928 19.6666 13.1556 19.5457L11.9435 20.9211C12.3056 21.2403 12.7124 21.4511 13.1859 21.5484L13.5549 19.7526ZM13.1556 19.5457C13.1068 19.5026 13.054 19.4604 13.0034 19.4239C12.9784 19.4059 12.9464 19.3837 12.9102 19.3616C12.893 19.3511 12.8063 19.2969 12.69 19.2595L12.1284 21.0047C12.0936 20.9935 12.0659 20.9822 12.0475 20.9742C12.0283 20.9658 12.0127 20.9582 12.0014 20.9524C11.9794 20.9411 11.9634 20.9316 11.9552 20.9266C11.9461 20.921 11.9398 20.9168 11.9365 20.9147C11.9331 20.9123 11.931 20.9109 11.9305 20.9105C11.9296 20.9099 11.9313 20.911 11.9347 20.9138C11.9381 20.9165 11.9412 20.9191 11.9435 20.9211L13.1556 19.5457ZM12.6904 19.2597C11.7884 18.9689 11.1741 19.7355 11.1195 20.3539L12.9458 20.5151C12.935 20.6375 12.8742 20.7837 12.7351 20.8954C12.5887 21.0129 12.3609 21.0797 12.128 21.0046L12.6904 19.2597ZM11.1195 20.3539C11.1027 20.5452 11.1219 20.7662 11.225 20.9927C11.32 21.2012 11.4575 21.3496 11.5653 21.4498L12.8134 20.1069C12.7949 20.0897 12.8481 20.1332 12.8934 20.2325C12.9468 20.3499 12.9509 20.4576 12.9458 20.5151L11.1195 20.3539ZM11.5653 21.4498C12.0269 21.8788 12.6056 22.1559 13.2333 22.2161L13.4083 20.3911C13.2128 20.3724 13.0038 20.2839 12.8134 20.1069L11.5653 21.4498ZM13.2334 22.2161L13.3215 22.2246L13.4964 20.3996L13.4083 20.3911L13.2334 22.2161ZM12.4924 21.3259L12.4962 21.578L14.3293 21.5504L14.3255 21.2983L12.4924 21.3259ZM12.4962 21.578C12.4984 21.7254 12.4855 21.9846 12.6073 22.2508L14.2745 21.4883C14.276 21.4915 14.2822 21.5051 14.2896 21.5245C14.2975 21.5453 14.3056 21.5695 14.3129 21.5964C14.3273 21.65 14.3314 21.6902 14.3325 21.7016C14.333 21.7073 14.333 21.7086 14.3327 21.7035C14.3325 21.6986 14.3321 21.69 14.3317 21.6763C14.3309 21.648 14.3302 21.6089 14.3293 21.5504L12.4962 21.578ZM12.6072 22.2507C12.8999 22.8908 13.8313 23.2058 14.4393 22.5863L13.1309 21.3021C13.3393 21.0898 13.6074 21.0588 13.7935 21.0992C13.9798 21.1396 14.173 21.2664 14.2745 21.4883L12.6072 22.2507ZM14.4393 22.5863C14.4732 22.5518 14.5478 22.4742 14.6148 22.3617C14.688 22.2391 14.728 22.1175 14.75 22.0079C14.7826 21.8456 14.7805 21.6618 14.7806 21.5528L12.9473 21.5511C12.9472 21.6222 12.9467 21.6613 12.9457 21.6856C12.9445 21.7128 12.9438 21.6902 12.9525 21.6469C12.9638 21.5907 12.9886 21.5093 13.0403 21.4226C13.0636 21.3835 13.0865 21.3534 13.1034 21.3329C13.1192 21.3139 13.1308 21.3022 13.131 21.302L14.4393 22.5863ZM14.7806 21.5528L14.7808 21.301L12.9475 21.2992L12.9473 21.5511L14.7806 21.5528ZM13.9517 22.2126L14.0408 22.204L13.8657 20.3791L13.7766 20.3876L13.9517 22.2126ZM14.0408 22.204C14.7587 22.1352 15.4391 21.7421 15.8049 21.0899L14.206 20.193C14.166 20.2643 14.0536 20.3611 13.8657 20.3791L14.0408 22.204ZM15.8049 21.0899C16.119 20.5301 16.1996 19.7892 16.0306 19.1746L14.2629 19.6607C14.3086 19.8266 14.2757 20.0688 14.206 20.193L15.8049 21.0899ZM16.0307 19.1746C15.789 18.2959 15.1038 17.8291 14.291 17.5613L13.7173 19.3025C13.9819 19.3897 14.1135 19.4718 14.1775 19.527C14.2264 19.5692 14.2473 19.604 14.2629 19.6607L16.0307 19.1746ZM14.291 17.5613L14.151 17.5151L13.5773 19.2564L13.7173 19.3025L14.291 17.5613ZM14.7808 18.3858V17.6804H12.9475V18.3858H14.7808ZM14.7808 17.6804C14.7808 17.4888 14.7817 17.3162 14.7832 17.1928C14.7839 17.1305 14.7847 17.0843 14.7855 17.0556C14.7859 17.0398 14.7861 17.0365 14.7859 17.0406C14.7858 17.0423 14.7856 17.0462 14.7852 17.0516C14.7848 17.0563 14.784 17.067 14.7824 17.0812C14.7816 17.0881 14.7774 17.1276 14.7661 17.1776C14.7622 17.1951 14.7461 17.2672 14.7074 17.3528C14.6896 17.3922 14.6429 17.4901 14.5508 17.5915C14.4614 17.6899 14.23 17.8959 13.862 17.8918L13.8826 16.0586C13.5145 16.0545 13.283 16.2605 13.1936 16.359C13.1014 16.4605 13.0546 16.5585 13.0367 16.598C12.9978 16.684 12.9817 16.7565 12.9776 16.7746C12.9661 16.8258 12.9616 16.8672 12.9605 16.8765C12.9573 16.9054 12.9559 16.9298 12.9554 16.9385C12.9541 16.9615 12.9533 16.986 12.9528 17.006C12.9516 17.049 12.9507 17.1064 12.9499 17.1718C12.9484 17.3041 12.9475 17.4841 12.9475 17.6804H14.7808ZM13.8623 17.8918C13.8255 17.8914 13.7962 17.8888 13.779 17.887C13.7605 17.8851 13.7454 17.8829 13.7352 17.8813C13.7153 17.8781 13.7006 17.875 13.6939 17.8736C13.6805 17.8707 13.6734 17.8687 13.676 17.8694C13.6799 17.8704 13.6924 17.874 13.7119 17.8801C13.7304 17.8859 13.7494 17.8922 13.7654 17.8977C13.7732 17.9005 13.7791 17.9026 13.7828 17.904C13.7871 17.9056 13.786 17.9053 13.7808 17.9031L14.4873 16.2113C14.4127 16.1802 14.3212 16.1498 14.26 16.1306C14.2258 16.1199 14.1875 16.1084 14.151 16.0986C14.1334 16.0939 14.1087 16.0876 14.0812 16.0816C14.0798 16.0813 13.99 16.0598 13.8823 16.0586L13.8623 17.8918ZM13.7808 17.9031C13.8084 17.9146 13.8922 17.9613 13.9624 18.016L15.0883 16.569C14.9162 16.4351 14.6929 16.2972 14.4873 16.2113L13.7808 17.9031ZM13.9624 18.0159C14.0288 18.0676 14.1651 18.1719 14.3464 18.2379C14.5759 18.3215 14.7831 18.3137 14.9412 18.2844L14.6068 16.4818C14.6329 16.4769 14.6876 16.4688 14.7598 16.4723C14.8364 16.476 14.9091 16.4917 14.9738 16.5153C15.0335 16.537 15.0733 16.5607 15.0883 16.5702C15.1024 16.5791 15.1047 16.5819 15.0883 16.5691L13.9624 18.0159ZM14.9412 18.2844C15.3857 18.2019 15.676 17.8944 15.8164 17.6033C15.9584 17.3088 16.0016 16.9293 15.855 16.5641L14.1536 17.2469C14.0863 17.0793 14.1102 16.9207 14.1651 16.8068C14.2185 16.6961 14.354 16.5287 14.6068 16.4818L14.9412 18.2844ZM15.855 16.5641C15.7238 16.2372 15.4844 16.053 15.3392 15.94L14.2134 17.3869C14.2447 17.4113 14.263 17.4264 14.2735 17.4354C14.2842 17.4445 14.2797 17.4414 14.268 17.429C14.2548 17.4151 14.2327 17.3895 14.2088 17.3528C14.1841 17.3148 14.1661 17.278 14.1536 17.2469L15.855 16.5641ZM15.3392 15.94C14.9747 15.6564 14.518 15.4556 14.0532 15.4032L13.8479 17.225C13.9439 17.2358 14.0876 17.2891 14.2134 17.3869L15.3392 15.94ZM14.0533 15.4032L13.9723 15.3941L13.7668 17.2159L13.8478 17.225L14.0533 15.4032ZM14.786 16.2858L14.7804 16.0165L12.9475 16.0548L12.9531 16.3241L14.786 16.2858ZM14.7804 16.0166C14.778 15.8988 14.7754 15.7506 14.7564 15.6265C14.7445 15.5482 14.7218 15.4449 14.6717 15.3324C14.6203 15.2168 14.5591 15.1347 14.522 15.0884L13.0916 16.2352C13.0773 16.2174 13.0339 16.1613 12.9966 16.0774C12.9607 15.9966 12.9483 15.9307 12.9442 15.9037C12.9408 15.8818 12.9418 15.8769 12.9433 15.9103C12.9448 15.9409 12.946 15.985 12.9475 16.0548L14.7804 16.0166ZM14.5221 15.0886C14.3262 14.8441 14.0629 14.7276 13.8431 14.6866C13.6251 14.646 13.3278 14.6574 13.049 14.8284L14.0073 16.3913C13.8111 16.5117 13.622 16.5103 13.5071 16.4889C13.3904 16.4671 13.2251 16.4019 13.0915 16.2351L14.5221 15.0886ZM12.4941 17.6V18.25H14.3275V17.6H12.4941ZM13.7273 17.3897L13.649 17.3609L13.0161 19.0816L13.0944 19.1103L13.7273 17.3897ZM13.6489 17.3609C13.5976 17.342 13.5607 17.3263 13.535 17.3141C13.5091 17.3018 13.4993 17.2953 13.5003 17.296C13.5028 17.2976 13.5661 17.3402 13.6205 17.4397L12.0117 18.3189C12.2558 18.7655 12.7036 18.9667 13.0162 19.0816L13.6489 17.3609ZM13.6204 17.4396C13.6723 17.5345 13.6716 17.6131 13.6657 17.6535C13.6595 17.6955 13.6408 17.7475 13.5932 17.7992L12.2448 16.5571C11.8285 17.009 11.6907 17.7317 12.0118 18.319L13.6204 17.4396ZM13.5932 17.7992C13.5745 17.8195 13.5602 17.8305 13.5538 17.8352C13.5469 17.8401 13.5419 17.8429 13.5381 17.8448C13.5344 17.8466 13.5264 17.8502 13.5126 17.8542C13.4999 17.8578 13.4718 17.8648 13.4295 17.867L13.3328 16.0362C12.9181 16.0581 12.506 16.2736 12.2448 16.557L13.5932 17.7992ZM13.4294 17.867L13.4591 17.8655L13.3625 16.0347L13.3328 16.0362L13.4294 17.867ZM12.4941 16.9501V17.6H14.3275V16.9501H12.4941ZM13.662 20.112C13.7013 20.1278 13.726 20.1402 13.7399 20.148C13.7537 20.1557 13.7535 20.157 13.745 20.15C13.736 20.1425 13.7191 20.1268 13.7002 20.1018C13.681 20.0762 13.6644 20.0469 13.652 20.0161L15.3523 19.3305C15.1479 18.8235 14.7229 18.5632 14.3486 18.412L13.662 20.112ZM13.652 20.0162C13.6396 19.9854 13.6341 19.9546 13.6335 19.9286C13.6329 19.9037 13.6371 19.8918 13.6359 19.8956L15.3905 20.427C15.4953 20.0812 15.5008 19.6986 15.3523 19.3305L13.652 20.0162ZM13.6359 19.8956C13.6562 19.8286 13.6895 19.7938 13.7058 19.7801C13.7228 19.7657 13.741 19.7571 13.7625 19.7532L14.09 21.5571C14.6646 21.4527 15.2047 21.0405 15.3905 20.427L13.6359 19.8956ZM13.7624 19.7532L13.7004 19.7645L14.028 21.5683L14.0901 21.5571L13.7624 19.7532ZM14.7808 20.6664V19.9418H12.9475V20.6664H14.7808ZM14.7808 19.9418C14.7808 19.6318 14.7815 19.4614 14.7834 19.3686C14.7845 19.316 14.7856 19.3159 14.7836 19.3363C14.7835 19.3366 14.778 19.4044 14.7518 19.4904C14.7404 19.5279 14.7036 19.6441 14.6108 19.7681C14.5068 19.9069 14.265 20.1339 13.8793 20.1339V18.3006C13.492 18.3006 13.2487 18.5284 13.1433 18.6692C13.049 18.795 13.0108 18.9143 12.9981 18.956C12.9693 19.0504 12.9616 19.1317 12.9595 19.152C12.9534 19.2124 12.9516 19.2785 12.9505 19.3303C12.948 19.4464 12.9475 19.6384 12.9475 19.9418H14.7808ZM13.8793 20.1339C13.8362 20.1339 13.8014 20.1308 13.78 20.1285C13.7573 20.1259 13.7384 20.123 13.7252 20.1207C13.6993 20.1162 13.6791 20.1115 13.6683 20.1089C13.6464 20.1036 13.6307 20.0988 13.626 20.0974C13.615 20.094 13.6104 20.0923 13.6156 20.0941C13.624 20.0971 13.6412 20.1035 13.6621 20.112L14.3486 18.412C14.3085 18.3958 14.2668 18.3799 14.2295 18.3666C14.2119 18.3604 14.1878 18.352 14.1619 18.3441C14.1497 18.3404 14.1277 18.3339 14.101 18.3274C14.0877 18.3241 14.0654 18.319 14.0377 18.3142C14.0181 18.3108 13.9574 18.3006 13.8793 18.3006V20.1339Z" fill="#3186D6" mask="url(#path-6-inside-1_2_1236)"/>
<path d="M19.1626 17.417H27.8594" stroke="#3186D6" stroke-width="0.916667"/>
<path d="M19.1626 21.0835H23.9172" stroke="#3186D6" stroke-width="0.916667"/>
<path d="M19.1626 19.0938H25.6852" stroke="#3186D6" stroke-width="0.916667"/>
<path d="M33 35.1938C33.1853 35.2118 34.1834 35.2588 34.3305 35.377L34.5763 35.5707L34.6135 36.6991C34.6507 37.734 34.6656 37.8476 34.8443 38.1881C35.2539 38.9559 36.0284 39.41 36.9518 39.4167C37.2422 39.4167 37.622 39.3766 37.7933 39.3365C38.4114 39.1763 39.1337 38.5286 39.3199 37.9677C39.3943 37.7474 39.4167 35.5506 39.4167 27.3712C39.4167 18.3104 39.4018 17.0351 39.305 16.9149C39.2454 16.8415 38.4188 16.0937 37.4656 15.2657C35.7752 13.7767 35.738 13.75 35.4326 13.75C35.1795 13.75 35.0752 13.7901 34.8667 13.977C34.6582 14.164 34.6135 14.2508 34.6135 14.4912C34.6135 14.7714 34.6358 14.7916 36.0252 16.0507L36.0284 16.0536L37.4433 17.3222L36.1326 18.4907C35.4177 19.1317 34.7773 19.7393 34.7178 19.8395C34.5614 20.1066 34.5688 22.517 34.7326 23.0645C35.0454 24.1662 36.1699 25.0543 37.3688 25.1478L37.8156 25.1878V31.1705C37.8156 35.0632 37.7858 37.2399 37.7411 37.4002C37.5326 38.0545 36.5869 38.108 36.3188 37.4736C36.2816 37.3868 36.2518 36.8927 36.2518 36.3853C36.2518 35.5974 36.2294 35.3971 36.0954 35.0766C35.8869 34.5758 35.4326 34.1418 34.8741 33.9081C34.5212 33.7588 33.454 33.7217 33 33.7155V35.1938Z" fill="white"/>
<path d="M33 35.1938C33.1853 35.2118 34.1834 35.2588 34.3305 35.377L34.5763 35.5707L34.6135 36.6991C34.6507 37.734 34.6656 37.8476 34.8443 38.1881C35.2539 38.9559 36.0284 39.41 36.9518 39.4167C37.2422 39.4167 37.622 39.3766 37.7933 39.3365C38.4114 39.1763 39.1337 38.5286 39.3199 37.9677C39.3943 37.7474 39.4167 35.5506 39.4167 27.3712C39.4167 18.3104 39.4018 17.0351 39.305 16.9149C39.2454 16.8415 38.4188 16.0937 37.4656 15.2657C35.7752 13.7767 35.738 13.75 35.4326 13.75C35.1795 13.75 35.0752 13.7901 34.8667 13.977C34.6582 14.164 34.6135 14.2508 34.6135 14.4912C34.6135 14.7714 34.6358 14.7916 36.0252 16.0507L36.0284 16.0536L37.4433 17.3222L36.1326 18.4907C35.4177 19.1317 34.7773 19.7393 34.7178 19.8395C34.5614 20.1066 34.5688 22.517 34.7326 23.0645C35.0454 24.1662 36.1699 25.0543 37.3688 25.1478L37.8156 25.1878V31.1705C37.8156 35.0632 37.7858 37.2399 37.7411 37.4002C37.5326 38.0545 36.5869 38.108 36.3188 37.4736C36.2816 37.3868 36.2518 36.8927 36.2518 36.3853C36.2518 35.5974 36.2294 35.3971 36.0954 35.0766C35.8869 34.5758 35.4326 34.1418 34.8741 33.9081C34.5212 33.7588 33.454 33.7217 33 33.7155V35.1938Z" fill="url(#paint1_linear_2_1236)"/>
<path d="M33 35.1938C33.1853 35.2118 34.1834 35.2588 34.3305 35.377L34.5763 35.5707L34.6135 36.6991C34.6507 37.734 34.6656 37.8476 34.8443 38.1881C35.2539 38.9559 36.0284 39.41 36.9518 39.4167C37.2422 39.4167 37.622 39.3766 37.7933 39.3365C38.4114 39.1763 39.1337 38.5286 39.3199 37.9677C39.3943 37.7474 39.4167 35.5506 39.4167 27.3712C39.4167 18.3104 39.4018 17.0351 39.305 16.9149C39.2454 16.8415 38.4188 16.0937 37.4656 15.2657C35.7752 13.7767 35.738 13.75 35.4326 13.75C35.1795 13.75 35.0752 13.7901 34.8667 13.977C34.6582 14.164 34.6135 14.2508 34.6135 14.4912C34.6135 14.7714 34.6358 14.7916 36.0252 16.0507L36.0284 16.0536L37.4433 17.3222L36.1326 18.4907C35.4177 19.1317 34.7773 19.7393 34.7178 19.8395C34.5614 20.1066 34.5688 22.517 34.7326 23.0645C35.0454 24.1662 36.1699 25.0543 37.3688 25.1478L37.8156 25.1878V31.1705C37.8156 35.0632 37.7858 37.2399 37.7411 37.4002C37.5326 38.0545 36.5869 38.108 36.3188 37.4736C36.2816 37.3868 36.2518 36.8927 36.2518 36.3853C36.2518 35.5974 36.2294 35.3971 36.0954 35.0766C35.8869 34.5758 35.4326 34.1418 34.8741 33.9081C34.5212 33.7588 33.454 33.7217 33 33.7155V35.1938Z" fill="url(#paint2_linear_2_1236)"/>
</g>
<defs>
<linearGradient id="paint0_linear_2_1236" x1="19.9549" y1="10.2227" x2="19.9549" y2="47.505" gradientUnits="userSpaceOnUse">
<stop stop-color="white"/>
<stop offset="0.578125" stop-color="#AAD6FF"/>
<stop offset="1" stop-color="#3A9EFC"/>
</linearGradient>
<linearGradient id="paint1_linear_2_1236" x1="36.2083" y1="13.75" x2="36.2083" y2="39.4167" gradientUnits="userSpaceOnUse">
<stop stop-color="white"/>
<stop offset="0.578125" stop-color="#FFEBA9"/>
<stop offset="1" stop-color="#F0AF08"/>
</linearGradient>
<linearGradient id="paint2_linear_2_1236" x1="36.2083" y1="13.75" x2="36.2083" y2="39.4167" gradientUnits="userSpaceOnUse">
<stop stop-color="white"/>
<stop offset="0.578125" stop-color="#AAD6FF"/>
<stop offset="1" stop-color="#3A9EFC"/>
</linearGradient>
</defs>
</svg>
