<svg width="21" height="18" viewBox="0 0 21 18" fill="none" xmlns="http://www.w3.org/2000/svg">
<path fill-rule="evenodd" clip-rule="evenodd" d="M19.5 9C19.5 13.1456 16.1485 16.5 12.022 16.5C10.4051 16.5 9.64855 16.09 7.89353 15.139L7.89352 15.139C7.73402 15.0526 7.56628 14.9617 7.3889 14.8663C7.33727 14.8385 7.27858 14.8234 7.21995 14.8234C6.41349 14.8234 6.01574 15.7379 6.66178 16.2206C8.15771 17.3384 10.0128 18 12.022 18C16.9804 18 21 13.9706 21 9C21 4.02944 16.9804 0 12.022 0C7.06355 0 3.04395 4.02944 3.04395 9C3.04395 9.35275 3.06419 9.70077 3.10358 10.0429L1.53033 8.46969C1.23744 8.1768 0.762563 8.1768 0.46967 8.46969C0.176777 8.76259 0.176777 9.23746 0.46967 9.53035L3.30041 12.3611C3.67611 12.7368 4.28988 12.7583 4.68822 12.384C5.32408 11.7865 7.05121 10.1218 7.58047 9.47495C7.84276 9.15437 7.79551 8.68185 7.47493 8.41955C7.15434 8.15726 6.68183 8.20451 6.41953 8.52509C6.13031 8.87858 5.35596 9.65441 4.66135 10.3313C4.58421 9.89928 4.54395 9.45439 4.54395 9C4.54395 4.85441 7.89543 1.5 12.022 1.5C16.1485 1.5 19.5 4.85441 19.5 9ZM12.75 5C12.75 4.58579 12.4142 4.25 12 4.25C11.5858 4.25 11.25 4.58579 11.25 5V9C11.25 9.22259 11.3489 9.43367 11.5199 9.57617L14.5199 12.0762C14.8381 12.3413 15.311 12.2983 15.5762 11.9801C15.8413 11.6619 15.7983 11.189 15.4801 10.9238L13.0199 8.8736C12.8489 8.73111 12.75 8.52002 12.75 8.29744V5Z" fill="#82869E"/>
</svg>
