<svg width="19" height="19" viewBox="0 0 19 19" fill="none" xmlns="http://www.w3.org/2000/svg">
<path d="M9.47461 5.77368V9.5612L11.3684 11.455" stroke="black" stroke-width="1.66667" stroke-linecap="round" stroke-linejoin="round"/>
<path d="M1 8.61439C1.21219 6.5313 2.18385 4.59925 3.7296 3.18683C5.27536 1.77442 7.287 0.980525 9.38072 0.956611C11.4744 0.932697 13.5037 1.68044 15.0813 3.05718C16.6589 4.43391 17.6745 6.34327 17.9342 8.42097C18.1939 10.4987 17.6796 12.5992 16.4894 14.322C15.2992 16.0447 13.5165 17.2689 11.4813 17.7611C9.4461 18.2533 7.30093 17.979 5.45507 16.9906C3.60921 16.0021 2.19186 14.3687 1.47344 12.4019M1 17.1363V12.4019H5.7344" stroke="black" stroke-width="1.66667" stroke-linecap="round" stroke-linejoin="round"/>
</svg>
