<svg width="22" height="22" viewBox="0 0 22 22" fill="none" xmlns="http://www.w3.org/2000/svg">
<path fill-rule="evenodd" clip-rule="evenodd" d="M10.4374 1.10972C10.7684 0.852261 11.2319 0.852261 11.5629 1.10972L19.8129 7.52639C20.0362 7.70005 20.1668 7.96708 20.1668 8.24996V18.3333C20.1668 19.0626 19.8771 19.7621 19.3614 20.2778C18.8456 20.7936 18.1462 21.0833 17.4168 21.0833H4.5835C3.85415 21.0833 3.15468 20.7936 2.63895 20.2778C2.12323 19.7621 1.8335 19.0626 1.8335 18.3333V8.24996C1.8335 7.96708 1.9641 7.70005 2.18738 7.52639L10.4374 1.10972ZM3.66683 8.69829V18.3333C3.66683 18.5764 3.76341 18.8096 3.93531 18.9815C4.10722 19.1534 4.34038 19.25 4.5835 19.25H17.4168C17.6599 19.25 17.8931 19.1534 18.065 18.9815C18.2369 18.8096 18.3335 18.5764 18.3335 18.3333V8.69829L11.0002 2.99458L3.66683 8.69829Z" fill="#FF8181"/>
<path fill-rule="evenodd" clip-rule="evenodd" d="M12.5415 11.8462C14.9103 10.5723 17.6768 10.6236 19.4886 11.0262L19.0114 13.1738C17.5232 12.8431 15.3397 12.8393 13.5835 13.7838C11.9318 14.6721 10.45 16.5094 10.45 20.35H8.25C8.25 15.8306 10.0682 13.1763 12.5415 11.8462Z" fill="#FF8181"/>
</svg>
