<svg width="20" height="20" viewBox="0 0 20 20" fill="none" xmlns="http://www.w3.org/2000/svg">
<path fill-rule="evenodd" clip-rule="evenodd" d="M2.08725 7.46959L9.02048 1.81041C9.52499 1.39809 10.4608 1.39293 10.9808 1.81894L17.9088 7.46359L17.9103 7.46482C18.0396 7.57169 18.2247 7.81582 18.3592 8.17506C18.4931 8.53288 18.518 8.84804 18.4894 9.03012L18.4891 9.03222L17.1609 17.134L17.1605 17.1359C17.0365 17.8717 16.274 18.5 15.6008 18.5H4.40253C3.7177 18.5 2.96689 17.8803 2.84296 17.1367L2.84278 17.1357L1.51346 9.0268L1.51192 9.01779C1.48189 8.8413 1.50365 8.53052 1.63671 8.17506C1.77009 7.81876 1.95587 7.57602 2.08725 7.46959ZM19.9702 9.26948C20.1302 8.27081 19.6302 6.93587 18.8603 6.30406L11.9314 0.658562C10.8616 -0.217815 9.13182 -0.217815 8.07198 0.648372L1.14302 6.30406C0.36314 6.93587 -0.136785 8.27081 0.0331897 9.26948L1.36299 17.3811C1.60295 18.8281 2.96275 20 4.40253 20H15.6008C17.0306 20 18.4004 18.8179 18.6404 17.3811L19.9702 9.26948ZM10.75 13C10.75 12.5858 10.4142 12.25 10 12.25C9.58579 12.25 9.25 12.5858 9.25 13V16C9.25 16.4142 9.58579 16.75 10 16.75C10.4142 16.75 10.75 16.4142 10.75 16V13Z" fill="#FFC709"/>
</svg>
