<svg width="22" height="22" viewBox="0 0 22 22" fill="none" xmlns="http://www.w3.org/2000/svg">
<path fill-rule="evenodd" clip-rule="evenodd" d="M10.4374 1.10984C10.7684 0.852383 11.2319 0.852383 11.5629 1.10984L19.8129 7.52651C20.0362 7.70018 20.1668 7.96721 20.1668 8.25008V18.3334C20.1668 19.0628 19.8771 19.7622 19.3614 20.278C18.8456 20.7937 18.1462 21.0834 17.4168 21.0834H4.5835C3.85415 21.0834 3.15468 20.7937 2.63895 20.278C2.12323 19.7622 1.8335 19.0628 1.8335 18.3334V8.25008C1.8335 7.96721 1.9641 7.70018 2.18738 7.52651L10.4374 1.10984ZM3.66683 8.69841V18.3334C3.66683 18.5765 3.76341 18.8097 3.93531 18.9816C4.10722 19.1535 4.34038 19.2501 4.5835 19.2501H17.4168C17.6599 19.2501 17.8931 19.1535 18.065 18.9816C18.2369 18.8097 18.3335 18.5765 18.3335 18.3334V8.69841L11.0002 2.9947L3.66683 8.69841Z" fill="black"/>
<path fill-rule="evenodd" clip-rule="evenodd" d="M12.5415 11.8461C14.9103 10.5722 17.6768 10.6234 19.4886 11.0261L19.0114 13.1737C17.5232 12.843 15.3397 12.8392 13.5835 13.7837C11.9318 14.6719 10.45 16.5093 10.45 20.3499H8.25C8.25 15.8305 10.0682 13.1762 12.5415 11.8461Z" fill="black"/>
</svg>
