<svg width="21" height="20" viewBox="0 0 21 20" fill="none" xmlns="http://www.w3.org/2000/svg">
<path fill-rule="evenodd" clip-rule="evenodd" d="M2.83725 7.46959L9.77048 1.81041C10.275 1.39809 11.2108 1.39293 11.7308 1.81894L18.6588 7.46359L18.6603 7.46482C18.7896 7.57169 18.9747 7.81582 19.1092 8.17506C19.2431 8.53288 19.268 8.84804 19.2394 9.03012L19.2391 9.03222L17.9109 17.134L17.9105 17.1359C17.7865 17.8717 17.024 18.5 16.3508 18.5H5.15253C4.4677 18.5 3.71689 17.8803 3.59296 17.1367L3.59278 17.1357L2.26346 9.0268L2.26192 9.01779C2.23189 8.8413 2.25365 8.53052 2.38671 8.17506C2.52009 7.81876 2.70587 7.57602 2.83725 7.46959ZM20.7202 9.26948C20.8802 8.27081 20.3802 6.93587 19.6103 6.30406L12.6814 0.658562C11.6116 -0.217815 9.88182 -0.217815 8.82198 0.648372L1.89302 6.30406C1.11314 6.93587 0.613215 8.27081 0.78319 9.26948L2.11299 17.3811C2.35295 18.8281 3.71275 20 5.15253 20H16.3508C17.7806 20 19.1504 18.8179 19.3904 17.3811L20.7202 9.26948ZM11.5 13C11.5 12.5858 11.1642 12.25 10.75 12.25C10.3358 12.25 10 12.5858 10 13V16C10 16.4142 10.3358 16.75 10.75 16.75C11.1642 16.75 11.5 16.4142 11.5 16V13Z" fill="#1B1D29"/>
</svg>
