<svg width="16" height="16" viewBox="0 0 16 16" fill="none" xmlns="http://www.w3.org/2000/svg">
<path d="M1.83341 16C1.37702 16 0.986469 15.8261 0.661745 15.4782C0.33702 15.1304 0.174381 14.7117 0.173828 14.2222V1.77778C0.173828 1.28889 0.336467 0.870518 0.661745 0.522667C0.987022 0.174815 1.37758 0.000592593 1.83341 0H13.4505C13.9069 0 14.2977 0.174222 14.623 0.522667C14.9482 0.871111 15.1106 1.28948 15.1101 1.77778V14.2222C15.1101 14.7111 14.9477 15.1298 14.623 15.4782C14.2982 15.8267 13.9074 16.0006 13.4505 16H1.83341ZM2.6632 12.4444H12.6207L9.50897 8L7.0196 11.5556L5.15257 8.88889L2.6632 12.4444Z" fill="white"/>
</svg>
