<svg width="20" height="20" viewBox="0 0 20 20" fill="none" xmlns="http://www.w3.org/2000/svg">
<path fill-rule="evenodd" clip-rule="evenodd" d="M4.1665 9.99999C3.70627 9.99999 3.33317 10.3731 3.33317 10.8333V16.6667C3.33317 17.1269 3.70627 17.5 4.1665 17.5H15.8332C16.2934 17.5 16.6665 17.1269 16.6665 16.6667V10.8333C16.6665 10.3731 16.2934 9.99999 15.8332 9.99999H4.1665ZM1.6665 10.8333C1.6665 9.45262 2.78579 8.33333 4.1665 8.33333H15.8332C17.2139 8.33333 18.3332 9.45262 18.3332 10.8333V16.6667C18.3332 18.0474 17.2139 19.1667 15.8332 19.1667H4.1665C2.78579 19.1667 1.6665 18.0474 1.6665 16.6667V10.8333Z" fill="#6360FF"/>
<path fill-rule="evenodd" clip-rule="evenodd" d="M10 2.49999C9.11594 2.49999 8.2681 2.85118 7.64298 3.47631C7.01786 4.10143 6.66667 4.94927 6.66667 5.83333V9.16666C6.66667 9.6269 6.29357 10 5.83333 10C5.3731 10 5 9.6269 5 9.16666V5.83333C5 4.50725 5.52678 3.23548 6.46447 2.29779C7.40215 1.36011 8.67392 0.833328 10 0.833328C11.3261 0.833328 12.5979 1.36011 13.5355 2.29779C14.4732 3.23548 15 4.50725 15 5.83333V9.16666C15 9.6269 14.6269 10 14.1667 10C13.7064 10 13.3333 9.6269 13.3333 9.16666V5.83333C13.3333 4.94927 12.9821 4.10143 12.357 3.47631C11.7319 2.85118 10.8841 2.49999 10 2.49999Z" fill="#6360FF"/>
</svg>
