<svg width="40" height="40" viewBox="0 0 40 40" fill="none" xmlns="http://www.w3.org/2000/svg">
<path d="M24.5375 17.428C22.9477 20.1489 21.1068 22.7159 20 24.1951C18.8932 22.7159 17.0523 20.1489 15.4625 17.428C14.6282 16.0001 13.8768 14.553 13.3371 13.2145C12.7889 11.855 12.5 10.7056 12.5 9.84375C12.5 4.95491 15.9921 1.25 20 1.25C24.0079 1.25 27.5 4.95491 27.5 9.84375C27.5 10.7056 27.2111 11.855 26.6629 13.2145C26.1232 14.553 25.3718 16.0001 24.5375 17.428ZM14.5833 34.133V24.9354C15.2157 25.8389 15.85 26.7084 16.4659 27.526C17.3147 28.6535 18.596 29.3492 20 29.3492C21.4039 29.3492 22.6849 28.6536 23.5337 27.5273C24.15 26.7095 24.7844 25.8399 25.4167 24.9363V38.1955L14.5833 34.133ZM1.91015 18.011L1.39722 16.8711L1.91016 18.011L8.90226 14.8647C9.18045 15.5941 9.50261 16.3335 9.86111 17.0785V34.2357L1.25 38.6451V19.1924C1.25 19.1924 1.25 19.1923 1.25 19.1922C1.2501 18.9114 1.32554 18.6475 1.45323 18.4353C1.58042 18.224 1.74592 18.0849 1.91015 18.011ZM38.0901 34.4889L38.0898 34.489L30.1389 38.0668V18.2643L38.75 13.8549L38.75 33.3078C38.75 33.5886 38.6746 33.8526 38.5469 34.0648C38.4197 34.276 38.2543 34.4151 38.0901 34.4889ZM15.8333 9.84375C15.8333 12.2041 17.5642 14.375 20 14.375C22.4358 14.375 24.1667 12.2041 24.1667 9.84375C24.1667 7.48337 22.4358 5.3125 20 5.3125C17.5642 5.3125 15.8333 7.48337 15.8333 9.84375Z" stroke="#613023" stroke-width="2.5"/>
</svg>
