<svg width="20" height="20" viewBox="0 0 20 20" fill="none" xmlns="http://www.w3.org/2000/svg">
<path d="M14.1416 15.0468L15.1308 14.0684C16.1455 13.0537 16.8365 11.7608 17.1164 10.3533C17.3964 8.94583 17.2526 7.48695 16.7034 6.16115C16.1543 4.83535 15.2243 3.70218 14.031 2.90492C12.8378 2.10766 11.435 1.68213 9.99998 1.68213C8.56493 1.68213 7.16211 2.10766 5.96891 2.90492C4.7757 3.70218 3.8457 4.83535 3.29651 6.16115C2.74732 7.48695 2.6036 8.94583 2.88352 10.3533C3.16345 11.7608 3.85445 13.0537 4.86914 14.0684C5.11581 14.3151 5.42192 14.6179 5.78748 14.9768L8.69664 17.8068C9.04629 18.1448 9.51362 18.3338 9.99998 18.3338C10.4863 18.3338 10.9537 18.1448 11.3033 17.8068C12.2527 16.8902 13.1989 15.9702 14.1416 15.0468ZM9.99998 5.83343C10.1657 5.83343 10.3247 5.89927 10.4419 6.01649C10.5591 6.1337 10.625 6.29267 10.625 6.45843V8.33343H12.7083C12.8741 8.33343 13.033 8.39927 13.1503 8.51649C13.2675 8.6337 13.3333 8.79267 13.3333 8.95843C13.3333 9.12419 13.2675 9.28316 13.1503 9.40037C13.033 9.51758 12.8741 9.58343 12.7083 9.58343H10.625V11.4584C10.625 11.6242 10.5591 11.7832 10.4419 11.9004C10.3247 12.0176 10.1657 12.0834 9.99998 12.0834C9.83422 12.0834 9.67525 12.0176 9.55804 11.9004C9.44083 11.7832 9.37498 11.6242 9.37498 11.4584V9.58343H7.29164C7.12588 9.58343 6.96691 9.51758 6.8497 9.40037C6.73249 9.28316 6.66664 9.12419 6.66664 8.95843C6.66664 8.79267 6.73249 8.6337 6.8497 8.51649C6.96691 8.39927 7.12588 8.33343 7.29164 8.33343H9.37498V6.45843C9.37498 6.29267 9.44083 6.1337 9.55804 6.01649C9.67525 5.89927 9.83422 5.83343 9.99998 5.83343Z" fill="#6360FF"/>
<circle cx="10.5" cy="8.5" r="4.5" fill="#699BF7"/>
<circle cx="10" cy="9" r="6" fill="white"/>
<path d="M8.54167 6C8.33907 6 8.14477 6.07625 8.00152 6.21196C7.85826 6.34768 7.77778 6.53175 7.77778 6.72368V10.6053H7.70833C7.65308 10.6053 7.60009 10.6261 7.56102 10.6631C7.52195 10.7001 7.5 10.7503 7.5 10.8026C7.5 10.855 7.52195 10.9052 7.56102 10.9422C7.60009 10.9792 7.65308 11 7.70833 11H11.4583C11.5136 11 11.5666 10.9792 11.6056 10.9422C11.6447 10.9052 11.6667 10.855 11.6667 10.8026C11.6667 10.7503 11.6447 10.7001 11.6056 10.6631C11.5666 10.6261 11.5136 10.6053 11.4583 10.6053H11.3889V10.1308C11.5051 10.1874 11.6348 10.2148 11.7654 10.2102C11.8961 10.2057 12.0233 10.1694 12.1348 10.1049C12.2464 10.0404 12.3386 9.94975 12.4025 9.84175C12.4665 9.73375 12.5 9.61199 12.5 9.48816V7.95184C12.5 7.79526 12.4464 7.6429 12.3472 7.51763L12.0417 7.13158C12.0085 7.0897 11.9592 7.06202 11.9045 7.05462C11.8498 7.04721 11.7942 7.0607 11.75 7.09211C11.7058 7.12351 11.6766 7.17027 11.6688 7.22209C11.6609 7.27391 11.6752 7.32654 11.7083 7.36842L12.0139 7.75447C12.0589 7.81132 12.0833 7.88079 12.0833 7.95184V9.48816C12.0833 9.53118 12.0744 9.57379 12.057 9.61354C12.0396 9.65329 12.0142 9.6894 11.982 9.71983C11.9499 9.75025 11.9118 9.77438 11.8698 9.79085C11.8279 9.80732 11.7829 9.81579 11.7375 9.81579C11.6921 9.81579 11.6471 9.80732 11.6052 9.79085C11.5632 9.77438 11.5251 9.75025 11.493 9.71983C11.4608 9.6894 11.4354 9.65329 11.418 9.61354C11.4006 9.57379 11.3917 9.53118 11.3917 9.48816V9.02632C11.3914 9.01566 11.3905 9.00502 11.3889 8.99447V6.72368C11.3889 6.62865 11.3691 6.53454 11.3307 6.44674C11.2924 6.35894 11.2361 6.27916 11.1652 6.21196C11.0942 6.14476 11.01 6.09146 10.9173 6.05509C10.8246 6.01872 10.7253 6 10.625 6H8.54167ZM8.61111 6.98684C8.61111 6.9345 8.63306 6.8843 8.67213 6.84728C8.7112 6.81027 8.76419 6.78947 8.81944 6.78947H10.3472C10.4025 6.78947 10.4555 6.81027 10.4945 6.84728C10.5336 6.8843 10.5556 6.9345 10.5556 6.98684V7.90789C10.5556 7.96024 10.5336 8.01044 10.4945 8.04746C10.4555 8.08447 10.4025 8.10526 10.3472 8.10526H8.81944C8.76419 8.10526 8.7112 8.08447 8.67213 8.04746C8.63306 8.01044 8.61111 7.96024 8.61111 7.90789V6.98684Z" fill="#6360FF"/>
</svg>
