<svg width="20" height="20" viewBox="0 0 20 20" fill="none" xmlns="http://www.w3.org/2000/svg">
<path d="M14.1416 15.0468L15.1308 14.0684C16.1455 13.0537 16.8365 11.7608 17.1164 10.3533C17.3964 8.94583 17.2526 7.48695 16.7034 6.16115C16.1543 4.83535 15.2243 3.70218 14.031 2.90492C12.8378 2.10766 11.435 1.68213 9.99998 1.68213C8.56493 1.68213 7.16211 2.10766 5.96891 2.90492C4.7757 3.70218 3.8457 4.83535 3.29651 6.16115C2.74732 7.48695 2.6036 8.94583 2.88352 10.3533C3.16345 11.7608 3.85445 13.0537 4.86914 14.0684C5.11581 14.3151 5.42192 14.6179 5.78748 14.9768L8.69664 17.8068C9.04629 18.1448 9.51362 18.3338 9.99998 18.3338C10.4863 18.3338 10.9537 18.1448 11.3033 17.8068C12.2527 16.8902 13.1989 15.9702 14.1416 15.0468ZM9.99998 5.83343C10.1657 5.83343 10.3247 5.89927 10.4419 6.01649C10.5591 6.1337 10.625 6.29267 10.625 6.45843V8.33343H12.7083C12.8741 8.33343 13.033 8.39927 13.1503 8.51649C13.2675 8.6337 13.3333 8.79267 13.3333 8.95843C13.3333 9.12419 13.2675 9.28316 13.1503 9.40037C13.033 9.51758 12.8741 9.58343 12.7083 9.58343H10.625V11.4584C10.625 11.6242 10.5591 11.7832 10.4419 11.9004C10.3247 12.0176 10.1657 12.0834 9.99998 12.0834C9.83422 12.0834 9.67525 12.0176 9.55804 11.9004C9.44083 11.7832 9.37498 11.6242 9.37498 11.4584V9.58343H7.29164C7.12588 9.58343 6.96691 9.51758 6.8497 9.40037C6.73249 9.28316 6.66664 9.12419 6.66664 8.95843C6.66664 8.79267 6.73249 8.6337 6.8497 8.51649C6.96691 8.39927 7.12588 8.33343 7.29164 8.33343H9.37498V6.45843C9.37498 6.29267 9.44083 6.1337 9.55804 6.01649C9.67525 5.89927 9.83422 5.83343 9.99998 5.83343Z" fill="#F64343"/>
<circle cx="10.5" cy="8.5" r="4.5" fill="#F64343"/>
<circle cx="10" cy="9" r="3" fill="#820000"/>
</svg>
