<svg width="140" height="140" viewBox="0 0 140 140" fill="none" xmlns="http://www.w3.org/2000/svg">
<path d="M62.5938 70C62.5938 71.9643 63.3741 73.8481 64.763 75.237C66.152 76.6259 68.0358 77.4062 70 77.4062C71.9643 77.4062 73.8481 76.6259 75.237 75.237C76.626 73.8481 77.4063 71.9643 77.4063 70C77.4063 68.0357 76.626 66.1519 75.237 64.763C73.8481 63.374 71.9643 62.5938 70 62.5938C68.0358 62.5938 66.152 63.374 64.763 64.763C63.3741 66.1519 62.5938 68.0357 62.5938 70ZM93.4531 70C93.4531 71.9643 94.2334 73.8481 95.6224 75.237C97.0113 76.6259 98.8951 77.4062 100.859 77.4062C102.824 77.4062 104.707 76.6259 106.096 75.237C107.485 73.8481 108.266 71.9643 108.266 70C108.266 68.0357 107.485 66.1519 106.096 64.763C104.707 63.374 102.824 62.5938 100.859 62.5938C98.8951 62.5938 97.0113 63.374 95.6224 64.763C94.2334 66.1519 93.4531 68.0357 93.4531 70ZM31.7344 70C31.7344 71.9643 32.5147 73.8481 33.9036 75.237C35.2926 76.6259 37.1764 77.4062 39.1406 77.4062C41.1049 77.4062 42.9887 76.6259 44.3777 75.237C45.7666 73.8481 46.5469 71.9643 46.5469 70C46.5469 68.0357 45.7666 66.1519 44.3777 64.763C42.9887 63.374 41.1049 62.5938 39.1406 62.5938C37.1764 62.5938 35.2926 63.374 33.9036 64.763C32.5147 66.1519 31.7344 68.0357 31.7344 70ZM133.755 43.2141C130.268 34.9283 125.269 27.4912 118.897 21.1033C112.569 14.7526 105.057 9.70438 96.786 6.24453C88.2996 2.68027 79.2887 0.875 70 0.875H69.6914C60.341 0.921289 51.2838 2.77285 42.7666 6.41426C34.5667 9.90958 27.1251 14.9667 20.8565 21.3039C14.5457 27.6764 9.59279 35.0826 6.1674 43.3375C2.61858 51.8855 0.828732 60.9736 0.875021 70.324C0.927378 81.0395 3.46245 91.597 8.28127 101.168V124.621C8.28127 126.504 9.02906 128.309 10.3601 129.64C11.6912 130.971 13.4965 131.719 15.3789 131.719H38.8475C48.4184 136.538 58.976 139.073 69.6914 139.125H70.0154C79.2578 139.125 88.2225 137.335 96.6625 133.833C104.892 130.414 112.376 125.425 118.696 119.144C125.069 112.833 130.083 105.457 133.586 97.2334C137.227 88.7162 139.079 79.659 139.125 70.3086C139.171 60.9119 137.351 51.793 133.755 43.2141ZM110.441 110.796C99.625 121.504 85.2754 127.398 70 127.398H69.7377C60.4336 127.352 51.1912 125.038 43.0289 120.687L41.7328 119.992H20.0078V98.2672L19.3135 96.9711C14.9623 88.8088 12.6479 79.5664 12.6016 70.2623C12.5399 54.8789 18.4186 40.4367 29.2039 29.5588C39.9739 18.6809 54.3697 12.6633 69.7531 12.6016H70.0154C77.7303 12.6016 85.2137 14.0982 92.2651 17.0607C99.1467 19.9461 105.319 24.0967 110.626 29.4045C115.919 34.6969 120.085 40.8842 122.97 47.7658C125.963 54.8943 127.46 62.4549 127.429 70.2623C127.337 85.6303 121.304 100.026 110.441 110.796Z" fill="#009EDB"/>
</svg>
