<svg width="99" height="40" viewBox="0 0 99 40" fill="none" xmlns="http://www.w3.org/2000/svg">
<path d="M78.664 15.7056L73.9284 20.1671H79.3872L84.1345 15.7056H78.664Z" fill="#009BDB"/>
<path d="M79.3813 20.1672L83.8254 25.3927H78.3491L73.9284 20.1672H79.3813Z" fill="#A6CE39"/>
<path d="M79.3872 11.25H73.9284V20.1672H79.3872V11.25Z" fill="#0B3F7E"/>
<path d="M76.6499 27.3173H71.1912L73.9264 20.1672H79.3793L76.6499 27.3173Z" fill="#009BDB"/>
<path d="M73.9278 20.1672L68.364 25.3927H73.8286L79.3807 20.1672H73.9278Z" fill="#0B3F7E"/>
<path d="M79.3768 20.1674L74.6179 14.5803H69.1183L73.9239 20.1674H79.3768Z" fill="#A6CE39"/>
<path d="M21.8318 14.3821C20.0432 14.4544 18.2748 14.7884 16.583 15.3735L14.8334 25.3929H17.9885L19.3649 17.4847C19.9712 17.2777 20.6079 17.1732 21.2486 17.1756C22.2459 17.1756 22.8174 17.6597 22.8174 18.4995C22.819 18.6951 22.8014 18.8905 22.7649 19.0827L21.6685 25.3813H24.8236L25.9317 19.001C26.0074 18.5382 26.0483 18.0703 26.0542 17.6014C26.0659 15.3794 24.7478 14.3821 21.8318 14.3821Z" fill="#0B3F7E"/>
<path d="M41.5192 22.9668C41.0335 22.9488 40.5552 22.8421 40.1079 22.6519L41.0118 17.5255C41.4801 17.308 41.9886 17.1908 42.5048 17.1815C43.9803 17.1815 44.7327 17.9863 44.5635 19.5143C44.3419 21.5846 43.5954 23.0135 41.5192 22.9552M42.604 14.3821C41.0977 14.4087 39.6114 14.7317 38.23 15.3327L35.6872 29.8253H38.8482L39.6763 25.2005C40.3208 25.3945 40.9868 25.5082 41.6592 25.5387C45.6133 25.6204 47.5962 23.2409 47.7012 19.3918C47.7887 16.2425 46.0215 14.3821 42.604 14.3821Z" fill="#0B3F7E"/>
<path d="M66.849 21.9342C66.849 20.2663 65.9101 19.339 63.4956 18.6391C62.8657 18.4642 62.3292 18.2776 62.3292 17.6944C62.3292 17.3794 62.4983 16.8604 63.6297 16.8604C64.762 16.871 65.8496 17.3036 66.6799 18.0734L67.1698 15.4199C66.1379 14.69 64.8923 14.3248 63.6297 14.3818C61.4894 14.3818 59.1974 15.3324 59.1974 18.0384C59.1974 19.9922 60.4571 20.727 62.3525 21.2286C63.274 21.4793 63.688 21.6776 63.688 22.2258C63.688 22.7741 63.1923 23.159 62.335 23.159C61.0151 23.1042 59.7562 22.5882 58.7775 21.701L58.2993 24.3837C59.4745 25.2604 60.9169 25.7034 62.3817 25.6376C65.1927 25.6376 66.8723 24.2496 66.8723 21.9342" fill="#0B3F7E"/>
<path d="M32.2527 23.3284C31.8849 23.4317 31.5029 23.4751 31.1213 23.4567C30.9276 23.4747 30.7322 23.4518 30.5479 23.3894C30.3636 23.327 30.1944 23.2266 30.0514 23.0946C29.9084 22.9626 29.7948 22.802 29.7179 22.6233C29.641 22.4445 29.6025 22.2516 29.605 22.057C29.605 21.4155 29.9957 20.5815 31.7453 20.5815H32.7834L32.2527 23.3284ZM35.7111 15.5951C35.0054 14.7962 33.5533 14.3821 31.687 14.3821C30.4287 14.4353 29.1831 14.6569 27.9837 15.0411L27.5871 17.543C28.6089 17.2444 29.6617 17.0643 30.7247 17.0065C31.5704 17.0065 32.5268 17.0065 32.9409 17.4847C33.0286 17.5893 33.0914 17.7123 33.1248 17.8446C33.1581 17.977 33.161 18.1151 33.1334 18.2487C33.1334 18.3712 33.0692 18.7386 33.0692 18.7386H31.7453C29.3484 18.7386 26.4965 19.4326 26.4965 22.2728C26.4965 25.0022 29.3775 25.6321 31.1621 25.6321C32.4922 25.6202 33.8159 25.4479 35.1046 25.1188L36.2243 18.7036C36.3293 18.0679 36.5976 16.5458 35.7519 15.5776" fill="#0B3F7E"/>
<path d="M54.0007 23.3284C53.635 23.432 53.2548 23.4754 52.8751 23.4567C52.6811 23.4747 52.4855 23.4517 52.3009 23.3894C52.1162 23.327 51.9468 23.2267 51.8033 23.0948C51.6599 22.9629 51.5457 22.8024 51.4681 22.6237C51.3906 22.4449 51.3513 22.2519 51.353 22.057C51.353 21.4155 51.7204 20.5524 53.47 20.5524H54.4906L54.0007 23.3284ZM57.4591 15.5951C56.7593 14.7962 55.3071 14.3821 53.4408 14.3821C52.1825 14.4353 50.9369 14.6569 49.7375 15.0411L49.3351 17.543C50.3591 17.245 51.4137 17.065 52.4786 17.0065C53.3242 17.0065 54.2807 17.0065 54.6947 17.4847C54.7799 17.5907 54.8412 17.7138 54.8744 17.8457C54.9076 17.9775 54.912 18.115 54.8872 18.2487C54.8872 18.3712 54.823 18.7386 54.823 18.7386H53.4933C51.0964 18.7386 48.2445 19.4326 48.2445 22.2728C48.2445 25.0022 51.1255 25.6321 52.9101 25.6321C54.2301 25.6198 55.5439 25.4495 56.8234 25.1247L57.9373 18.7094C58.0481 18.0738 58.3164 16.5516 57.4649 15.5835" fill="#0B3F7E"/>
<g clip-path="url(#clip0_1212_7824)">
<path d="M83.7937 17.3742C83.7919 17.4699 83.8094 17.5649 83.8454 17.6536C83.8814 17.7423 83.935 17.8228 84.003 17.8901C84.0702 17.9603 84.1513 18.0157 84.2412 18.0526C84.331 18.0896 84.4276 18.1073 84.5248 18.1046C84.6203 18.1062 84.7151 18.0885 84.8037 18.0527C84.8922 18.0168 84.9726 17.9635 85.0401 17.8959C85.1097 17.8283 85.1646 17.7471 85.2013 17.6573C85.238 17.5675 85.2558 17.4711 85.2535 17.3742C85.2532 17.1864 85.181 17.0059 85.0517 16.8698C84.9856 16.7956 84.904 16.7368 84.8126 16.6976C84.7213 16.6584 84.6224 16.6398 84.523 16.6431C84.4269 16.6415 84.3316 16.6596 84.2428 16.6964C84.154 16.7332 84.0738 16.7879 84.0071 16.8571C83.938 16.9241 83.8835 17.0045 83.8468 17.0935C83.8101 17.1824 83.792 17.278 83.7937 17.3742ZM84.523 18.2484C84.4076 18.2512 84.2927 18.2302 84.1857 18.1867C84.0787 18.1432 83.9818 18.0782 83.901 17.9956C83.8191 17.9145 83.7545 17.8176 83.7112 17.7107C83.6678 17.6039 83.6466 17.4894 83.6488 17.3742C83.646 17.2584 83.6668 17.1434 83.7098 17.0359C83.7528 16.9284 83.8172 16.8308 83.899 16.749C83.9809 16.6671 84.0785 16.6028 84.1859 16.5598C84.2934 16.5167 84.4085 16.496 84.5242 16.4988C84.6403 16.496 84.7556 16.5174 84.863 16.5617C84.9703 16.606 85.0671 16.6723 85.1474 16.7562C85.2287 16.837 85.2928 16.9334 85.336 17.0396C85.3791 17.1457 85.4003 17.2596 85.3984 17.3742C85.4004 17.4889 85.3791 17.6028 85.336 17.7091C85.2929 17.8153 85.2287 17.9118 85.1474 17.9927C85.0667 18.0763 84.9695 18.1421 84.8621 18.1861C84.7546 18.2302 84.6391 18.2514 84.523 18.2484Z" fill="#0B3F7E"/>
<path d="M84.5541 17.3335C84.6026 17.3367 84.6508 17.3241 84.6915 17.2976C84.7096 17.2821 84.7237 17.2625 84.7325 17.2403C84.7412 17.2182 84.7445 17.1943 84.7419 17.1706C84.7449 17.1434 84.7398 17.116 84.7273 17.0917C84.7147 17.0675 84.6952 17.0475 84.6712 17.0344C84.64 17.0199 84.6058 17.0132 84.5715 17.0147H84.2718V17.3335H84.5541ZM84.1431 16.9045H84.5686C84.6281 16.9026 84.6874 16.9133 84.7425 16.9358C84.7844 16.9548 84.8193 16.9862 84.8425 17.0259C84.8656 17.0656 84.8759 17.1115 84.8718 17.1573C84.8735 17.2057 84.8616 17.2537 84.8376 17.2958C84.8127 17.3327 84.7785 17.3623 84.7384 17.3816C84.7711 17.3929 84.7999 17.413 84.8219 17.4396C84.8443 17.4751 84.8556 17.5165 84.8544 17.5584L84.8573 17.6848C84.8568 17.7117 84.8595 17.7386 84.8654 17.7648C84.8673 17.7771 84.8721 17.7887 84.8793 17.7988C84.8866 17.8089 84.8961 17.8171 84.9071 17.8228V17.8419H84.7495C84.745 17.8323 84.7417 17.8222 84.7396 17.8118C84.7359 17.7872 84.7336 17.7624 84.7326 17.7376L84.7257 17.5799C84.7269 17.555 84.7212 17.5303 84.7094 17.5085C84.6975 17.4866 84.6799 17.4684 84.6584 17.4558C84.6234 17.4429 84.5861 17.4374 84.5489 17.4396H84.2718V17.8419H84.1431V16.9045Z" fill="#0B3F7E"/>
</g>
<defs>
<clipPath id="clip0_1212_7824">
<rect width="1.74961" height="1.74961" fill="white" transform="translate(83.6486 16.4988)"/>
</clipPath>
</defs>
</svg>
