<svg width="28" height="34" viewBox="0 0 28 34" fill="none" xmlns="http://www.w3.org/2000/svg">
<path d="M0.666748 28.6667V25.3333H4.00008V13.6667C4.00008 11.3611 4.69453 9.3125 6.08341 7.52084C7.4723 5.72917 9.27786 4.55556 11.5001 4V2.83334C11.5001 2.13889 11.7431 1.54861 12.2292 1.0625C12.7154 0.576391 13.3056 0.333336 14.0001 0.333336C14.6945 0.333336 15.2848 0.576391 15.7709 1.0625C16.257 1.54861 16.5001 2.13889 16.5001 2.83334V4C18.7223 4.55556 20.5279 5.72917 21.9167 7.52084C23.3056 9.3125 24.0001 11.3611 24.0001 13.6667V25.3333H27.3334V28.6667H0.666748ZM14.0001 33.6667C13.0834 33.6667 12.2987 33.3403 11.6459 32.6875C10.9931 32.0347 10.6667 31.25 10.6667 30.3333H17.3334C17.3334 31.25 17.007 32.0347 16.3542 32.6875C15.7015 33.3403 14.9167 33.6667 14.0001 33.6667ZM7.33341 25.3333H20.6667V13.6667C20.6667 11.8333 20.014 10.2639 18.7084 8.95834C17.4029 7.65278 15.8334 7 14.0001 7C12.1667 7 10.5973 7.65278 9.29175 8.95834C7.98619 10.2639 7.33341 11.8333 7.33341 13.6667V25.3333Z" fill="#613023"/>
</svg>
