<svg width="24" height="24" viewBox="0 0 24 24" fill="none" xmlns="http://www.w3.org/2000/svg">
<path d="M12.7593 7.275C12.7593 6.90221 12.4193 6.6 11.9999 6.6C11.5805 6.6 11.2405 6.90221 11.2405 7.275L11.2405 10.425C11.2405 10.7978 11.5805 11.1 11.9999 11.1C12.4193 11.1 12.7593 10.7978 12.7593 10.425V7.275Z" fill="#3D4657"/>
<path fill-rule="evenodd" clip-rule="evenodd" d="M5.96596 9.34161C5.96596 7.00257 7.61512 5.0049 9.92463 4.23669C10.2481 3.89947 10.6831 3.52746 11.1227 3.28042C11.4246 3.11073 11.7286 3 11.9999 3C12.2804 3 12.5959 3.11836 12.9078 3.29787C12.9716 3.33458 13.0353 3.37384 13.0984 3.41518L13.1021 3.41756C13.4536 3.64812 13.7903 3.94248 14.0554 4.21621C16.397 4.97021 18.0838 6.98759 18.0838 9.34161V11.9627C18.0838 12.5159 18.3463 13.3593 18.6493 13.8309L19.8106 15.5632C20.4771 16.5608 19.9418 17.8577 18.72 18.2205C17.4784 18.5931 16.2088 18.8594 14.9272 19.0194C14.5708 20.1581 13.3906 21 11.9999 21C11.1697 21 10.4002 20.694 9.8534 20.208C9.48879 19.8839 9.21424 19.4718 9.07178 19.0142C7.80402 18.8537 6.54817 18.5891 5.31967 18.2205C4.00691 17.8215 3.5121 16.6334 4.22907 15.5632L5.39036 13.8309C5.7034 13.3593 5.96596 12.5159 5.96596 11.9627V9.34161ZM5.53396 16.2539L6.69503 14.522L6.6984 14.517C6.9454 14.1449 7.1335 13.6944 7.26004 13.2851C7.38649 12.8759 7.48471 12.4002 7.48471 11.9627V9.34161C7.48471 7.07206 9.5359 5.25 12.0249 5.25C14.5037 5.25 16.565 7.08113 16.565 9.34161V11.9627C16.565 12.3998 16.6631 12.8747 16.7872 13.281C16.9117 13.6887 17.0948 14.1337 17.3304 14.5003L17.3374 14.5112L18.5052 16.2533C18.6862 16.5252 18.5239 16.8554 18.2388 16.94L18.2342 16.9414C14.1981 18.1525 9.84508 18.1529 5.80881 16.9424C5.54776 16.8625 5.46569 16.7432 5.43923 16.679C5.41285 16.615 5.38738 16.4729 5.53396 16.2539ZM13.154 19.1726C12.3838 19.2098 11.6118 19.2091 10.8416 19.1705C10.8689 19.1992 10.8975 19.2269 10.9273 19.2534C11.2018 19.4974 11.5898 19.65 11.9999 19.65C12.4592 19.65 12.8743 19.4638 13.154 19.1726Z" fill="#3D4657"/>
</svg>
