<svg width="20" height="20" viewBox="0 0 20 20" fill="none" xmlns="http://www.w3.org/2000/svg">
<path fill-rule="evenodd" clip-rule="evenodd" d="M17.7208 3.57938C17.9717 3.34238 17.983 2.94681 17.746 2.69586C17.509 2.44491 17.1135 2.43361 16.8625 2.67062L14.6558 4.7547C13.2367 3.83223 11.6395 3.33333 9.99668 3.33333C8.51394 3.33333 7.07284 3.74561 5.7567 4.49237C4.44055 5.2547 3.25769 6.36706 2.29141 7.78281C1.45841 9.00408 1.45841 10.9877 2.29141 12.2089C2.89641 13.0921 3.58849 13.8614 4.33857 14.4988L1.86252 16.8373C1.61157 17.0743 1.60027 17.4699 1.83727 17.7208C2.07428 17.9718 2.46985 17.9831 2.7208 17.7461L17.7208 3.57938ZM7.22128 11.7762L7.90701 11.1286C7.72361 10.7906 7.61677 10.4048 7.61677 9.99971C7.61677 8.69137 8.68344 7.61637 10.0001 7.61637C10.453 7.61637 10.8816 7.74988 11.2465 7.97462L11.891 7.36596C11.3522 6.96987 10.7005 6.66667 9.99668 6.66667C8.13076 6.66667 6.66666 8.26509 6.66666 9.99976C6.66666 10.6603 6.86185 11.2717 7.22128 11.7762ZM17.7185 7.80663C17.477 7.44881 17.2187 7.11432 16.9522 6.80317C16.644 6.43756 16.0609 6.40645 15.711 6.73316L13.212 9.0668C13.3953 9.5802 13.4286 10.1714 13.262 10.7859C12.9704 11.8827 12.0208 12.7695 10.8463 13.0418C10.1882 13.1973 9.55512 13.1662 9.00534 12.9951L6.95615 14.9087C6.53965 15.2976 6.67293 15.9822 7.23104 16.1844C8.12235 16.5033 9.04699 16.6667 9.99661 16.6667C11.4794 16.6667 12.9204 16.2622 14.2366 15.5076C15.5777 14.7298 16.7856 13.5863 17.7602 12.1316C18.5515 10.957 18.5099 8.98123 17.7185 7.80663ZM12.3834 10.0001C12.3834 11.3084 11.3167 12.3834 10.0001 12.3834H10C9.95005 12.3834 9.90839 12.3834 9.85839 12.3667L12.3667 9.8584C12.3834 9.9084 12.3834 9.95006 12.3834 10.0001V10.0001Z" fill="#1B1D29"/>
</svg>
