<svg width="20" height="20" viewBox="0 0 20 20" fill="none" xmlns="http://www.w3.org/2000/svg">
<path fill-rule="evenodd" clip-rule="evenodd" d="M10 3.33337C12.9667 3.33337 15.7834 4.96015 17.7084 7.7856C18.5417 9.00763 18.5417 11.0002 17.7084 12.2145C16.7417 13.6311 15.5584 14.7442 14.2417 15.5069C12.925 16.262 11.4834 16.6667 10 16.6667C7.03335 16.6667 4.21669 15.0477 2.29169 12.2145C1.45835 10.9925 1.45835 9.00763 2.29169 7.7856C3.25835 6.36898 4.44169 5.25593 5.75835 4.49313C7.07502 3.73812 8.51669 3.33337 10 3.33337ZM11.7333 9.99998C11.7333 10.9596 10.9596 11.7333 9.99996 11.7333C9.04031 11.7333 8.26662 10.9596 8.26662 9.99998C8.26662 9.04033 9.04031 8.26664 9.99996 8.26664C10.9596 8.26664 11.7333 9.04033 11.7333 9.99998ZM12.9833 9.99998C12.9833 11.65 11.65 12.9833 9.99996 12.9833C8.34996 12.9833 7.01662 11.65 7.01662 9.99998C7.01662 8.34998 8.34996 7.01664 9.99996 7.01664C11.65 7.01664 12.9833 8.34998 12.9833 9.99998Z" fill="#DCDEE9"/>
</svg>
