<svg width="20" height="20" viewBox="0 0 20 20" fill="none" xmlns="http://www.w3.org/2000/svg">
<path fill-rule="evenodd" clip-rule="evenodd" d="M6.24982 7.29175V8.33342H13.7498V7.29175C13.7498 5.79705 13.5367 4.72856 13.046 4.04329C12.6221 3.45127 11.8187 2.91675 9.99982 2.91675C8.18093 2.91675 7.37755 3.45127 6.95365 4.04329C6.46298 4.72856 6.24982 5.79705 6.24982 7.29175ZM4.99982 7.29175V8.35448C2.35781 8.50193 2.49987 9.46402 2.49987 12.5001V14.1667C2.49987 17.5001 2.49982 18.3334 5.83315 18.3334H14.1665C17.4998 18.3334 17.5002 17.5001 17.5002 14.1667V12.5001C17.5002 9.46402 17.6418 8.50193 14.9998 8.35448V7.29175C14.9998 4.18862 14.1665 1.66675 9.99982 1.66675C5.83315 1.66675 4.99982 4.18862 4.99982 7.29175ZM14.1665 17.0834C15.8421 17.0834 15.5555 16.8437 15.7829 16.6162C16.0104 16.3887 16.2502 15.8423 16.2502 14.1667V12.5001C16.2502 10.8245 16.061 10.2276 15.8335 10.0001C15.606 9.77259 15.8421 9.58342 14.1665 9.58342H5.83315C4.15755 9.58342 4.39432 9.77259 4.16683 10.0001C3.93934 10.2276 3.74987 10.8245 3.74987 12.5001V14.1667C3.74987 15.8423 3.9896 16.3887 4.21709 16.6162C4.44458 16.8437 4.15755 17.0834 5.83315 17.0834H14.1665ZM9.16283 13.3334C9.16283 12.8732 9.53592 12.5001 9.99616 12.5001H10.0036C10.4639 12.5001 10.837 12.8732 10.837 13.3334C10.837 13.7937 10.4639 14.1667 10.0036 14.1667H9.99616C9.53592 14.1667 9.16283 13.7937 9.16283 13.3334Z" fill="#A7ABC3"/>
</svg>
