<svg width="33" height="33" viewBox="0 0 33 33" fill="none" xmlns="http://www.w3.org/2000/svg">
<path d="M16.5 0.25C7.53 0.25 0.25 7.53 0.25 16.5C0.25 25.47 7.53 32.75 16.5 32.75C25.47 32.75 32.75 25.47 32.75 16.5C32.75 7.53 25.47 0.25 16.5 0.25ZM16.5 6.75C19.6362 6.75 22.1875 9.30125 22.1875 12.4375C22.1875 15.5737 19.6362 18.125 16.5 18.125C13.3638 18.125 10.8125 15.5737 10.8125 12.4375C10.8125 9.30125 13.3638 6.75 16.5 6.75ZM16.5 29.5C13.2013 29.5 9.30125 28.1675 6.5225 24.82C9.36921 22.5876 12.8824 21.3744 16.5 21.3744C20.1176 21.3744 23.6308 22.5876 26.4775 24.82C23.6987 28.1675 19.7987 29.5 16.5 29.5Z" fill="#6360FF"/>
</svg>
