<svg width="10" height="9" viewBox="0 0 10 9" fill="none" xmlns="http://www.w3.org/2000/svg">
<path d="M9.41667 9C8.25926 9 7.11574 8.773 5.98611 8.319C4.85648 7.865 3.8287 7.22117 2.90278 6.3875C1.97685 5.55383 1.26167 4.62883 0.757222 3.6125C0.252778 2.59617 0.00037037 1.567 0 0.525C0 0.375 0.0555555 0.25 0.166667 0.15C0.277778 0.05 0.416667 0 0.583333 0H2.83333C2.96296 0 3.0787 0.0396666 3.18056 0.119C3.28241 0.198333 3.34259 0.292 3.36111 0.4L3.72222 2.15C3.74074 2.28333 3.73611 2.39583 3.70833 2.4875C3.68056 2.57917 3.62963 2.65833 3.55556 2.725L2.20833 3.95C2.39352 4.25833 2.61333 4.55617 2.86778 4.8435C3.12222 5.13083 3.40241 5.408 3.70833 5.675C3.99537 5.93333 4.2963 6.173 4.61111 6.394C4.92593 6.615 5.25926 6.817 5.61111 7L6.91667 5.825C7 5.75 7.10889 5.69383 7.24333 5.6565C7.37778 5.61917 7.50963 5.60867 7.63889 5.625L9.55556 5.975C9.68519 6.00833 9.79167 6.06883 9.875 6.1565C9.95833 6.24417 10 6.342 10 6.45V8.475C10 8.625 9.94445 8.75 9.83333 8.85C9.72222 8.95 9.58333 9 9.41667 9Z" fill="white"/>
</svg>
