<svg width="43" height="43" viewBox="0 0 43 43" fill="none" xmlns="http://www.w3.org/2000/svg">
<circle cx="21.5" cy="21.5" r="21.5" fill="#6360FF"/>
<path fill-rule="evenodd" clip-rule="evenodd" d="M14 15.4583C14 14.6526 14.6533 14 15.4583 14H18.9583C19.7641 14 20.4167 14.6533 20.4167 15.4583V18.9583C20.4167 19.7641 19.7633 20.4167 18.9583 20.4167H15.4583C15.0716 20.4167 14.7006 20.263 14.4271 19.9895C14.1536 19.716 14 19.3451 14 18.9583V15.4583ZM15.4583 15.1667C15.381 15.1667 15.3068 15.1974 15.2521 15.2521C15.1974 15.3068 15.1667 15.381 15.1667 15.4583V18.9583C15.1667 19.1193 15.2973 19.25 15.4583 19.25H18.9583C19.0357 19.25 19.1099 19.2193 19.1646 19.1646C19.2193 19.1099 19.25 19.0357 19.25 18.9583V15.4583C19.25 15.381 19.2193 15.3068 19.1646 15.2521C19.1099 15.1974 19.0357 15.1667 18.9583 15.1667H15.4583ZM21.5833 15.4583C21.5833 14.6526 22.2367 14 23.0417 14H26.5417C27.3467 14 28 14.6533 28 15.4583V18.9583C28 19.7641 27.3467 20.4167 26.5417 20.4167H23.0417C22.6549 20.4167 22.284 20.263 22.0105 19.9895C21.737 19.716 21.5833 19.3451 21.5833 18.9583V15.4583ZM23.0417 15.1667C22.9643 15.1667 22.8901 15.1974 22.8354 15.2521C22.7807 15.3068 22.75 15.381 22.75 15.4583V18.9583C22.75 19.1193 22.8807 19.25 23.0417 19.25H26.5417C26.619 19.25 26.6932 19.2193 26.7479 19.1646C26.8026 19.1099 26.8333 19.0357 26.8333 18.9583V15.4583C26.8333 15.381 26.8026 15.3068 26.7479 15.2521C26.6932 15.1974 26.619 15.1667 26.5417 15.1667H23.0417ZM16.3333 16.9167C16.3333 16.762 16.3948 16.6136 16.5042 16.5042C16.6136 16.3948 16.762 16.3333 16.9167 16.3333H17.5C17.6547 16.3333 17.8031 16.3948 17.9125 16.5042C18.0219 16.6136 18.0833 16.762 18.0833 16.9167V17.5C18.0833 17.6547 18.0219 17.8031 17.9125 17.9125C17.8031 18.0219 17.6547 18.0833 17.5 18.0833H16.9167C16.762 18.0833 16.6136 18.0219 16.5042 17.9125C16.3948 17.8031 16.3333 17.6547 16.3333 17.5V16.9167ZM23.9167 16.9167C23.9167 16.762 23.9781 16.6136 24.0875 16.5042C24.1969 16.3948 24.3453 16.3333 24.5 16.3333H25.0833C25.238 16.3333 25.3864 16.3948 25.4958 16.5042C25.6052 16.6136 25.6667 16.762 25.6667 16.9167V17.5C25.6667 17.6547 25.6052 17.8031 25.4958 17.9125C25.3864 18.0219 25.238 18.0833 25.0833 18.0833H24.5C24.3453 18.0833 24.1969 18.0219 24.0875 17.9125C23.9781 17.8031 23.9167 17.6547 23.9167 17.5V16.9167ZM14 23.0417C14 22.2359 14.6533 21.5833 15.4583 21.5833H18.9583C19.7641 21.5833 20.4167 22.2367 20.4167 23.0417V26.5417C20.4167 27.3467 19.7633 28 18.9583 28H15.4583C15.0716 28 14.7006 27.8464 14.4271 27.5729C14.1536 27.2994 14 26.9284 14 26.5417V23.0417ZM15.4583 22.75C15.381 22.75 15.3068 22.7807 15.2521 22.8354C15.1974 22.8901 15.1667 22.9643 15.1667 23.0417V26.5417C15.1667 26.7027 15.2973 26.8333 15.4583 26.8333H18.9583C19.0357 26.8333 19.1099 26.8026 19.1646 26.7479C19.2193 26.6932 19.25 26.619 19.25 26.5417V23.0417C19.25 22.9643 19.2193 22.8901 19.1646 22.8354C19.1099 22.7807 19.0357 22.75 18.9583 22.75H15.4583ZM21.5833 22.1667C21.5833 22.012 21.6448 21.8636 21.7542 21.7542C21.8636 21.6448 22.012 21.5833 22.1667 21.5833H22.75C22.9047 21.5833 23.0531 21.6448 23.1625 21.7542C23.2719 21.8636 23.3333 22.012 23.3333 22.1667V22.75C23.3333 22.9047 23.2719 23.0531 23.1625 23.1625C23.0531 23.2719 22.9047 23.3333 22.75 23.3333H22.1667C22.012 23.3333 21.8636 23.2719 21.7542 23.1625C21.6448 23.0531 21.5833 22.9047 21.5833 22.75V22.1667ZM26.25 22.1667C26.25 22.012 26.3115 21.8636 26.4209 21.7542C26.5303 21.6448 26.6786 21.5833 26.8333 21.5833H27.4167C27.5714 21.5833 27.7198 21.6448 27.8291 21.7542C27.9385 21.8636 28 22.012 28 22.1667V22.75C28 22.9047 27.9385 23.0531 27.8291 23.1625C27.7198 23.2719 27.5714 23.3333 27.4167 23.3333H26.8333C26.6786 23.3333 26.5303 23.2719 26.4209 23.1625C26.3115 23.0531 26.25 22.9047 26.25 22.75V22.1667ZM16.3333 24.5C16.3333 24.3453 16.3948 24.1969 16.5042 24.0875C16.6136 23.9781 16.762 23.9167 16.9167 23.9167H17.5C17.6547 23.9167 17.8031 23.9781 17.9125 24.0875C18.0219 24.1969 18.0833 24.3453 18.0833 24.5V25.0833C18.0833 25.238 18.0219 25.3864 17.9125 25.4958C17.8031 25.6052 17.6547 25.6667 17.5 25.6667H16.9167C16.762 25.6667 16.6136 25.6052 16.5042 25.4958C16.3948 25.3864 16.3333 25.238 16.3333 25.0833V24.5ZM23.9167 24.5C23.9167 24.3453 23.9781 24.1969 24.0875 24.0875C24.1969 23.9781 24.3453 23.9167 24.5 23.9167H25.0833C25.238 23.9167 25.3864 23.9781 25.4958 24.0875C25.6052 24.1969 25.6667 24.3453 25.6667 24.5V25.0833C25.6667 25.238 25.6052 25.3864 25.4958 25.4958C25.3864 25.6052 25.238 25.6667 25.0833 25.6667H24.5C24.3453 25.6667 24.1969 25.6052 24.0875 25.4958C23.9781 25.3864 23.9167 25.238 23.9167 25.0833V24.5ZM21.5833 26.8333C21.5833 26.6786 21.6448 26.5303 21.7542 26.4209C21.8636 26.3115 22.012 26.25 22.1667 26.25H22.75C22.9047 26.25 23.0531 26.3115 23.1625 26.4209C23.2719 26.5303 23.3333 26.6786 23.3333 26.8333V27.4167C23.3333 27.5714 23.2719 27.7198 23.1625 27.8291C23.0531 27.9385 22.9047 28 22.75 28H22.1667C22.012 28 21.8636 27.9385 21.7542 27.8291C21.6448 27.7198 21.5833 27.5714 21.5833 27.4167V26.8333ZM26.25 26.8333C26.25 26.6786 26.3115 26.5303 26.4209 26.4209C26.5303 26.3115 26.6786 26.25 26.8333 26.25H27.4167C27.5714 26.25 27.7198 26.3115 27.8291 26.4209C27.9385 26.5303 28 26.6786 28 26.8333V27.4167C28 27.5714 27.9385 27.7198 27.8291 27.8291C27.7198 27.9385 27.5714 28 27.4167 28H26.8333C26.6786 28 26.5303 27.9385 26.4209 27.8291C26.3115 27.7198 26.25 27.5714 26.25 27.4167V26.8333Z" fill="white"/>
</svg>
