<svg width="30" height="30" viewBox="0 0 30 30" fill="none" xmlns="http://www.w3.org/2000/svg">
<path d="M0 13.3333V0H13.3333V13.3333H0ZM3.33333 10H10V3.33333H3.33333V10ZM0 30V16.6667H13.3333V30H0ZM3.33333 26.6667H10V20H3.33333V26.6667ZM16.6667 13.3333V0H30V13.3333H16.6667ZM20 10H26.6667V3.33333H20V10ZM26.6667 30V26.6667H30V30H26.6667ZM16.6667 20V16.6667H20V20H16.6667ZM20 23.3333V20H23.3333V23.3333H20ZM16.6667 26.6667V23.3333H20V26.6667H16.6667ZM20 30V26.6667H23.3333V30H20ZM23.3333 26.6667V23.3333H26.6667V26.6667H23.3333ZM23.3333 20V16.6667H26.6667V20H23.3333ZM26.6667 23.3333V20H30V23.3333H26.6667Z" fill="#613023"/>
</svg>
