<svg width="25" height="24" viewBox="0 0 25 24" fill="none" xmlns="http://www.w3.org/2000/svg">
  <path fill-rule="evenodd" clip-rule="evenodd" d="M15.6667 20.5H9.66669C7.31463 20.5 6.05841 20.0204 5.35235 19.3143C4.64628 18.6083 4.16669 17.3521 4.16669 15V9C4.16669 6.64794 4.64628 5.39172 5.35235 4.68566C6.05841 3.9796 7.31463 3.5 9.66669 3.5H15.6667C18.0187 3.5 19.275 3.9796 19.981 4.68566C20.6871 5.39172 21.1667 6.64794 21.1667 9V15C21.1667 17.3521 20.6871 18.6083 19.981 19.3143C19.275 20.0204 18.0187 20.5 15.6667 20.5ZM9.66669 22H15.6667C20.6667 22 22.6667 20 22.6667 15V9C22.6667 4 20.6667 2 15.6667 2H9.66669C4.66669 2 2.66669 4 2.66669 9V15C2.66669 20 4.66669 22 9.66669 22ZM11.8698 7.25C10.9655 7.25 9.91669 7.85535 9.91669 8.95001V11.25H8.56905C7.64982 11.25 6.91669 11.9995 6.91669 12.9105V17C6.91669 17.4142 7.25247 17.75 7.66669 17.75H10.6667H14.6667H17.6667C18.0809 17.75 18.4167 17.4142 18.4167 17V14.0022L18.4166 13.9915C18.4041 13.1137 17.7461 12.25 16.7643 12.25H15.4167V8.95001C15.4167 7.86272 14.3877 7.25 13.4741 7.25H11.8698ZM13.9167 13V16.25H11.4167V12V8.95001C11.4167 8.95001 11.4163 8.94552 11.4224 8.93404C11.4296 8.92058 11.4471 8.89569 11.4837 8.86675C11.5592 8.80717 11.6931 8.75 11.8698 8.75H13.4741C13.6503 8.75 13.7799 8.80678 13.8515 8.86399C13.8863 8.89187 13.9031 8.916 13.9102 8.92955C13.9166 8.94157 13.9167 8.94724 13.9167 8.95001V13ZM16.9167 16.25H15.4167V13.75H16.7643C16.772 13.75 16.8004 13.7522 16.8392 13.7953C16.8784 13.8388 16.9144 13.9126 16.9167 14.0089V16.25ZM9.91669 16.25V12.75H8.56905C8.49092 12.75 8.41669 12.8152 8.41669 12.9105V16.25H9.91669Z" fill="#82869E"/>
</svg>