<svg width="24" height="24" viewBox="0 0 24 24" fill="none" xmlns="http://www.w3.org/2000/svg">
<mask id="mask0_122_5580" style="mask-type:alpha" maskUnits="userSpaceOnUse" x="0" y="0" width="24" height="24">
<rect width="24" height="24" fill="#D9D9D9"/>
</mask>
<g mask="url(#mask0_122_5580)">
<path d="M7.4 13.7H9.2V11H12.35V13.25L15.5 10.1L12.35 6.95V9.2H8.3C8.045 9.2 7.83125 9.28625 7.65875 9.45875C7.48625 9.63125 7.4 9.845 7.4 10.1V13.7ZM11 20C10.775 20 10.5538 19.955 10.3362 19.865C10.1187 19.775 9.92 19.64 9.74 19.46L2.54 12.26C2.36 12.08 2.225 11.8813 2.135 11.6637C2.045 11.4462 2 11.225 2 11C2 10.775 2.045 10.5538 2.135 10.3362C2.225 10.1187 2.36 9.92 2.54 9.74L9.74 2.54C9.92 2.36 10.1187 2.225 10.3362 2.135C10.5538 2.045 10.775 2 11 2C11.225 2 11.4462 2.045 11.6637 2.135C11.8813 2.225 12.08 2.36 12.26 2.54L19.46 9.74C19.64 9.92 19.775 10.1187 19.865 10.3362C19.955 10.5538 20 10.775 20 11C20 11.225 19.955 11.4462 19.865 11.6637C19.775 11.8813 19.64 12.08 19.46 12.26L12.26 19.46C12.08 19.64 11.8813 19.775 11.6637 19.865C11.4462 19.955 11.225 20 11 20ZM11 18.2L18.2 11L11 3.8L3.8 11L11 18.2Z" fill="#2A97FD"/>
</g>
</svg>
