<svg width="70" height="84" viewBox="0 0 70 84" fill="none" xmlns="http://www.w3.org/2000/svg">
<g filter="url(#filter0_dd_1627_2609)">
<path d="M32.375 22.5363C33.9994 21.5984 36.0006 21.5984 37.625 22.5363L48.8115 28.9948C50.4359 29.9326 51.4365 31.6658 51.4365 33.5415V46.4585C51.4365 48.3342 50.4359 50.0674 48.8115 51.0052L37.625 57.4637C36.0006 58.4016 33.9994 58.4016 32.375 57.4637L21.1885 51.0052C19.5641 50.0674 18.5635 48.3342 18.5635 46.4585V33.5415C18.5635 31.6658 19.5641 29.9326 21.1885 28.9948L32.375 22.5363Z" fill="#676767" stroke="#BDC4C5" stroke-width="3.5"/>
<path d="M32.0371 46.5C31.2253 46.5 30.8237 46.0471 30.8237 45.3977C30.8237 44.9106 31.0117 44.5859 31.533 44.1074L35.2073 40.5955C36.7283 39.1343 37.1213 38.5361 37.1213 37.6475C37.1213 36.6306 36.3352 35.9043 35.2329 35.9043C34.2417 35.9043 33.5581 36.3999 33.1138 37.3911C32.8232 37.9038 32.5242 38.1431 31.9688 38.1431C31.2766 38.1431 30.8665 37.7329 30.8665 37.092C30.8665 36.8955 30.9006 36.7161 30.9604 36.5366C31.3792 35.1694 32.9258 33.8962 35.2585 33.8962C37.8733 33.8962 39.6335 35.366 39.6335 37.4851C39.6335 38.989 38.8987 39.929 36.8821 41.8345L34.2161 44.3979V44.4492H38.8645C39.531 44.4492 39.9326 44.8508 39.9326 45.4746C39.9326 46.0813 39.531 46.5 38.8645 46.5H32.0371Z" fill="white"/>
<g clip-path="url(#clip0_1627_2609)">
<path d="M41.9999 18.4442C41.9999 18.4442 41.9965 18.4589 41.9902 18.4824C42.0082 18.5746 42.0179 18.6693 42.0179 18.7666C42.0179 19.5903 41.3493 20.2581 40.526 20.2581C39.7027 20.2581 39.0328 19.5903 39.0328 18.7666C39.0328 18.2619 39.2806 17.8171 39.6641 17.5472C39.6775 17.5325 39.6792 17.5237 39.6792 17.5237C39.6792 17.5237 39.8745 16.64 38.438 14.3936C37.0014 12.1471 35.7216 12 35.7216 12C35.7216 12 34.4695 12.1471 33.0333 14.3936C31.5972 16.6396 31.8059 17.5237 31.8059 17.5237C31.8059 17.5237 31.8143 17.5325 31.8282 17.5472C32.2113 17.8171 32.4628 18.2623 32.4628 18.7666C32.4628 19.5903 31.795 20.2581 30.9713 20.2581C30.1476 20.2581 29.4799 19.5903 29.4799 18.7666C29.4799 18.6693 29.4899 18.5746 29.5079 18.4824C29.5016 18.4585 29.4983 18.4442 29.4983 18.4442C29.4983 18.4442 27.1047 16.272 23.625 16.7138L27.3625 26.8033C27.3625 26.8033 29.8483 27.2821 35.7216 27.2821C41.5949 27.2821 44.1356 26.8033 44.1356 26.8033L47.8731 16.7138C44.393 16.272 41.9994 18.4442 41.9994 18.4442H41.9999Z" fill="url(#paint0_linear_1627_2609)"/>
<g style="mix-blend-mode:overlay" opacity="0.25">
<path d="M44.3813 17.1041C42.894 17.6344 42.0003 18.4438 42.0003 18.4438C42.0003 18.4438 41.9969 18.4585 41.9906 18.482C42.0087 18.5742 42.0183 18.6689 42.0183 18.7662C42.0183 19.5899 41.3497 20.2577 40.5264 20.2577C39.7031 20.2577 39.0332 19.5899 39.0332 18.7662C39.0332 18.2615 39.281 17.8167 39.6645 17.5467C39.678 17.5321 39.6796 17.5233 39.6796 17.5233C39.6796 17.5233 39.875 16.6396 38.4384 14.3932C37.0014 12.1471 35.7216 12 35.7216 12C35.7216 12 34.4695 12.1471 33.0333 14.3936C31.5972 16.6396 31.8059 17.5237 31.8059 17.5237C31.8059 17.5237 31.8143 17.5325 31.8282 17.5472C32.2113 17.8171 32.4628 18.2623 32.4628 18.7666C32.4628 19.5903 31.795 20.2581 30.9713 20.2581C30.1476 20.2581 29.4799 19.5903 29.4799 18.7666C29.4799 18.6693 29.4899 18.5746 29.5079 18.4824C29.5017 18.4585 29.4983 18.4442 29.4983 18.4442C29.4983 18.4442 27.1047 16.272 23.625 16.7138L27.3625 26.8033C27.3625 26.8033 29.8483 27.2821 35.7216 27.2821C36.2444 27.2821 36.7415 27.2779 37.2148 27.2703C41.4444 25.6179 44.3934 21.9005 44.3934 17.5786C44.3934 17.4197 44.3888 17.2617 44.3809 17.1041H44.3813Z" fill="#FFFFD9"/>
</g>
<g style="mix-blend-mode:overlay" opacity="0.25">
<path d="M41.279 20.0518C41.0577 20.1818 40.8003 20.2581 40.5253 20.2581C39.7016 20.2581 39.0322 19.5903 39.0322 18.7666C39.0322 18.2619 39.2799 17.8171 39.6635 17.5472C39.6769 17.5325 39.6785 17.5237 39.6785 17.5237C39.6785 17.5237 39.8739 16.64 38.4373 14.3936C37.0012 12.1471 35.7214 12 35.7214 12C35.7214 12 34.4692 12.1471 33.0331 14.3936C31.5969 16.6396 31.8057 17.5237 31.8057 17.5237C31.8057 17.5237 31.8141 17.5325 31.8279 17.5472C32.2111 17.8171 32.4626 18.2623 32.4626 18.7666C32.4626 19.5903 31.7948 20.2581 30.9711 20.2581C30.1474 20.2581 29.4796 19.5903 29.4796 18.7666C29.4796 18.6693 29.4897 18.5746 29.5077 18.4824C29.5014 18.4585 29.4981 18.4442 29.4981 18.4442C29.4981 18.4442 28.1554 17.2261 26.02 16.7997C26.2988 21.1216 29.8049 24.5393 34.0911 24.5393C37.2204 24.5393 39.933 22.7171 41.279 20.0523V20.0518Z" fill="#FFFFD9"/>
</g>
<g style="mix-blend-mode:overlay" opacity="0.25">
<path d="M39.3181 16.0121C39.1316 15.5786 38.8532 15.0438 38.4374 14.3936C37.0012 12.1471 35.7214 12 35.7214 12C35.7214 12 34.4693 12.1471 33.0332 14.3936C31.597 16.6396 31.8058 17.5237 31.8058 17.5237C31.8058 17.5237 31.8141 17.5325 31.828 17.5472C32.2111 17.8171 32.4626 18.2623 32.4626 18.7666C32.4626 19.0839 32.3624 19.3778 32.1935 19.6196C32.9476 20.7435 34.0115 21.4452 35.1924 21.4452C37.3751 21.4452 39.1622 19.0495 39.3181 16.0121Z" fill="#FFFFD9"/>
</g>
<g style="mix-blend-mode:overlay" opacity="0.25">
<path d="M32.4463 19.9643C34.105 19.7006 35.6749 17.0786 35.7491 15.6273C35.8321 14.0072 35.7214 12.3782 35.7214 12.3782C35.6837 12.2516 35.6971 12.1246 35.7214 12.0005C35.3794 12.0965 34.2102 12.5534 33.0332 14.3941C31.597 16.6401 31.8058 17.5242 31.8058 17.5242C31.8058 17.5242 31.8141 17.533 31.828 17.5477C32.2111 17.8176 32.4626 18.2628 32.4626 18.7671C32.4626 19.0844 32.3624 19.3783 32.1935 19.6201C32.274 19.7404 32.3591 19.8545 32.4463 19.9647V19.9643Z" fill="#FFFFD9"/>
</g>
<path d="M43.9105 26.2647C43.9105 26.2647 41.3744 27.0792 35.722 27.0792C30.0697 27.0792 27.6023 26.3058 27.6023 26.3058L24.481 17.2659C24.3779 17.2747 23.7302 16.7004 23.625 16.7134L27.3625 26.8029C27.3625 26.8029 29.8483 27.2816 35.7216 27.2816C41.5949 27.2816 44.1356 26.8029 44.1356 26.8029L47.8731 16.7134C47.7684 16.7 47.2221 17.2089 47.119 17.2001L43.9101 26.2647H43.9105Z" fill="url(#paint1_linear_1627_2609)"/>
<path d="M31.0542 20.9666C32.1675 20.9666 33.07 20.0637 33.07 18.9503C33.07 18.109 32.554 17.3884 31.8217 17.0862C31.7743 17.3867 31.8058 17.5234 31.8058 17.5234C31.8058 17.5234 31.8141 17.5322 31.828 17.5469C32.2111 17.8168 32.4626 18.262 32.4626 18.7663C32.4626 19.59 31.7949 20.2578 30.9712 20.2578C30.1474 20.2578 29.4797 19.59 29.4797 18.7663C29.4797 18.6691 29.4897 18.5743 29.5078 18.4821C29.5015 18.4582 29.4981 18.4439 29.4981 18.4439C29.4981 18.4439 29.3891 18.3454 29.1854 18.1954C29.0911 18.4289 29.0378 18.6833 29.0378 18.9503C29.0378 20.0637 29.9404 20.9666 31.0542 20.9666Z" fill="url(#paint2_linear_1627_2609)"/>
<path d="M33.0064 14.3936C31.6877 16.4564 31.7698 17.3694 31.7895 17.5048C31.9731 17.5136 32.2368 17.5308 32.4535 17.5614C32.438 17.3103 32.4632 16.3852 33.6658 14.5038C34.456 13.2672 35.2064 12.6678 35.6675 12.3777V12C35.6675 12 34.4422 12.1471 33.006 14.3936H33.0064Z" fill="url(#paint3_linear_1627_2609)"/>
<path d="M29.4984 18.4442C29.4984 18.4442 27.1057 16.272 23.626 16.7134L24.4962 17.2181C27.2507 17.3598 29.0566 18.9967 29.0566 18.9967C29.1907 18.8311 29.3484 18.6538 29.5081 18.4819C29.5018 18.4585 29.4984 18.4442 29.4984 18.4442Z" fill="#E5E5E3"/>
<path d="M33.9227 13.1884C33.911 13.201 33.913 13.214 33.9026 13.2257C33.872 13.2597 33.8481 13.2936 33.8166 13.3293C33.8099 13.3364 33.8091 13.3414 33.8091 13.3414C33.8091 13.3414 34.5464 12.6489 34.8709 12.5177C35.1954 12.3865 34.9753 12.6699 34.7338 12.8631C34.4924 13.0564 33.3392 14.7688 32.9112 15.7149C32.7016 16.1785 32.5897 16.6304 32.5293 16.9716C32.6467 16.4732 32.9485 15.6734 33.6963 14.5043C33.8275 14.2988 33.9571 14.1127 34.0845 13.9409C34.1893 13.795 34.305 13.6437 34.4316 13.4927C34.5594 13.3397 34.6655 13.2035 34.795 13.0824C35.1383 12.7441 35.5005 12.5227 35.6682 12.3781V12C35.6682 12 34.9363 12.0897 33.9227 13.1884Z" fill="white"/>
<path d="M32.2188 20.0645C32.0612 20.0758 31.9379 20.0092 31.8671 19.9568C31.7128 20.0729 31.5355 20.1596 31.3427 20.2091C31.3884 20.246 31.4328 20.2879 31.4638 20.3315C31.5556 20.4598 31.3993 20.6903 30.8841 20.8098C30.7043 20.8517 30.4733 20.8358 30.249 20.7976C30.4955 20.9054 30.768 20.9662 31.0543 20.9662C32.0754 20.9662 32.9176 20.2058 33.0501 19.2211C32.9054 19.7857 32.4699 20.0456 32.2188 20.0641V20.0645Z" fill="white"/>
<path d="M29.5032 18.5088C29.5032 18.5088 29.0752 18.9783 29.0798 19.0609C29.0844 19.1439 29.1548 19.6268 29.1548 19.6268C29.1548 19.6268 29.0756 19.4461 29.0383 19.221C29.0014 18.9963 28.6912 18.6584 28.1923 18.3788C27.6939 18.0992 26.4116 17.5681 26.4116 17.5681C26.4116 17.5681 27.4684 17.8779 27.9932 18.1722C28.5181 18.4669 28.845 18.8119 29.089 18.7062C29.333 18.6002 28.8442 17.958 28.8442 17.958C28.8442 17.958 29.2412 18.1772 29.3699 18.3105C29.4985 18.4438 29.5493 18.4807 29.5032 18.5084V18.5088Z" fill="white"/>
<path d="M25.7515 17.2752C24.8863 17.1465 24.6562 17.1557 24.3891 17.0174C24.1221 16.8794 24.4445 16.7688 24.9324 16.7596C25.4204 16.7503 26.1669 16.8304 26.1669 16.8304C26.1669 16.8304 25.0045 16.4938 23.6262 16.7134L24.4814 17.2659C24.4814 17.2659 25.8622 17.3485 26.6264 17.6432C27.3906 17.9379 27.4589 17.9274 27.4589 17.9274C27.4589 17.9274 26.6172 17.4039 25.7515 17.2747V17.2752Z" fill="white"/>
<path d="M40.4441 20.9666C39.3307 20.9666 38.4282 20.0637 38.4282 18.9503C38.4282 18.109 38.9442 17.3884 39.6766 17.0862C39.7239 17.3867 39.6925 17.5234 39.6925 17.5234C39.6925 17.5234 39.6841 17.5322 39.6703 17.5469C39.2867 17.8168 39.0356 18.262 39.0356 18.7663C39.0356 19.59 39.703 20.2578 40.5271 20.2578C41.3512 20.2578 42.0182 19.59 42.0182 18.7663C42.0182 18.6691 42.0081 18.5743 41.9905 18.4821C41.9968 18.4582 42.0002 18.4439 42.0002 18.4439C42.0002 18.4439 42.1091 18.3454 42.3129 18.1954C42.4072 18.4289 42.4604 18.6833 42.4604 18.9503C42.4604 20.0637 41.5579 20.9666 40.4445 20.9666H40.4441Z" fill="url(#paint4_linear_1627_2609)"/>
<path d="M38.4103 14.3936C39.7294 16.4564 39.6879 17.3694 39.6682 17.5048C39.4842 17.5136 39.2411 17.5308 39.0239 17.5614C39.0399 17.3103 38.9435 16.3852 37.7404 14.5038C36.9502 13.2672 36.2963 12.6678 35.6675 12.3777V12C35.6675 12 36.9741 12.1471 38.4103 14.3936Z" fill="url(#paint5_linear_1627_2609)"/>
<path d="M42.0004 18.4443C42.0004 18.4443 44.3935 16.2725 47.8728 16.7139L47.0026 17.2186C44.2485 17.3603 42.4422 18.9972 42.4422 18.9972C42.3076 18.8316 42.1504 18.6543 41.9907 18.4824C41.997 18.459 41.9999 18.4447 41.9999 18.4447L42.0004 18.4443Z" fill="#E5E5E3"/>
<path d="M39.2795 20.0645C39.4371 20.0758 39.5604 20.0092 39.6312 19.9568C39.7855 20.0729 39.9628 20.1596 40.1556 20.2091C40.1103 20.246 40.0655 20.2879 40.0345 20.3315C39.9427 20.4598 40.099 20.6903 40.6142 20.8098C40.794 20.8517 41.0246 20.8358 41.2493 20.7976C41.0024 20.9054 40.7307 20.9662 40.444 20.9662C39.4224 20.9662 38.5811 20.2058 38.4482 19.2211C38.5929 19.7857 39.0284 20.0456 39.2795 20.0641V20.0645Z" fill="white"/>
<path d="M47.8725 16.7134C46.4942 16.4933 45.3322 16.8303 45.3322 16.8303C45.3322 16.8303 46.0784 16.7503 46.5663 16.7595C47.0542 16.7687 47.2659 16.879 46.9989 17.0173C46.7319 17.1556 46.4992 17.1489 45.6453 17.3392C44.6514 17.5614 43.6827 18.0816 43.6827 18.0816C43.6827 18.0816 43.5594 18.142 43.5049 18.1726C42.9801 18.4673 42.5064 18.7477 42.4046 18.6282C42.2331 18.4254 42.6544 17.9584 42.6544 17.9584C42.6544 17.9584 42.2574 18.1776 42.1287 18.3109C42 18.4442 41.9493 18.4811 41.995 18.5088C41.995 18.5088 42.423 18.9783 42.4184 19.0609C42.4138 19.1439 42.3434 19.6268 42.3434 19.6268C42.3434 19.6268 42.423 19.4461 42.4599 19.221C42.4968 18.9963 42.807 18.6584 43.3058 18.3788C43.7694 18.1189 44.9176 17.6826 45.079 17.6243C45.8482 17.3464 47.0169 17.265 47.0169 17.265L47.8721 16.7125L47.8725 16.7134Z" fill="white"/>
<path d="M27.6099 26.3087L27.3625 26.8029C27.3625 26.8029 29.8484 27.2817 35.7217 27.2817C41.595 27.2817 44.1357 26.8029 44.1357 26.8029L44.142 26.7904L43.9101 26.2643C43.9101 26.2643 41.374 27.0788 35.7217 27.0788C30.0693 27.0788 27.7558 26.3561 27.6099 26.3083V26.3087Z" fill="url(#paint6_linear_1627_2609)"/>
<path opacity="0.48" d="M43.9106 26.2647C43.9106 26.2647 47.0592 17.5027 47.1971 17.3162C47.335 17.1296 47.8728 16.7134 47.8728 16.7134L47.0177 17.2659L43.9106 26.2647Z" fill="#E5E5E3"/>
<path opacity="0.48" d="M27.5457 26.2647C27.5457 26.2647 24.3976 17.5028 24.2592 17.3167C24.1209 17.1301 23.625 16.7139 23.625 16.7139L24.481 17.2664L27.5457 26.2652V26.2647Z" fill="#E5E5E3"/>
</g>
</g>
<defs>
<filter id="filter0_dd_1627_2609" x="-2" y="0" width="74" height="85" filterUnits="userSpaceOnUse" color-interpolation-filters="sRGB">
<feFlood flood-opacity="0" result="BackgroundImageFix"/>
<feColorMatrix in="SourceAlpha" type="matrix" values="0 0 0 0 0 0 0 0 0 0 0 0 0 0 0 0 0 0 127 0" result="hardAlpha"/>
<feOffset dy="4"/>
<feGaussianBlur stdDeviation="8"/>
<feComposite in2="hardAlpha" operator="out"/>
<feColorMatrix type="matrix" values="0 0 0 0 0 0 0 0 0 0 0 0 0 0 0 0 0 0 0.05 0"/>
<feBlend mode="normal" in2="BackgroundImageFix" result="effect1_dropShadow_1627_2609"/>
<feColorMatrix in="SourceAlpha" type="matrix" values="0 0 0 0 0 0 0 0 0 0 0 0 0 0 0 0 0 0 127 0" result="hardAlpha"/>
<feOffset dy="8"/>
<feGaussianBlur stdDeviation="8"/>
<feComposite in2="hardAlpha" operator="out"/>
<feColorMatrix type="matrix" values="0 0 0 0 0 0 0 0 0 0 0 0 0 0 0 0 0 0 0.05 0"/>
<feBlend mode="normal" in2="effect1_dropShadow_1627_2609" result="effect2_dropShadow_1627_2609"/>
<feBlend mode="normal" in="SourceGraphic" in2="effect2_dropShadow_1627_2609" result="shape"/>
</filter>
<linearGradient id="paint0_linear_1627_2609" x1="25.1165" y1="19.641" x2="46.1088" y2="19.641" gradientUnits="userSpaceOnUse">
<stop stop-color="#91969F"/>
<stop offset="0.62" stop-color="#B5C0C9"/>
<stop offset="1" stop-color="#8F939C"/>
</linearGradient>
<linearGradient id="paint1_linear_1627_2609" x1="35.7493" y1="18.7855" x2="35.7493" y2="26.2856" gradientUnits="userSpaceOnUse">
<stop stop-color="#D6D8DB"/>
<stop offset="1" stop-color="#8F939C"/>
</linearGradient>
<linearGradient id="paint2_linear_1627_2609" x1="30.4866" y1="21.5066" x2="31.8121" y2="15.541" gradientUnits="userSpaceOnUse">
<stop stop-color="#8F939C"/>
<stop offset="1" stop-color="#D6D8DB"/>
</linearGradient>
<linearGradient id="paint3_linear_1627_2609" x1="31.7811" y1="14.7809" x2="35.6679" y2="14.7809" gradientUnits="userSpaceOnUse">
<stop stop-color="#8F939C"/>
<stop offset="1" stop-color="#D6D8DB"/>
</linearGradient>
<linearGradient id="paint4_linear_1627_2609" x1="41.0117" y1="21.5066" x2="39.6858" y2="15.541" gradientUnits="userSpaceOnUse">
<stop stop-color="#D6D8DB"/>
<stop offset="1" stop-color="#8F939C"/>
</linearGradient>
<linearGradient id="paint5_linear_1627_2609" x1="35.6679" y1="14.7809" x2="39.6741" y2="14.7809" gradientUnits="userSpaceOnUse">
<stop stop-color="#B5C0C9"/>
<stop offset="1" stop-color="#8F939C"/>
</linearGradient>
<linearGradient id="paint6_linear_1627_2609" x1="35.7523" y1="17.8448" x2="35.7523" y2="26.3762" gradientUnits="userSpaceOnUse">
<stop stop-color="#D6D8DB"/>
<stop offset="1" stop-color="#8F939C"/>
</linearGradient>
<clipPath id="clip0_1627_2609">
<rect width="24.2486" height="15.2821" fill="white" transform="translate(23.625 12)"/>
</clipPath>
</defs>
</svg>
