<svg width="58" height="64" viewBox="0 0 58 64" fill="none" xmlns="http://www.w3.org/2000/svg">
<g filter="url(#filter0_d_1627_2902)">
<path d="M26.375 13.5363C27.9994 12.5984 30.0006 12.5984 31.625 13.5363L42.8115 19.9948C44.4359 20.9326 45.4365 22.6658 45.4365 24.5415V37.4585C45.4365 39.3342 44.4359 41.0674 42.8115 42.0052L31.625 48.4637C30.0006 49.4016 27.9994 49.4016 26.375 48.4637L15.1885 42.0052C13.5641 41.0674 12.5635 39.3342 12.5635 37.4585V24.5415C12.5635 22.6658 13.5641 20.9326 15.1885 19.9948L26.375 13.5363Z" fill="#A95F31" stroke="#EEB870" stroke-width="3.5"/>
<path d="M29.6902 37.7734C27.3403 37.7734 25.8962 36.7566 25.3152 35.5432C25.1785 35.2612 25.1187 34.9878 25.1187 34.7314C25.1187 34.0649 25.5459 33.6462 26.2551 33.6462C26.7678 33.6462 27.0925 33.8513 27.3489 34.3213C27.7847 35.1843 28.4512 35.697 29.7329 35.697C30.9976 35.697 31.8691 34.9622 31.8691 33.9368C31.8777 32.7405 30.9976 32.074 29.5022 32.074H28.9639C28.3401 32.074 27.9812 31.7065 27.9812 31.1511C27.9812 30.6128 28.3401 30.2368 28.9639 30.2368H29.468C30.7583 30.2368 31.5957 29.5361 31.5957 28.5278C31.5957 27.5366 30.9292 26.8787 29.6816 26.8787C28.6392 26.8787 28.0068 27.3145 27.6052 28.186C27.3232 28.7671 27.0242 28.9807 26.4431 28.9807C25.7253 28.9807 25.3579 28.562 25.3579 27.9382C25.3579 27.6477 25.4177 27.3999 25.5459 27.1094C26.0928 25.9045 27.4941 24.8962 29.6731 24.8962C32.2793 24.8962 34.0396 26.1865 34.0396 28.1604C34.0396 29.7241 32.9202 30.7495 31.4675 31.0486V31.0999C33.3047 31.2708 34.4924 32.3474 34.4924 34.0479C34.4924 36.2866 32.5527 37.7734 29.6902 37.7734Z" fill="white"/>
<g clip-path="url(#clip0_1627_2902)">
<path d="M34.7617 11.0669C34.7617 11.0669 34.7584 11.0812 34.7522 11.1043C34.7699 11.1947 34.7789 11.2875 34.7789 11.3828C34.7789 12.1903 34.1235 12.8449 33.3161 12.8449C32.5087 12.8449 31.8524 12.1903 31.8524 11.3828C31.8524 10.8881 32.0953 10.4521 32.4713 10.1875C32.4848 10.1731 32.4861 10.1645 32.4861 10.1645C32.4861 10.1645 32.6771 9.29832 31.2694 7.09627C29.862 4.89423 28.6075 4.75 28.6075 4.75C28.6075 4.75 27.3801 4.89423 25.9724 7.09627C24.5646 9.29791 24.7692 10.1645 24.7692 10.1645C24.7692 10.1645 24.7775 10.1731 24.791 10.1875C25.1666 10.4521 25.4131 10.8885 25.4131 11.3828C25.4131 12.1903 24.7586 12.8449 23.9511 12.8449C23.1437 12.8449 22.4891 12.1903 22.4891 11.3828C22.4891 11.2875 22.499 11.1947 22.5167 11.1043C22.5105 11.0808 22.5072 11.0669 22.5072 11.0669C22.5072 11.0669 20.1609 8.93754 16.75 9.37064L20.4136 19.2607C20.4136 19.2607 22.8499 19.73 28.6075 19.73C34.3651 19.73 36.8552 19.2607 36.8552 19.2607L40.5189 9.37064C37.1079 8.93754 34.7617 11.0669 34.7617 11.0669Z" fill="url(#paint0_linear_1627_2902)"/>
<g style="mix-blend-mode:overlay" opacity="0.25">
<path d="M37.096 9.75319C35.6381 10.273 34.7621 11.0665 34.7621 11.0665C34.7621 11.0665 34.7588 11.0808 34.7526 11.1038C34.7703 11.1942 34.7793 11.2871 34.7793 11.3824C34.7793 12.1899 34.1239 12.8444 33.3165 12.8444C32.5091 12.8444 31.8529 12.1899 31.8529 11.3824C31.8529 10.8877 32.0957 10.4517 32.4717 10.1871C32.4852 10.1727 32.4865 10.1641 32.4865 10.1641C32.4865 10.1641 32.6775 9.29791 31.2698 7.09586C29.862 4.89423 28.6075 4.75 28.6075 4.75C28.6075 4.75 27.3801 4.89423 25.9724 7.09627C24.5646 9.29791 24.7692 10.1645 24.7692 10.1645C24.7692 10.1645 24.7775 10.1731 24.791 10.1875C25.1666 10.4521 25.4131 10.8885 25.4131 11.3828C25.4131 12.1903 24.7586 12.8449 23.9511 12.8449C23.1437 12.8449 22.4891 12.1903 22.4891 11.3828C22.4891 11.2875 22.499 11.1947 22.5167 11.1043C22.5105 11.0808 22.5072 11.0669 22.5072 11.0669C22.5072 11.0669 20.1609 8.93754 16.75 9.37064L20.4136 19.2607C20.4136 19.2607 22.8499 19.73 28.6075 19.73C29.1195 19.73 29.6073 19.7259 30.0712 19.7185C34.2172 18.0987 37.1079 14.4548 37.1079 10.2183C37.1079 10.0626 37.103 9.90769 37.0956 9.75319H37.096Z" fill="#FFFFD9"/>
</g>
<g style="mix-blend-mode:overlay" opacity="0.25">
<path d="M34.0551 12.6427C33.8381 12.7701 33.5862 12.8449 33.3162 12.8449C32.5088 12.8449 31.8526 12.1903 31.8526 11.3828C31.8526 10.8881 32.0954 10.4521 32.4714 10.1875C32.485 10.1731 32.4862 10.1645 32.4862 10.1645C32.4862 10.1645 32.6773 9.29832 31.2695 7.09627C29.8618 4.89423 28.6073 4.75 28.6073 4.75C28.6073 4.75 27.3799 4.89423 25.9721 7.09627C24.5644 9.29791 24.769 10.1645 24.769 10.1645C24.769 10.1645 24.7772 10.1731 24.7908 10.1875C25.1663 10.4521 25.4129 10.8885 25.4129 11.3828C25.4129 12.1903 24.7583 12.8449 23.9509 12.8449C23.1434 12.8449 22.4889 12.1903 22.4889 11.3828C22.4889 11.2875 22.4987 11.1947 22.5164 11.1043C22.5102 11.0808 22.5069 11.0669 22.5069 11.0669C22.5069 11.0669 21.1908 9.87277 19.0977 9.45488C19.3709 13.6913 22.8073 17.0414 27.0092 17.0414C30.0767 17.0414 32.7356 15.2552 34.0546 12.6431L34.0551 12.6427Z" fill="#FFFFD9"/>
</g>
<g style="mix-blend-mode:overlay" opacity="0.25">
<path d="M32.133 8.68278C31.9498 8.25791 31.6773 7.73359 31.2697 7.09627C29.8619 4.89423 28.6074 4.75 28.6074 4.75C28.6074 4.75 27.3801 4.89423 25.9723 7.09627C24.5645 9.29791 24.7692 10.1645 24.7692 10.1645C24.7692 10.1645 24.7774 10.1731 24.7909 10.1875C25.1665 10.4521 25.4131 10.8885 25.4131 11.3828C25.4131 11.6939 25.3149 11.9819 25.1493 12.219C25.8885 13.3207 26.9318 14.0085 28.0889 14.0085C30.2289 14.0085 31.9802 11.6602 32.133 8.68278Z" fill="#FFFFD9"/>
</g>
<g style="mix-blend-mode:overlay" opacity="0.25">
<path d="M25.397 12.5569C27.023 12.2984 28.5618 9.72821 28.6346 8.30565C28.7159 6.7175 28.6074 5.12071 28.6074 5.12071C28.5705 4.99662 28.5836 4.87212 28.6074 4.75049C28.2721 4.84459 27.1261 5.29247 25.9723 7.09676C24.5645 9.2984 24.7692 10.165 24.7692 10.165C24.7692 10.165 24.7774 10.1736 24.7909 10.188C25.1665 10.4526 25.4131 10.889 25.4131 11.3833C25.4131 11.6944 25.3149 11.9824 25.1493 12.2195C25.2282 12.3375 25.3116 12.4492 25.3974 12.5573L25.397 12.5569Z" fill="#FFFFD9"/>
</g>
<path d="M36.6346 18.7327C36.6346 18.7327 34.1486 19.5311 28.6075 19.5311C23.0664 19.5311 20.6483 18.773 20.6483 18.773L17.5891 9.91182C17.4884 9.92045 16.8531 9.35751 16.75 9.37025L20.4136 19.2604C20.4136 19.2604 22.8499 19.7296 28.6075 19.7296C34.3651 19.7296 36.8552 19.2604 36.8552 19.2604L40.5189 9.37025C40.4161 9.3571 39.8807 9.85594 39.7796 9.84731L36.6342 18.7327H36.6346Z" fill="url(#paint1_linear_1627_2902)"/>
<path d="M24.0324 13.5394C25.1237 13.5394 26.0084 12.6543 26.0084 11.5629C26.0084 10.7382 25.5026 10.0319 24.7847 9.7356C24.7379 10.0302 24.7691 10.1642 24.7691 10.1642C24.7691 10.1642 24.7773 10.1728 24.7909 10.1872C25.1665 10.4518 25.413 10.8882 25.413 11.3825C25.413 12.1899 24.7584 12.8445 23.951 12.8445C23.1436 12.8445 22.489 12.1899 22.489 11.3825C22.489 11.2872 22.4989 11.1943 22.5165 11.1039C22.5104 11.0805 22.5071 11.0665 22.5071 11.0665C22.5071 11.0665 22.4002 10.97 22.2005 10.8229C22.1081 11.0517 22.0559 11.3011 22.0559 11.5629C22.0559 12.6543 22.941 13.5394 24.0324 13.5394Z" fill="url(#paint2_linear_1627_2902)"/>
<path d="M25.9601 7.09627C24.6674 9.11834 24.741 10.0133 24.7603 10.146C24.9403 10.1546 25.195 10.1715 25.4079 10.2015C25.3923 9.95536 25.4297 9.04849 26.6086 7.20434C27.3831 5.99217 28.1314 5.40457 28.5834 5.12023V4.75C28.5834 4.75 27.3683 4.89423 25.9601 7.09627Z" fill="url(#paint3_linear_1627_2902)"/>
<path d="M22.5074 11.0668C22.5074 11.0668 20.1619 8.93747 16.751 9.37015L17.604 9.86488C20.3041 10.0038 22.0743 11.6084 22.0743 11.6084C22.2058 11.4461 22.3603 11.2722 22.5168 11.1038C22.5106 11.0808 22.5074 11.0668 22.5074 11.0668Z" fill="url(#paint4_linear_1627_2902)"/>
<path d="M26.8576 5.91492C26.8465 5.92725 26.8412 5.93998 26.8309 5.95149C26.8009 5.98477 26.7738 6.01806 26.7434 6.05298C26.7372 6.05997 26.7343 6.0649 26.7343 6.0649C26.7343 6.0649 27.4559 5.38608 27.7739 5.25747C28.092 5.12886 27.8762 5.40663 27.6391 5.59606C27.4025 5.78548 26.2721 7.46404 25.8525 8.39145C25.6471 8.84591 25.537 9.28887 25.4778 9.62335C25.5928 9.13478 25.8891 8.35077 26.6217 7.20475C26.7504 7.00341 26.8773 6.82097 27.0022 6.6525C27.105 6.5095 27.2184 6.36116 27.3421 6.21324C27.4678 6.06326 27.5853 5.92971 27.7127 5.81096C28.0492 5.47936 28.3771 5.2624 28.5826 5.12064V4.75C28.5826 4.75 27.8512 4.83793 26.8572 5.91492H26.8576Z" fill="#FFFCDE"/>
<path d="M25.1742 12.6551C25.0197 12.6662 24.8989 12.6009 24.829 12.5495C24.6778 12.6633 24.504 12.7484 24.315 12.7969C24.3598 12.833 24.4033 12.8741 24.4337 12.9169C24.5237 13.0426 24.3704 13.2686 23.8654 13.3857C23.6888 13.4268 23.4628 13.4112 23.2429 13.3738C23.4845 13.4794 23.7516 13.539 24.0323 13.539C25.0332 13.539 25.8587 12.7936 25.9886 11.8284C25.8472 12.3819 25.4199 12.6366 25.1738 12.6547L25.1742 12.6551Z" fill="#FFFCDE"/>
<path d="M22.512 11.1301C22.512 11.1301 22.0924 11.5903 22.0969 11.6712C22.1015 11.7526 22.1705 12.226 22.1705 12.226C22.1705 12.226 22.0924 12.0489 22.0563 11.8282C22.0201 11.608 21.716 11.2768 21.2275 11.0027C20.7385 10.7286 19.4819 10.208 19.4819 10.208C19.4819 10.208 20.5178 10.5117 21.0323 10.8001C21.5467 11.089 21.8672 11.4272 22.1064 11.3236C22.3451 11.2197 21.8664 10.5902 21.8664 10.5902C21.8664 10.5902 22.2556 10.8051 22.3817 10.9357C22.5078 11.0664 22.5576 11.1026 22.5124 11.1297L22.512 11.1301Z" fill="#FFFCDE"/>
<path d="M18.8347 9.92092C17.9866 9.79477 17.761 9.80381 17.4988 9.66821C17.2371 9.53302 17.5531 9.42454 18.0314 9.4155C18.5097 9.40646 19.2415 9.48494 19.2415 9.48494C19.2415 9.48494 18.102 9.15499 16.751 9.3703L17.5892 9.91188C17.5892 9.91188 18.9432 9.99282 19.6918 10.2817C20.4409 10.5706 20.5079 10.5603 20.5079 10.5603C20.5079 10.5603 19.6828 10.0471 18.8343 9.92051L18.8347 9.92092Z" fill="#FFFCDE"/>
<path d="M33.2363 13.5394C32.1449 13.5394 31.2603 12.6543 31.2603 11.5629C31.2603 10.7382 31.7661 10.0319 32.4839 9.7356C32.5308 10.0302 32.4995 10.1642 32.4995 10.1642C32.4995 10.1642 32.4913 10.1728 32.4778 10.1872C32.1022 10.4518 31.8557 10.8882 31.8557 11.3825C31.8557 12.1899 32.5102 12.8445 33.3177 12.8445C34.1251 12.8445 34.7797 12.1899 34.7797 11.3825C34.7797 11.2872 34.7698 11.1943 34.7521 11.1039C34.7583 11.0805 34.7616 11.0665 34.7616 11.0665C34.7616 11.0665 34.8684 10.97 35.0681 10.8229C35.1606 11.0517 35.2128 11.3011 35.2128 11.5629C35.2128 12.6543 34.3281 13.5394 33.2363 13.5394Z" fill="url(#paint5_linear_1627_2902)"/>
<path d="M31.2572 7.09627C32.5499 9.11834 32.5026 10.0133 32.4833 10.146C32.3025 10.1546 32.0609 10.1715 31.8485 10.2015C31.8641 9.95536 31.7819 9.04849 30.6026 7.20434C29.8281 5.99217 29.1994 5.40457 28.583 5.12023V4.75C28.583 4.75 29.8494 4.89423 31.2572 7.09627Z" fill="url(#paint6_linear_1627_2902)"/>
<path d="M34.7614 11.0668C34.7614 11.0668 37.1073 8.93785 40.5178 9.37053L39.6647 9.86526C36.9647 10.0041 35.1945 11.6087 35.1945 11.6087C35.063 11.4464 34.9085 11.2726 34.752 11.1041C34.7581 11.0811 34.761 11.0672 34.761 11.0672L34.7614 11.0668Z" fill="url(#paint7_linear_1627_2902)"/>
<path d="M32.095 12.6551C32.2491 12.6662 32.3703 12.6009 32.4398 12.5495C32.591 12.6633 32.7648 12.7484 32.9534 12.7969C32.9086 12.833 32.8651 12.8741 32.8347 12.9169C32.7447 13.0426 32.8979 13.2686 33.4029 13.3857C33.5792 13.4268 33.8052 13.4112 34.0255 13.3738C33.7834 13.4794 33.5168 13.539 33.2361 13.539C32.2351 13.539 31.41 12.7936 31.2798 11.8284C31.4215 12.3819 31.8489 12.6366 32.0946 12.6547L32.095 12.6551Z" fill="#FFFCDE"/>
<path d="M40.5181 9.37023C39.1671 9.1545 38.0276 9.48487 38.0276 9.48487C38.0276 9.48487 38.759 9.40639 39.2373 9.41543C39.7156 9.42447 39.9231 9.53254 39.6614 9.66814C39.3996 9.80374 39.172 9.79716 38.3346 9.98371C37.3599 10.2015 36.4107 10.7114 36.4107 10.7114C36.4107 10.7114 36.2899 10.7706 36.2361 10.8006C35.722 11.0895 35.2573 11.3644 35.1578 11.2472C34.9894 11.0484 35.4023 10.5906 35.4023 10.5906C35.4023 10.5906 35.0132 10.8055 34.8871 10.9362C34.7609 11.0669 34.7112 11.103 34.7564 11.1301C34.7564 11.1301 35.1759 11.5904 35.1714 11.6713C35.1669 11.7527 35.0979 12.226 35.0979 12.226C35.0979 12.226 35.1759 12.0489 35.2121 11.8283C35.2482 11.608 35.5523 11.2768 36.0409 11.0028C36.4953 10.748 37.6208 10.3202 37.7794 10.2631C38.5334 9.9907 39.679 9.91098 39.679 9.91098L40.5173 9.36941L40.5181 9.37023Z" fill="#FFFCDE"/>
<path d="M20.656 18.7759L20.4136 19.2603C20.4136 19.2603 22.8498 19.7296 28.6075 19.7296C34.3651 19.7296 36.8552 19.2603 36.8552 19.2603L36.8613 19.248L36.6341 18.7323C36.6341 18.7323 34.1481 19.5307 28.607 19.5307C23.066 19.5307 20.7986 18.8223 20.6556 18.7754L20.656 18.7759Z" fill="#572600"/>
<path d="M36.6345 18.7327C36.6345 18.7327 39.7208 10.144 39.856 9.96112C39.9912 9.77827 40.5184 9.37024 40.5184 9.37024L39.6802 9.91181L36.6345 18.7327Z" fill="#E38250"/>
<path d="M20.5932 18.7327C20.5932 18.7327 17.5073 10.1439 17.3717 9.96149C17.2365 9.77864 16.75 9.37061 16.75 9.37061L17.5891 9.91218L20.5932 18.7331V18.7327Z" fill="#FFFCDE"/>
</g>
</g>
<defs>
<filter id="filter0_d_1627_2902" x="0" y="0.75" width="58" height="63.25" filterUnits="userSpaceOnUse" color-interpolation-filters="sRGB">
<feFlood flood-opacity="0" result="BackgroundImageFix"/>
<feColorMatrix in="SourceAlpha" type="matrix" values="0 0 0 0 0 0 0 0 0 0 0 0 0 0 0 0 0 0 127 0" result="hardAlpha"/>
<feOffset dy="4"/>
<feGaussianBlur stdDeviation="4"/>
<feComposite in2="hardAlpha" operator="out"/>
<feColorMatrix type="matrix" values="0 0 0 0 0 0 0 0 0 0 0 0 0 0 0 0 0 0 0.05 0"/>
<feBlend mode="normal" in2="BackgroundImageFix" result="effect1_dropShadow_1627_2902"/>
<feBlend mode="normal" in="SourceGraphic" in2="effect1_dropShadow_1627_2902" result="shape"/>
</filter>
<linearGradient id="paint0_linear_1627_2902" x1="18.212" y1="12.24" x2="38.789" y2="12.24" gradientUnits="userSpaceOnUse">
<stop stop-color="#864725"/>
<stop offset="0.43" stop-color="#E38250"/>
<stop offset="0.71" stop-color="#BD6E50"/>
<stop offset="1" stop-color="#572600"/>
</linearGradient>
<linearGradient id="paint1_linear_1627_2902" x1="28.6346" y1="11.4014" x2="28.6346" y2="18.7533" gradientUnits="userSpaceOnUse">
<stop stop-color="#E38250"/>
<stop offset="1" stop-color="#BD6E50"/>
</linearGradient>
<linearGradient id="paint2_linear_1627_2902" x1="23.476" y1="14.0686" x2="24.7753" y2="8.221" gradientUnits="userSpaceOnUse">
<stop stop-color="#572600"/>
<stop offset="0.43" stop-color="#BD6E50"/>
<stop offset="1" stop-color="#E38250"/>
</linearGradient>
<linearGradient id="paint3_linear_1627_2902" x1="24.7525" y1="7.47595" x2="28.583" y2="7.47595" gradientUnits="userSpaceOnUse">
<stop stop-color="#572600"/>
<stop offset="0.43" stop-color="#BD6E50"/>
<stop offset="1" stop-color="#E38250"/>
</linearGradient>
<linearGradient id="paint4_linear_1627_2902" x1="16.751" y1="10.4603" x2="22.5168" y2="10.4603" gradientUnits="userSpaceOnUse">
<stop stop-color="#E38250"/>
<stop offset="0.57" stop-color="#BD6E50"/>
<stop offset="1" stop-color="#572600"/>
</linearGradient>
<linearGradient id="paint5_linear_1627_2902" x1="33.7931" y1="14.0686" x2="32.4934" y2="8.221" gradientUnits="userSpaceOnUse">
<stop stop-color="#E38250"/>
<stop offset="0.57" stop-color="#BD6E50"/>
<stop offset="1" stop-color="#572600"/>
</linearGradient>
<linearGradient id="paint6_linear_1627_2902" x1="32.4891" y1="7.47595" x2="28.5826" y2="7.47595" gradientUnits="userSpaceOnUse">
<stop stop-color="#572600"/>
<stop offset="0.43" stop-color="#BD6E50"/>
<stop offset="1" stop-color="#E38250"/>
</linearGradient>
<linearGradient id="paint7_linear_1627_2902" x1="34.7524" y1="4.74989" x2="40.5182" y2="4.74989" gradientUnits="userSpaceOnUse">
<stop stop-color="#E38250"/>
<stop offset="0.57" stop-color="#BD6E50"/>
<stop offset="1" stop-color="#572600"/>
</linearGradient>
<clipPath id="clip0_1627_2902">
<rect width="23.7689" height="14.98" fill="white" transform="translate(16.75 4.75)"/>
</clipPath>
</defs>
</svg>
