<svg width="32" height="30" viewBox="0 0 32 30" fill="none" xmlns="http://www.w3.org/2000/svg">
<path d="M20.8 20H23.2C23.6 20 24 19.5 24 19V8.5C24 8 23.6 7.5 23.2 7.5H20.8C20.4 7.5 20 8 20 8.5V19C20 19.5 20.4 20 20.8 20ZM26.8 20H29.2C29.6 20 30 19.5 30 19V1C30 0.5 29.6 0 29.2 0H26.8C26.4 0 26 0.5 26 1V19C26 19.5 26.4 20 26.8 20ZM8.8 20H11.2C11.6 20 12 19.5 12 19V13.5C12 13 11.6 12.5 11.2 12.5H8.8C8.4 12.5 8 13 8 13.5V19C8 19.5 8.4 20 8.8 20ZM14.8 20H17.2C17.6 20 18 19.5 18 19V3.5C18 3 17.6 2.5 17.2 2.5H14.8C14.4 2.5 14 3 14 3.5V19C14 19.5 14.4 20 14.8 20ZM31 25H4V1.25C4 0.559375 3.5525 0 3 0H1C0.4475 0 0 0.559375 0 1.25V27.5C0 28.8805 0.895625 30 2 30H31C31.5525 30 32 29.4406 32 28.75V26.25C32 25.5594 31.5525 25 31 25Z" fill="#613023"/>
</svg>
