<svg width="20" height="20" viewBox="0 0 20 20" fill="none" xmlns="http://www.w3.org/2000/svg">
<path fill-rule="evenodd" clip-rule="evenodd" d="M12.1821 16.7409C11.4947 16.9633 10.7613 17.0834 9.99984 17.0834C9.17188 17.0834 8.3771 16.9414 7.63854 16.6803C6.98999 16.4505 6.38504 16.1283 5.83814 15.7287C5.98141 15.509 6.20796 15.2718 6.55275 15.0393C7.44659 14.4467 8.69469 14.1126 10.0059 14.1126C11.3184 14.1126 12.5611 14.4473 13.4448 15.0381C13.7906 15.271 14.0176 15.5086 14.1611 15.7287C13.5643 16.1648 12.8984 16.5087 12.1821 16.7409ZM15.1102 14.905C14.8693 14.5784 14.5456 14.2721 14.1413 14.0001C11.8746 12.4835 8.14131 12.4835 5.85798 14.0001C5.45383 14.2721 5.13014 14.5783 4.88925 14.9047C3.66744 13.632 2.9165 11.9037 2.9165 10.0001C2.9165 6.08806 6.08782 2.91675 9.99984 2.91675C13.9119 2.91675 17.0832 6.08806 17.0832 10.0001C17.0832 11.9038 16.3321 13.6322 15.1102 14.905ZM11.8631 18.1243C15.5685 17.278 18.3332 13.9619 18.3332 10.0001C18.3332 5.39771 14.6022 1.66675 9.99984 1.66675C5.39746 1.66675 1.6665 5.39771 1.6665 10.0001C1.6665 13.8508 4.27836 17.0916 7.82716 18.0473C8.51931 18.234 9.24742 18.3335 9.99964 18.3335C10.6408 18.3335 11.2644 18.2612 11.8631 18.1243ZM10.1218 11.6667C11.9104 11.6057 13.323 10.14 13.3332 8.3385C13.3332 6.49626 11.8393 5.00008 9.99984 5.00008C8.15024 5.00008 6.6665 6.49626 6.6665 8.3385C6.6665 10.14 8.08927 11.6057 9.87789 11.6667C9.95919 11.6566 10.0507 11.6566 10.1218 11.6667ZM9.85276 10.4141C8.76922 10.3421 7.9165 9.44306 7.9165 8.3385C7.9165 7.18234 8.84488 6.25008 9.99984 6.25008C11.146 6.25008 12.0813 7.18292 12.0832 8.33499C12.0751 9.44842 11.2246 10.3409 10.1496 10.4139C10.0489 10.4072 9.94838 10.4078 9.85276 10.4141Z" fill="#A7ABC3"/>
</svg>
