<svg width="17" height="19" viewBox="0 0 17 19" fill="none" xmlns="http://www.w3.org/2000/svg">
<path fill-rule="evenodd" clip-rule="evenodd" d="M1.34243 12.3424C2.20197 11.4829 3.36776 11 4.58333 11H11.9167C13.1322 11 14.298 11.4829 15.1576 12.3424C16.0171 13.202 16.5 14.3678 16.5 15.5833V17.4167C16.5 17.9229 16.0896 18.3333 15.5833 18.3333C15.0771 18.3333 14.6667 17.9229 14.6667 17.4167V15.5833C14.6667 14.854 14.3769 14.1545 13.8612 13.6388C13.3455 13.1231 12.646 12.8333 11.9167 12.8333H4.58333C3.85399 12.8333 3.15452 13.1231 2.63879 13.6388C2.12306 14.1545 1.83333 14.854 1.83333 15.5833V17.4167C1.83333 17.9229 1.42293 18.3333 0.916667 18.3333C0.410406 18.3333 0 17.9229 0 17.4167V15.5833C0 14.3678 0.482885 13.202 1.34243 12.3424Z" fill="#161719"/>
<path fill-rule="evenodd" clip-rule="evenodd" d="M0 17.3065C0 16.699 0.492487 16.2065 1.1 16.2065H15.4C16.0075 16.2065 16.5 16.699 16.5 17.3065C16.5 17.9141 16.0075 18.4065 15.4 18.4065H1.1C0.492487 18.4065 0 17.9141 0 17.3065Z" fill="#161719"/>
<path fill-rule="evenodd" clip-rule="evenodd" d="M8.25032 1.83333C6.73154 1.83333 5.50033 3.06455 5.50033 4.58333C5.50033 6.10212 6.73154 7.33333 8.25032 7.33333C9.76911 7.33333 11.0003 6.10212 11.0003 4.58333C11.0003 3.06455 9.76911 1.83333 8.25032 1.83333ZM3.66699 4.58333C3.66699 2.05203 5.71902 0 8.25032 0C10.7816 0 12.8337 2.05203 12.8337 4.58333C12.8337 7.11464 10.7816 9.16667 8.25032 9.16667C5.71902 9.16667 3.66699 7.11464 3.66699 4.58333Z" fill="#161719"/>
</svg>
