<svg width="98" height="40" viewBox="0 0 98 40" fill="none" xmlns="http://www.w3.org/2000/svg">
<g clip-path="url(#clip0_1212_7822)">
<path fill-rule="evenodd" clip-rule="evenodd" d="M14.4193 14.9742C14.2073 14.6078 14.0712 14.2025 14.0188 13.7824C13.9664 13.3623 13.9989 12.936 14.1144 12.5288C14.2299 12.1215 14.426 11.7416 14.691 11.4115C14.9561 11.0815 15.2847 10.808 15.6575 10.6073L16.0665 10.3751C16.7635 9.99177 17.5828 9.89626 18.3492 10.1091C19.1157 10.3218 19.7685 10.826 20.1681 11.5139L24.1591 18.3406L28.1501 11.5083C28.5469 10.8305 29.1965 10.338 29.9563 10.139C30.7161 9.93995 31.5238 10.0507 32.2019 10.447L32.6939 10.74C33.404 11.1527 33.9222 11.8293 34.1355 12.6225C34.3488 13.4157 34.2399 14.261 33.8326 14.9742C32.0637 18.0974 29.1009 23.3155 26.9285 27.1352C26.6522 27.6251 26.2507 28.0328 25.7651 28.3165C25.2794 28.6002 24.7271 28.7497 24.1646 28.7497C23.6022 28.7497 23.0498 28.6002 22.5642 28.3165C22.0785 28.0328 21.677 27.6251 21.4008 27.1352L14.4193 14.9742Z" fill="#ED2132"/>
<path fill-rule="evenodd" clip-rule="evenodd" d="M19.9872 11.1997C19.4106 10.6935 18.6646 10.4231 17.8977 10.4424C17.5235 10.4537 17.1589 10.5637 16.841 10.7614C16.523 10.9591 16.263 11.2374 16.0873 11.568C15.9117 11.8986 15.8265 12.2697 15.8406 12.6439C15.8547 13.018 15.9675 13.3817 16.1675 13.6982C17.1404 15.3841 18.6108 17.8827 19.0253 18.5184C19.2953 18.955 19.6768 19.3117 20.1306 19.5517C20.5844 19.7917 21.0939 19.9063 21.6068 19.8837C23.0329 19.8837 24.1606 18.3415 24.1606 18.3415L19.9872 11.1997Z" fill="#A02C22"/>
<path fill-rule="evenodd" clip-rule="evenodd" d="M40.5315 23.7473H45.4346C45.7102 23.7473 45.9745 23.6378 46.1694 23.4429C46.3643 23.248 46.4738 22.9837 46.4738 22.7081C46.4738 22.4325 46.3643 22.1682 46.1694 21.9733C45.9745 21.7784 45.7102 21.6689 45.4346 21.6689H40.5315V19.1538H45.4512C45.5936 19.1642 45.7367 19.1451 45.8715 19.0978C46.0063 19.0504 46.1298 18.9757 46.2345 18.8785C46.3391 18.7812 46.4225 18.6634 46.4796 18.5325C46.5367 18.4015 46.5661 18.2602 46.5661 18.1173C46.5661 17.9745 46.5367 17.8332 46.4796 17.7022C46.4225 17.5712 46.3391 17.4535 46.2345 17.3562C46.1298 17.2589 46.0063 17.1843 45.8715 17.1369C45.7367 17.0896 45.5936 17.0705 45.4512 17.0809H39.4868C39.2112 17.0809 38.9468 17.1904 38.7519 17.3853C38.557 17.5802 38.4476 17.8445 38.4476 18.1201V27.3016C38.4476 27.5772 38.557 27.8416 38.7519 28.0365C38.9468 28.2313 39.2112 28.3408 39.4868 28.3408H45.4291C45.5655 28.3408 45.7007 28.314 45.8267 28.2617C45.9528 28.2095 46.0674 28.133 46.1639 28.0365C46.2604 27.94 46.3369 27.8254 46.3892 27.6993C46.4414 27.5732 46.4683 27.4381 46.4683 27.3016C46.4683 27.1652 46.4414 27.03 46.3892 26.9039C46.3369 26.7779 46.2604 26.6633 46.1639 26.5668C46.0674 26.4703 45.9528 26.3937 45.8267 26.3415C45.7007 26.2893 45.5655 26.2624 45.4291 26.2624H40.5315V23.7473ZM49.8623 19.1538V27.3016C49.8623 27.5772 49.9718 27.8416 50.1667 28.0365C50.3616 28.2313 50.6259 28.3408 50.9015 28.3408C51.1771 28.3408 51.4414 28.2313 51.6363 28.0365C51.8312 27.8416 51.9407 27.5772 51.9407 27.3016V19.1538H53.8312C53.9737 19.1642 54.1167 19.1451 54.2515 19.0978C54.3863 19.0504 54.5098 18.9757 54.6145 18.8785C54.7191 18.7812 54.8026 18.6634 54.8596 18.5325C54.9167 18.4015 54.9461 18.2602 54.9461 18.1173C54.9461 17.9745 54.9167 17.8332 54.8596 17.7022C54.8026 17.5712 54.7191 17.4535 54.6145 17.3562C54.5098 17.2589 54.3863 17.1843 54.2515 17.1369C54.1167 17.0896 53.9737 17.0705 53.8312 17.0809H47.9C47.7575 17.0705 47.6144 17.0896 47.4796 17.1369C47.3448 17.1843 47.2213 17.2589 47.1167 17.3562C47.012 17.4535 46.9286 17.5712 46.8715 17.7022C46.8144 17.8332 46.785 17.9745 46.785 18.1173C46.785 18.2602 46.8144 18.4015 46.8715 18.5325C46.9286 18.6634 47.012 18.7812 47.1167 18.8785C47.2213 18.9757 47.3448 19.0504 47.4796 19.0978C47.6144 19.1451 47.7575 19.1642 47.9 19.1538H49.8623ZM34.6113 18.1201V27.3016C34.6113 27.5772 34.7208 27.8416 34.9157 28.0365C35.1106 28.2313 35.3749 28.3408 35.6505 28.3408C35.9262 28.3408 36.1905 28.2313 36.3854 28.0365C36.5803 27.8416 36.6897 27.5772 36.6897 27.3016V18.1201C36.6897 17.8445 36.5803 17.5802 36.3854 17.3853C36.1905 17.1904 35.9262 17.0809 35.6505 17.0809C35.3749 17.0809 35.1106 17.1904 34.9157 17.3853C34.7208 17.5802 34.6113 17.8445 34.6113 18.1201Z" fill="#ED2132"/>
<path fill-rule="evenodd" clip-rule="evenodd" d="M60.986 26.2738L62.1579 28.3467C62.1579 28.3467 61.3232 28.4351 60.7152 28.4517C58.7749 28.4959 54.7286 27.2964 54.7286 22.7139C54.7286 18.1315 59.0845 16.9983 60.8091 16.9983C62.5338 16.9983 66.8454 18.2918 66.8454 22.7139C66.8847 23.4763 66.7566 24.2381 66.4702 24.9457C66.1837 25.6534 65.7457 26.2897 65.1871 26.81L66.0273 28.2417H63.6061L60.5935 22.9793H62.9594L63.8051 24.411C64.1406 23.911 64.3037 23.3151 64.2695 22.7139C64.2695 21.6084 63.374 19.1873 60.8533 19.1873C60.3886 19.1757 59.9264 19.2592 59.4951 19.4328C59.0638 19.6064 58.6726 19.8663 58.3454 20.1966C58.0182 20.5269 57.762 20.9205 57.5925 21.3534C57.423 21.7863 57.3439 22.2493 57.3598 22.7139C57.3598 26.3678 60.986 26.2738 60.986 26.2738Z" fill="#1E427E"/>
<path fill-rule="evenodd" clip-rule="evenodd" d="M68.0005 17.186H73.1468C75.0041 17.186 77.5414 18.3745 77.5414 21.1936C77.5826 21.9515 77.3857 22.7032 76.9783 23.3435C76.5709 23.9839 75.9734 24.4808 75.2695 24.7645L77.7791 28.247H74.9599L70.7865 22.1665H73.5504L74.0257 22.8796C74.3266 22.723 74.5764 22.4837 74.7458 22.1899C74.9152 21.8961 74.9972 21.5601 74.982 21.2213C74.9688 20.9466 74.9006 20.6775 74.7815 20.4296C74.6624 20.1818 74.4949 19.9604 74.2887 19.7785C74.0826 19.5966 73.8421 19.4578 73.5814 19.3705C73.3207 19.2831 73.0451 19.249 72.7709 19.27H70.5267V28.2415H67.9839L68.0005 17.186Z" fill="#1E427E"/>
<path d="M80.5699 12.4321H77.8005V13.1397H80.5699V12.4321Z" fill="#414141"/>
<path d="M79.5852 12.7859H78.7837V15.6271H79.5852V12.7859Z" fill="#414141"/>
<path fill-rule="evenodd" clip-rule="evenodd" d="M80.9696 12.4321H81.6384L82.6776 14.2065L83.7445 12.4321H84.4244V15.6271H83.6782V13.9025L82.9098 15.1352H82.4676L81.7269 13.897V15.6271H80.9641L80.9696 12.4321Z" fill="#414141"/>
</g>
<defs>
<clipPath id="clip0_1212_7822">
<rect width="70.4231" height="18.75" fill="white" transform="translate(14 10)"/>
</clipPath>
</defs>
</svg>
