<svg width="99" height="40" viewBox="0 0 99 40" fill="none" xmlns="http://www.w3.org/2000/svg">
<g clip-path="url(#clip0_1212_7823)">
<path d="M23.916 28.6449C24.1969 28.6652 24.4772 28.5988 24.719 28.4546C24.8147 28.3849 24.8948 28.296 24.9542 28.1936C25.0136 28.0912 25.051 27.9775 25.0639 27.8598C25.083 27.7913 25.0881 27.7197 25.0789 27.6492C25.0697 27.5787 25.0464 27.5107 25.0104 27.4494C24.8818 27.2835 24.7222 27.1442 24.5405 27.039L23.583 26.3788C23.3909 26.2518 23.2219 26.0929 23.0834 25.909C22.9759 25.7622 22.9083 25.5901 22.8871 25.4094C22.8551 25.2224 22.8551 25.0313 22.8871 24.8443C22.9703 24.369 23.232 23.9435 23.6187 23.6548C24.1063 23.341 24.6814 23.191 25.2602 23.2266C25.5291 23.2261 25.7969 23.2601 26.0572 23.3277C26.2652 23.3742 26.4655 23.4503 26.652 23.5537C26.6951 23.5831 26.7349 23.617 26.7709 23.6548C26.7804 23.6743 26.7853 23.6956 26.7853 23.7173C26.7853 23.7389 26.7804 23.7603 26.7709 23.7797L26.646 24.3745C26.6163 24.5113 26.539 24.5529 26.4081 24.4994C26.2158 24.4246 26.0166 24.3688 25.8133 24.3328C25.5707 24.2816 25.3238 24.2537 25.0758 24.2496C24.4811 24.2496 24.1539 24.4459 24.0707 24.8443C24.0545 24.903 24.052 24.9646 24.0634 25.0244C24.0747 25.0842 24.0996 25.1406 24.1361 25.1893C24.2727 25.3385 24.4287 25.4685 24.6 25.5759L25.4803 26.1707C25.7064 26.3107 25.9074 26.4876 26.075 26.6941C26.1927 26.8544 26.272 27.0396 26.307 27.2353C26.3294 27.448 26.3174 27.6629 26.2713 27.8717C26.2028 28.1818 26.069 28.4738 25.8788 28.7282C25.6558 29.0167 25.3631 29.2439 25.0283 29.3884C24.6175 29.5658 24.1729 29.651 23.7257 29.6382C23.4144 29.6413 23.1041 29.6013 22.8038 29.5192C22.6115 29.4736 22.427 29.3994 22.2566 29.2991C22.2065 29.2722 22.1621 29.2359 22.1258 29.1921C22.1181 29.1742 22.1141 29.155 22.1141 29.1356C22.1141 29.1162 22.1181 29.0969 22.1258 29.0791L22.2447 28.4843C22.2473 28.4578 22.2564 28.4323 22.2713 28.4102C22.2862 28.388 22.3063 28.37 22.3299 28.3576C22.3536 28.3452 22.3799 28.3389 22.4065 28.3392C22.4332 28.3395 22.4594 28.3465 22.4827 28.3594C22.9409 28.5244 23.4231 28.6128 23.9101 28.6211" fill="#009EDB"/>
<path d="M28.6817 28.6984C29.0577 28.6879 29.4302 28.6238 29.788 28.5081C29.9129 28.5081 29.9605 28.5081 29.9367 28.6449L29.8237 29.1802C29.8143 29.2272 29.7916 29.2706 29.7582 29.3051C29.7093 29.3424 29.6552 29.3724 29.5977 29.3943C29.2472 29.5624 28.8622 29.6459 28.4736 29.6382C28.1452 29.6491 27.8195 29.5754 27.5279 29.424C27.2687 29.2811 27.0764 29.0418 26.9926 28.7579C26.8902 28.3801 26.8902 27.9819 26.9926 27.6041L27.1591 26.8249C27.2343 26.4136 27.3988 26.0238 27.6409 25.683C27.8556 25.3939 28.1372 25.1612 28.4617 25.0049C28.7945 24.8651 29.1535 24.7982 29.5144 24.8087C29.8737 24.7891 30.231 24.8738 30.5433 25.0525C30.5875 25.073 30.6262 25.1035 30.6563 25.1417C30.6725 25.1818 30.6725 25.2266 30.6563 25.2666L30.5374 25.8019C30.5374 25.9268 30.4422 25.9685 30.3352 25.9387C30.2281 25.909 30.0081 25.8317 29.8653 25.796C29.6916 25.7571 29.5139 25.7391 29.336 25.7424C28.7709 25.7424 28.4141 26.1112 28.2594 26.8428L28.087 27.6219C28.0007 27.9005 28.0197 28.201 28.1405 28.4665C28.1992 28.5493 28.2781 28.6158 28.3697 28.6595C28.4613 28.7032 28.5626 28.7228 28.6639 28.7163" fill="#009EDB"/>
<path d="M33.0518 25.7126C32.582 25.7169 32.1152 25.789 31.666 25.9267C31.5411 25.9624 31.4935 25.9267 31.5232 25.7899L31.6303 25.2784C31.6374 25.2306 31.6604 25.1866 31.6957 25.1535C31.7425 25.1162 31.7946 25.0861 31.8504 25.0643C32.0706 24.9818 32.2974 24.9182 32.5284 24.874C32.8012 24.8252 33.0781 24.8033 33.3551 24.8086C33.6598 24.7981 33.9628 24.8571 34.2413 24.981C34.4651 25.0916 34.6362 25.2861 34.7171 25.5223C34.796 25.8124 34.796 26.1183 34.7171 26.4085L34.1224 29.2634C34.1196 29.3079 34.1053 29.351 34.0807 29.3883C34.0505 29.4198 34.0108 29.4406 33.9677 29.4477C33.706 29.5132 33.4562 29.5667 33.2183 29.6024C32.9305 29.641 32.6403 29.6589 32.35 29.6559C31.9799 29.668 31.6102 29.6198 31.2556 29.5132C31.1386 29.4786 31.0298 29.4208 30.9358 29.3431C30.8418 29.2654 30.7644 29.1695 30.7084 29.0611C30.6096 28.8003 30.5971 28.5147 30.6727 28.2463V28.2047C30.7207 27.9831 30.803 27.7704 30.9166 27.5742C31.0248 27.3955 31.1735 27.2447 31.3508 27.1341C31.5501 27.0005 31.7749 26.9094 32.011 26.8664C32.322 26.8021 32.6391 26.7722 32.9566 26.7772H33.5514L33.6287 26.4085C33.6822 26.1468 33.6644 25.9683 33.5692 25.8732C33.4151 25.7601 33.224 25.7091 33.0339 25.7304M33.1291 28.7519L33.3908 27.5147H32.796C32.5955 27.5037 32.3946 27.5258 32.2013 27.5802C32.0849 27.6111 31.9848 27.6857 31.9217 27.7883C31.8523 27.9101 31.804 28.0429 31.779 28.1809V28.2344C31.7425 28.3506 31.7425 28.4751 31.779 28.5913C31.7978 28.636 31.8271 28.6755 31.8643 28.7065C31.9016 28.7376 31.9458 28.7592 31.9931 28.7697C32.1642 28.8121 32.3404 28.8302 32.5165 28.8232C32.7171 28.8264 32.9172 28.8024 33.1113 28.7519" fill="#009EDB"/>
<path d="M38.9234 29.3948C38.9104 29.4431 38.8835 29.4865 38.8461 29.5197C38.8082 29.5524 38.7593 29.5694 38.7093 29.5672H37.9361C37.916 29.5681 37.8961 29.5636 37.8783 29.5542C37.8605 29.5448 37.8456 29.5308 37.835 29.5137C37.8205 29.4734 37.8205 29.4292 37.835 29.3888L38.4298 26.6232C38.4746 26.4525 38.4867 26.2749 38.4655 26.0998C38.4572 26.0402 38.4352 25.9834 38.4011 25.9338C38.367 25.8842 38.3219 25.8433 38.2692 25.8143C38.1175 25.7412 37.9495 25.7085 37.7815 25.7191C37.4932 25.7217 37.206 25.7556 36.925 25.8202L36.1637 29.3888C36.1546 29.4373 36.1295 29.4813 36.0923 29.5137C36.0554 29.5486 36.0064 29.5678 35.9555 29.5672H35.1823C35.1614 29.5686 35.1404 29.5643 35.1216 29.5549C35.1028 29.5455 35.0868 29.5313 35.0753 29.5137C35.0608 29.4734 35.0608 29.4292 35.0753 29.3888L35.9674 25.2255C35.9674 25.1422 36.0507 25.0887 36.1697 25.0589C36.4792 24.9798 36.7929 24.9183 37.1094 24.8745C37.4032 24.8347 37.6991 24.8128 37.9956 24.8091C38.2386 24.7801 38.4851 24.8039 38.7181 24.8788C38.9511 24.9537 39.1652 25.0781 39.3457 25.2433C39.477 25.4487 39.5601 25.6811 39.589 25.9231C39.6178 26.1651 39.5916 26.4105 39.5122 26.641L38.9234 29.3948Z" fill="#009EDB"/>
<path d="M44.6604 29.4304C44.6604 29.5136 44.5831 29.5612 44.476 29.5791C44.2541 29.6177 44.0293 29.6376 43.804 29.6385C43.5539 29.6563 43.3026 29.6321 43.0605 29.5672C42.9766 29.5365 42.902 29.4849 42.8437 29.4172C42.7854 29.3495 42.7454 29.2681 42.7274 29.1806C42.6786 28.8994 42.6928 28.611 42.7691 28.336L43.3281 25.7071L42.662 25.5882C42.549 25.5882 42.5074 25.5168 42.5252 25.4217L42.6085 25.047C42.6144 25.0004 42.6378 24.9579 42.6739 24.928C42.7099 24.8962 42.7567 24.8792 42.8048 24.8804H43.5006L43.6493 24.1905C43.6598 24.1443 43.6854 24.1028 43.722 24.0727C43.7586 24.0426 43.8042 24.0254 43.8515 24.024L44.6604 23.8574H44.6961C44.7853 23.8574 44.8151 23.8991 44.7972 23.9823L44.6128 24.8507H45.4634C45.4841 24.849 45.5049 24.8518 45.5245 24.859C45.544 24.8662 45.5617 24.8776 45.5764 24.8923C45.5858 24.9118 45.5908 24.9331 45.5908 24.9548C45.5908 24.9764 45.5858 24.9978 45.5764 25.0172L45.4693 25.5109C45.4598 25.5575 45.4346 25.5995 45.3979 25.6298C45.3606 25.6594 45.3147 25.6761 45.2671 25.6774H44.4404L43.8813 28.3063C43.8519 28.4355 43.8519 28.5696 43.8813 28.6988C43.8813 28.7464 43.9883 28.7761 44.137 28.7761H44.6604C44.7794 28.7761 44.827 28.8178 44.8151 28.901L44.6604 29.4304Z" fill="#009EDB"/>
<path d="M49.5718 27.5501C49.4931 27.9371 49.3351 28.3037 49.1078 28.6266C48.8942 28.9401 48.606 29.1956 48.2692 29.3701C47.9151 29.5542 47.5203 29.6462 47.1213 29.6377C46.7591 29.6552 46.4002 29.5618 46.0924 29.3701C45.829 29.1986 45.6416 28.9324 45.569 28.6266C45.4796 28.2734 45.4796 27.9034 45.569 27.5501L45.7117 26.878C45.7873 26.4911 45.9433 26.1243 46.1697 25.8015C46.3899 25.4826 46.6891 25.2264 47.0381 25.058C47.3859 24.8878 47.769 24.8022 48.1562 24.8082C48.5204 24.7896 48.8816 24.883 49.1911 25.0759C49.452 25.25 49.6386 25.5151 49.7145 25.8193C49.798 26.1733 49.798 26.5419 49.7145 26.8959L49.5718 27.5501ZM48.4655 27.5501L48.6082 26.878C48.6915 26.6031 48.6725 26.3073 48.5547 26.0454C48.4939 25.9442 48.4059 25.8621 48.3008 25.8085C48.1956 25.7549 48.0775 25.7318 47.9599 25.742C47.8246 25.7395 47.6901 25.7651 47.5652 25.8173C47.4403 25.8695 47.3276 25.9472 47.2343 26.0454C47.0214 26.2784 46.879 26.5672 46.8239 26.878L46.6812 27.5501C46.6013 27.8239 46.6224 28.1173 46.7407 28.3768C46.7972 28.4822 46.8842 28.5681 46.9903 28.6233C47.0964 28.6784 47.2167 28.7003 47.3354 28.6861C47.4704 28.6878 47.6041 28.6612 47.7281 28.6079C47.8521 28.5546 47.9635 28.4759 48.0551 28.3768C48.2713 28.1484 48.4143 27.8605 48.4655 27.5501Z" fill="#009EDB"/>
<path d="M57.3447 25.2909C57.2965 25.5967 57.1834 25.8886 57.0132 26.1471C56.8429 26.4056 56.6193 26.6247 56.3574 26.7897C55.7975 27.112 55.1593 27.2726 54.5136 27.2537H54.2281H53.9367H53.7761L53.3181 29.4424C53.3075 29.4901 53.2801 29.5323 53.2408 29.5613C53.2078 29.5905 53.1658 29.6073 53.1218 29.6089H52.2832C52.2631 29.6087 52.2432 29.6043 52.2248 29.5961C52.2064 29.5879 52.1898 29.5761 52.1762 29.5613C52.1657 29.5433 52.1602 29.5228 52.1602 29.5019C52.1602 29.481 52.1657 29.4605 52.1762 29.4424L53.3716 23.6196C53.3836 23.5488 53.4218 23.4851 53.4787 23.4412C53.5455 23.4007 53.6209 23.3763 53.6988 23.3698C54.25 23.2879 54.8069 23.2501 55.3641 23.2568C55.9483 23.2194 56.5283 23.3785 57.0116 23.7088C57.2089 23.8941 57.3473 24.1333 57.4097 24.3966C57.4721 24.6599 57.4557 24.9358 57.3625 25.1898L57.3447 25.2909ZM56.1908 25.2909V25.2136C56.2371 25.0885 56.2483 24.953 56.2231 24.822C56.1979 24.6909 56.1374 24.5693 56.0481 24.4701C55.7829 24.2904 55.4626 24.2103 55.144 24.2441C54.8938 24.2433 54.6437 24.2552 54.3946 24.2798L53.9664 26.2723C54.234 26.2723 54.4838 26.2723 54.7099 26.2723C54.962 26.2794 55.2134 26.2431 55.4533 26.1652C55.6397 26.1005 55.8045 25.9851 55.9291 25.8322C56.0571 25.6558 56.1426 25.4522 56.1789 25.2374" fill="#009EDB"/>
<path d="M59.1642 25.7126C58.6944 25.7169 58.2276 25.789 57.7784 25.9267C57.6535 25.9624 57.6059 25.9267 57.6357 25.7899L57.7427 25.2784C57.7498 25.2306 57.7729 25.1866 57.8082 25.1535C57.8549 25.1162 57.9071 25.0861 57.9628 25.0643C58.183 24.9818 58.4098 24.9182 58.6408 24.874C58.9195 24.824 59.2024 24.8021 59.4854 24.8086C59.7901 24.7981 60.0931 24.8571 60.3716 24.981C60.5954 25.0916 60.7665 25.2861 60.8474 25.5223C60.9263 25.8124 60.9263 26.1183 60.8474 26.4085L60.2526 29.2634C60.2457 29.3079 60.2295 29.3504 60.2051 29.3883C60.1757 29.4209 60.1356 29.442 60.0921 29.4477C59.8304 29.5132 59.5806 29.5667 59.3427 29.6024C59.0549 29.641 58.7647 29.6589 58.4743 29.6559C58.1042 29.668 57.7346 29.6198 57.3799 29.5132C57.2629 29.4786 57.1542 29.4208 57.0601 29.3431C56.9661 29.2654 56.8887 29.1695 56.8327 29.0611C56.7339 28.8003 56.7214 28.5147 56.7971 28.2463V28.2047C56.845 27.9831 56.9273 27.7704 57.0409 27.5742C57.1491 27.3955 57.2979 27.2447 57.4751 27.1341C57.6745 27.0005 57.8992 26.9094 58.1353 26.8664C58.4463 26.8021 58.7634 26.7722 59.081 26.7772H59.6757L59.753 26.4085C59.8066 26.1468 59.7887 25.9683 59.6936 25.8732C59.5394 25.7601 59.3483 25.7091 59.1583 25.7304M59.2534 28.7519L59.5211 27.4969H58.9263C58.7258 27.4858 58.5249 27.508 58.3316 27.5623C58.2151 27.5933 58.1151 27.6678 58.052 27.7705C57.9825 27.8923 57.9343 28.025 57.9093 28.163V28.2166C57.8727 28.3327 57.8727 28.4573 57.9093 28.5734C57.9281 28.6181 57.9574 28.6576 57.9946 28.6887C58.0319 28.7197 58.076 28.7414 58.1234 28.7519C58.2945 28.7943 58.4707 28.8123 58.6468 28.8054C58.8473 28.8086 59.0474 28.7846 59.2415 28.734" fill="#009EDB"/>
<path d="M66.0637 24.9929V25.0405L63.6251 29.9295C63.4961 30.2056 63.3344 30.4652 63.1434 30.7027C62.9824 30.8868 62.778 31.0279 62.5486 31.113C62.2557 31.212 61.9477 31.2583 61.6386 31.2498C61.4814 31.2487 61.3244 31.2368 61.1688 31.2142C61.0339 31.2004 60.9005 31.1746 60.7703 31.1368C60.6632 31.1368 60.6097 31.0595 60.6275 30.9941L60.7405 30.4588C60.7444 30.437 60.7527 30.4162 60.765 30.3978C60.7773 30.3794 60.7933 30.3637 60.8119 30.3517C60.8498 30.3239 60.8957 30.3092 60.9428 30.3101H61.4067L61.8765 30.3398C61.9854 30.3413 62.0939 30.3252 62.1977 30.2923C62.2911 30.2598 62.3749 30.2046 62.4416 30.1317C62.5276 30.0308 62.5997 29.9188 62.6557 29.7986L62.7746 29.5488H62.6497C62.5603 29.5491 62.4716 29.5329 62.388 29.5012C62.2973 29.4629 62.2235 29.3932 62.1799 29.305C62.1112 29.1638 62.0727 29.0098 62.0669 28.8529L61.7873 25.0167C61.7847 24.997 61.7847 24.977 61.7873 24.9572C61.7946 24.9155 61.818 24.8784 61.8526 24.8538C61.8871 24.8293 61.9299 24.8195 61.9717 24.8264H62.8222C62.8393 24.8257 62.8564 24.8291 62.8719 24.8363C62.8874 24.8436 62.901 24.8544 62.9114 24.868C62.9354 24.8984 62.948 24.9363 62.9471 24.9751L63.0899 28.4069C63.0899 28.5318 63.0899 28.5912 63.1612 28.5912H63.2385L64.9098 24.9929C64.9235 24.9516 64.9498 24.9156 64.985 24.89C65.0202 24.8644 65.0626 24.8504 65.1061 24.8502H65.9626C65.9806 24.849 65.9987 24.8521 66.0152 24.8594C66.0318 24.8666 66.0464 24.8777 66.0577 24.8918C66.0666 24.9072 66.0713 24.9246 66.0713 24.9423C66.0713 24.9601 66.0666 24.9775 66.0577 24.9929" fill="#009EDB"/>
<path fill-rule="evenodd" clip-rule="evenodd" d="M14.9167 8.83984H18.8719L22.1728 17.9398L25.0277 10.3922C25.0517 10.2836 25.0536 10.1712 25.0331 10.0619C25.0127 9.9525 24.9704 9.8484 24.9088 9.75578C24.7601 9.45245 24.5995 9.16102 24.4329 8.85174H27.4068C27.2402 9.44651 26.9785 10.1305 26.7585 10.7609L22.8925 21.3656C21.7514 21.1857 20.6817 20.6961 19.7997 19.9501C19.2139 19.3497 18.785 18.6143 18.5507 17.8089L15.3628 9.73794C15.2381 9.42723 15.0889 9.12691 14.9167 8.83984ZM30.678 13.1043V19.6111C30.678 19.8728 30.7494 19.9144 30.9278 20.1344L31.695 21.1039H28.0015C28.1978 20.7887 28.4119 20.4794 28.626 20.188C28.7778 20.0085 28.8601 19.7806 28.858 19.5456V10.4576L27.7874 8.83984H31.6415L37.8746 16.5242V10.3922C37.8858 10.1607 37.8094 9.93346 37.6605 9.75578C37.4583 9.45245 37.2383 9.16102 37.0182 8.85174H40.7355L39.9623 9.82121C39.8865 9.88487 39.8266 9.96532 39.7874 10.0562C39.7482 10.147 39.7306 10.2458 39.7363 10.3446V21.4072C38.3207 21.2407 37.0063 20.9017 35.8524 19.4564L30.678 13.1043Z" fill="#ED1C24"/>
<path fill-rule="evenodd" clip-rule="evenodd" d="M73.0912 11.7834C73.0945 11.5136 73.1345 11.2455 73.2101 10.9864C73.2905 10.727 73.4003 10.4775 73.5373 10.243C73.8233 9.77533 74.2356 9.39802 74.7268 9.15457C75.2783 8.87249 75.8918 8.73342 76.5111 8.75012C76.7704 8.74579 77.029 8.77987 77.2783 8.85123C77.5198 8.9239 77.7515 9.02576 77.9683 9.15457C78.4138 9.41474 78.7783 9.79363 79.021 10.2489C79.15 10.4955 79.2536 10.7546 79.3303 11.0221C79.3989 11.3085 79.4328 11.602 79.4314 11.8964C79.4257 12.352 79.3328 12.8022 79.1578 13.2228C78.9752 13.6597 78.6968 14.05 78.343 14.3647L78.7831 14.787C78.9573 14.9558 79.1442 15.1109 79.3422 15.2509C79.5453 15.402 79.7647 15.5297 79.9964 15.6316C80.2338 15.7375 80.487 15.8038 80.7458 15.8278C80.5276 16.0089 80.2829 16.1553 80.0202 16.262C79.7653 16.365 79.4922 16.4156 79.2173 16.4107C78.9715 16.4124 78.7282 16.3617 78.5036 16.262C78.2618 16.1665 78.0323 16.0427 77.8196 15.8933C77.5936 15.7386 77.3854 15.584 77.2248 15.4293L76.7371 15.019H76.6003H76.404L76.1126 15.0487C75.5707 15.051 75.0397 14.896 74.584 14.6026C74.1252 14.3114 73.7549 13.9 73.5135 13.4131C73.3812 13.1729 73.2793 12.9172 73.2101 12.6518C73.1369 12.3679 73.0969 12.0765 73.0912 11.7834ZM74.8279 11.7834C74.8297 11.9834 74.8516 12.1826 74.8933 12.3782C74.9395 12.5653 74.9951 12.7499 75.0599 12.9313C75.1623 13.2651 75.3439 13.5691 75.5892 13.8175C75.6985 13.9282 75.8293 14.0153 75.9735 14.0736C76.1177 14.1319 76.2723 14.1601 76.4278 14.1565C76.6176 14.1642 76.8058 14.1201 76.9724 14.0289C77.139 13.9378 77.2776 13.803 77.3735 13.6391C77.6026 13.2375 77.7178 12.781 77.7066 12.3187C77.7066 12.1819 77.7066 11.9559 77.659 11.6585C77.6321 11.4575 77.5903 11.2587 77.5341 11.0638C77.5003 10.8819 77.4464 10.7044 77.3735 10.5344C77.2684 10.2689 77.0861 10.041 76.8501 9.88018C76.6227 9.72504 76.352 9.64591 76.0769 9.65417C75.944 9.65213 75.8122 9.67849 75.6903 9.73149C75.5687 9.78143 75.4576 9.8541 75.3632 9.9456C75.175 10.1284 75.0394 10.3585 74.9706 10.6117C74.8851 10.8972 74.843 11.194 74.8457 11.492L74.8279 11.7834ZM81.7034 11.8489C81.8868 11.8241 82.062 11.7569 82.2149 11.6526C82.3648 11.5503 82.4857 11.4109 82.5658 11.2481C82.6096 11.1693 82.6436 11.0854 82.6669 10.9983C82.6786 10.9095 82.6786 10.8195 82.6669 10.7307C82.6783 10.479 82.598 10.2318 82.4409 10.0348C82.3549 9.93861 82.248 9.86339 82.1284 9.81494C82.0088 9.76648 81.8797 9.74607 81.751 9.75528H81.6737L81.7034 11.8489ZM81.7034 12.3366V14.0495C81.6837 14.2152 81.7106 14.3831 81.7809 14.5343C81.8513 14.6856 81.9625 14.8143 82.1019 14.906V14.9476H79.6336V14.906C79.7682 14.8137 79.8745 14.6859 79.9407 14.5368C80.0068 14.3876 80.0303 14.2231 80.0083 14.0614V9.89802C80.0134 9.69773 79.9914 9.49766 79.9429 9.30326C79.8824 9.14543 79.7743 9.01033 79.6336 8.91666H82.6074C82.9192 8.91219 83.228 8.97721 83.5115 9.10698C83.7721 9.22154 83.9919 9.4123 84.1419 9.65417C84.221 9.78087 84.2792 9.91943 84.3144 10.0646C84.3582 10.2194 84.3802 10.3795 84.3798 10.5404C84.37 10.8027 84.2944 11.0584 84.1598 11.2838C83.9544 11.5901 83.6624 11.8282 83.3212 11.9678L84.5107 13.9722C84.72 14.317 84.9807 14.6279 85.2839 14.8941L84.2371 14.9714H83.9814H83.7316C83.54 14.9795 83.3496 14.9386 83.1784 14.8524C83.0101 14.737 82.8781 14.5761 82.7978 14.3885L81.7034 12.3366Z" fill="#ED1C24"/>
<path d="M42.2416 19.2297V10.8376C42.2626 10.4331 42.2019 10.0285 42.0632 9.64803C41.9165 9.35924 41.6997 9.11182 41.4327 8.92836V8.89267H46.9343C47.7958 8.85059 48.6526 9.04168 49.4145 9.44581C49.9557 9.74013 50.3921 10.1953 50.6635 10.7483C50.8754 11.2075 50.9889 11.7059 50.9966 12.2115C50.9966 14.1663 49.8566 15.3558 47.5767 15.7801L46.3871 15.8871C46.1587 15.8506 45.9283 15.8268 45.6972 15.8158C46.2606 15.6168 46.744 15.2399 47.0745 14.7421C47.4049 14.2443 47.5645 13.6525 47.5291 13.056C47.5291 11.47 46.8788 10.677 45.5783 10.677V18.8015C45.5378 19.2112 45.5949 19.6247 45.7448 20.0082C45.8947 20.3917 46.1331 20.7343 46.4407 21.0081V21.0854H41.4327V21.0437C41.7131 20.8373 41.9351 20.5616 42.0769 20.2436C42.2187 19.9256 42.2754 19.5762 42.2416 19.2297Z" fill="#005AAA"/>
<path d="M51.0234 18.3077L53.5809 11.1289C53.7134 10.7778 53.7936 10.409 53.8188 10.0345C53.8064 9.80544 53.7354 9.58337 53.6125 9.38964C53.4896 9.19591 53.319 9.03704 53.117 8.92826V8.89258H57.6907L61.3128 18.5754C61.4747 19.0712 61.6943 19.5463 61.9671 19.9909C62.2268 20.3665 62.5325 20.7082 62.8771 21.008V21.0853H57.1852V21.008C57.4002 20.9233 57.5869 20.7795 57.7237 20.5932C57.8606 20.4069 57.9419 20.1858 57.9584 19.9552C57.9548 19.683 57.9045 19.4134 57.8097 19.1582L57.2149 17.3739H53.4917L52.9385 18.9263C52.8218 19.2647 52.7362 19.6131 52.6828 19.9671C52.6872 20.1511 52.7474 20.3295 52.8553 20.4786C52.9988 20.6745 53.1736 20.8453 53.3727 20.9842V21.0615H49.5305V20.9842C49.8903 20.6977 50.1861 20.3391 50.3989 19.9314C50.494 19.7352 50.5833 19.5151 50.6784 19.2594C50.7736 19.0036 50.8925 18.6646 51.0234 18.2839M54.0329 15.6372H56.6082L55.2879 11.9675L54.0329 15.6372Z" fill="#005AAA"/>
<path d="M65.012 15.5425L61.4434 10.2728C61.241 9.97101 61.0164 9.68473 60.7713 9.41637C60.5869 9.23941 60.388 9.07825 60.1766 8.93461V8.89893H64.7146L67.4922 13.3121L69.0743 11.0698C69.2381 10.8315 69.3626 10.5685 69.443 10.2907C69.4998 10.1162 69.5221 9.93239 69.5085 9.74944C69.4809 9.56971 69.4072 9.40019 69.2946 9.25739C69.1821 9.1146 69.0344 9.00339 68.8661 8.93461V8.89893H73.2019L68.5271 15.5425V18.6531C68.5271 18.7839 68.5271 18.9088 68.5271 19.0337C68.5271 19.1586 68.5271 19.2597 68.5271 19.349C68.5514 19.551 68.5952 19.7502 68.6579 19.9437C68.7664 20.3606 69.0114 20.7292 69.3538 20.9905V21.0678H64.1972V20.9905C64.7444 20.7229 65.012 20.14 65.012 19.2479V15.5425Z" fill="#005AAA"/>
</g>
<defs>
<clipPath id="clip0_1212_7823">
<rect width="70.3608" height="22.5" fill="white" transform="translate(14.9167 8.75)"/>
</clipPath>
</defs>
</svg>
